<ttFont>
    <TTGlyph name=".notdef" xMin="193" yMin="0" xMax="1034" yMax="1462">
      <contour>
        <pt x="193" y="1462" on="1"/>
        <pt x="1034" y="1462" on="1"/>
        <pt x="1034" y="0" on="1"/>
        <pt x="193" y="0" on="1"/>
      </contour>
      <contour>
        <pt x="297" y="104" on="1"/>
        <pt x="930" y="104" on="1"/>
        <pt x="930" y="1358" on="1"/>
        <pt x="297" y="1358" on="1"/>
      </contour>
    </TTGlyph>
    <TTGlyph name="A" xMin="0" yMin="0" xMax="1307" yMax="1468">
      <contour>
        <pt x="1116" y="0" on="1"/>
        <pt x="940" y="453" on="1"/>
        <pt x="360" y="453" on="1"/>
        <pt x="186" y="0" on="1"/>
        <pt x="0" y="0" on="1"/>
        <pt x="571" y="1468" on="1"/>
        <pt x="737" y="1468" on="1"/>
        <pt x="1307" y="0" on="1"/>
      </contour>
      <contour>
        <pt x="885" y="616" on="1"/>
        <pt x="721" y="1059" on="1"/>
        <pt x="651" y="1278" on="1"/>
        <pt x="621" y="1158" on="0"/>
        <pt x="588" y="1059" on="1"/>
        <pt x="422" y="616" on="1"/>
      </contour>
    </TTGlyph>
    <TTGlyph name="AE" xMin="-2" yMin="0" xMax="1681" yMax="1462">
      <contour>
        <pt x="1681" y="0" on="1"/>
        <pt x="920" y="0" on="1"/>
        <pt x="920" y="453" on="1"/>
        <pt x="408" y="453" on="1"/>
        <pt x="188" y="0" on="1"/>
        <pt x="-2" y="0" on="1"/>
        <pt x="692" y="1462" on="1"/>
        <pt x="1681" y="1462" on="1"/>
        <pt x="1681" y="1300" on="1"/>
        <pt x="1104" y="1300" on="1"/>
        <pt x="1104" y="844" on="1"/>
        <pt x="1642" y="844" on="1"/>
        <pt x="1642" y="684" on="1"/>
        <pt x="1104" y="684" on="1"/>
        <pt x="1104" y="162" on="1"/>
        <pt x="1681" y="162" on="1"/>
      </contour>
      <contour>
        <pt x="479" y="616" on="1"/>
        <pt x="920" y="616" on="1"/>
        <pt x="920" y="1298" on="1"/>
        <pt x="801" y="1298" on="1"/>
      </contour>
    </TTGlyph>
    <TTGlyph name="AEacute" xMin="-2" yMin="0" xMax="1681" yMax="1907">
      <component glyphName="AE" x="0" y="0" flags="0x204"/>
      <component glyphName="acute" x="596" y="338" flags="0x4"/>
    </TTGlyph>
    <TTGlyph name="Aacute" xMin="0" yMin="0" xMax="1307" yMax="1907">
      <component glyphName="A" x="0" y="0" flags="0x204"/>
      <component glyphName="acute" x="139" y="338" flags="0x4"/>
    </TTGlyph>
    <TTGlyph name="Abreve" xMin="0" yMin="0" xMax="1307" yMax="1854">
      <component glyphName="A" x="0" y="0" flags="0x204"/>
      <component glyphName="breve" x="47" y="338" flags="0x4"/>
    </TTGlyph>
    <TTGlyph name="Acircumflex" xMin="0" yMin="0" xMax="1307" yMax="1907">
      <component glyphName="A" x="0" y="0" flags="0x204"/>
      <component glyphName="circumflex" x="39" y="338" flags="0x4"/>
    </TTGlyph>
    <TTGlyph name="Adieresis" xMin="0" yMin="0" xMax="1307" yMax="1833">
      <component glyphName="A" x="0" y="0" flags="0x204"/>
      <component glyphName="dieresis" x="57" y="338" flags="0x4"/>
    </TTGlyph>
    <TTGlyph name="Agrave" xMin="0" yMin="0" xMax="1307" yMax="1907">
      <component glyphName="A" x="0" y="0" flags="0x204"/>
      <component glyphName="grave" x="-54" y="338" flags="0x4"/>
    </TTGlyph>
    <TTGlyph name="Alpha" xMin="0" yMin="0" xMax="1307" yMax="1468">
      <component glyphName="A" x="0" y="0" flags="0x204"/>
    </TTGlyph>
    <TTGlyph name="Alphatonos" xMin="0" yMin="0" xMax="1307" yMax="1544">
      <component glyphName="A" x="0" y="0" flags="0x204"/>
      <component glyphName="tonos" x="-484" y="-105" flags="0x4"/>
    </TTGlyph>
    <TTGlyph name="Amacron" xMin="0" yMin="0" xMax="1307" yMax="1724">
      <component glyphName="A" x="0" y="0" flags="0x204"/>
      <component glyphName="uni02C9" x="66" y="338" flags="0x4"/>
    </TTGlyph>
    <TTGlyph name="Aogonek" xMin="0" yMin="-451" xMax="1307" yMax="1468">
      <component glyphName="A" x="0" y="0" flags="0x204"/>
      <component glyphName="ogonek" x="924" y="0" flags="0x4"/>
    </TTGlyph>
    <TTGlyph name="Aring" xMin="0" yMin="0" xMax="1307" yMax="1798">
      <contour>
        <pt x="877" y="1585" on="1"/>
        <pt x="877" y="1516" on="0"/>
        <pt x="817" y="1417" on="0"/>
        <pt x="766" y="1393" on="1"/>
        <pt x="1307" y="0" on="1"/>
        <pt x="1116" y="0" on="1"/>
        <pt x="940" y="453" on="1"/>
        <pt x="360" y="453" on="1"/>
        <pt x="186" y="0" on="1"/>
        <pt x="0" y="0" on="1"/>
        <pt x="539" y="1386" on="1"/>
        <pt x="486" y="1411" on="0"/>
        <pt x="426" y="1511" on="0"/>
        <pt x="426" y="1583" on="1"/>
        <pt x="426" y="1681" on="0"/>
        <pt x="546" y="1798" on="0"/>
        <pt x="649" y="1798" on="1"/>
        <pt x="751" y="1798" on="0"/>
        <pt x="877" y="1680" on="0"/>
      </contour>
      <contour>
        <pt x="885" y="616" on="1"/>
        <pt x="721" y="1059" on="1"/>
        <pt x="651" y="1278" on="1"/>
        <pt x="621" y="1158" on="0"/>
        <pt x="588" y="1059" on="1"/>
        <pt x="422" y="616" on="1"/>
      </contour>
      <contour>
        <pt x="764" y="1583" on="1"/>
        <pt x="764" y="1637" on="0"/>
        <pt x="699" y="1698" on="0"/>
        <pt x="649" y="1698" on="1"/>
        <pt x="600" y="1698" on="0"/>
        <pt x="535" y="1637" on="0"/>
        <pt x="535" y="1583" on="1"/>
        <pt x="535" y="1529" on="0"/>
        <pt x="593" y="1468" on="0"/>
        <pt x="649" y="1468" on="1"/>
        <pt x="700" y="1468" on="0"/>
        <pt x="764" y="1529" on="0"/>
      </contour>
    </TTGlyph>
    <TTGlyph name="Aringacute" xMin="0" yMin="0" xMax="1311" yMax="1962">
      <contour>
        <pt x="881" y="1432" on="1"/>
        <pt x="881" y="1367" on="0"/>
        <pt x="827" y="1273" on="0"/>
        <pt x="782" y="1247" on="1"/>
        <pt x="1311" y="0" on="1"/>
        <pt x="1120" y="0" on="1"/>
        <pt x="952" y="393" on="1"/>
        <pt x="348" y="393" on="1"/>
        <pt x="188" y="0" on="1"/>
        <pt x="0" y="0" on="1"/>
        <pt x="528" y="1245" on="1"/>
        <pt x="428" y="1299" on="0"/>
        <pt x="428" y="1430" on="1"/>
        <pt x="428" y="1528" on="0"/>
        <pt x="548" y="1647" on="0"/>
        <pt x="651" y="1647" on="1"/>
        <pt x="754" y="1647" on="0"/>
        <pt x="881" y="1527" on="0"/>
      </contour>
      <contour>
        <pt x="899" y="557" on="1"/>
        <pt x="727" y="981" on="1"/>
        <pt x="700" y="1042" on="0"/>
        <pt x="653" y="1188" on="1"/>
        <pt x="622" y="1081" on="0"/>
        <pt x="582" y="977" on="1"/>
        <pt x="412" y="557" on="1"/>
      </contour>
      <contour>
        <pt x="555" y="1716" on="1"/>
        <pt x="612" y="1783" on="0"/>
        <pt x="707" y="1923" on="0"/>
        <pt x="729" y="1962" on="1"/>
        <pt x="946" y="1962" on="1"/>
        <pt x="946" y="1946" on="1"/>
        <pt x="916" y="1904" on="0"/>
        <pt x="739" y="1740" on="0"/>
        <pt x="676" y="1698" on="1"/>
        <pt x="555" y="1698" on="1"/>
      </contour>
      <contour>
        <pt x="766" y="1430" on="1"/>
        <pt x="766" y="1485" on="0"/>
        <pt x="702" y="1544" on="0"/>
        <pt x="651" y="1544" on="1"/>
        <pt x="602" y="1544" on="0"/>
        <pt x="537" y="1485" on="0"/>
        <pt x="537" y="1430" on="1"/>
        <pt x="537" y="1376" on="0"/>
        <pt x="596" y="1315" on="0"/>
        <pt x="651" y="1315" on="1"/>
        <pt x="702" y="1315" on="0"/>
        <pt x="766" y="1374" on="0"/>
      </contour>
    </TTGlyph>
    <TTGlyph name="Atilde" xMin="0" yMin="0" xMax="1307" yMax="1843">
      <component glyphName="A" x="0" y="0" flags="0x204"/>
      <component glyphName="tilde" x="12" y="338" flags="0x4"/>
    </TTGlyph>
    <TTGlyph name="B" xMin="199" yMin="0" xMax="1221" yMax="1462">
      <contour>
        <pt x="199" y="1462" on="1"/>
        <pt x="616" y="1462" on="1"/>
        <pt x="910" y="1462" on="0"/>
        <pt x="1171" y="1287" on="0"/>
        <pt x="1171" y="1100" on="1"/>
        <pt x="1171" y="970" on="0"/>
        <pt x="1029" y="801" on="0"/>
        <pt x="893" y="776" on="1"/>
        <pt x="893" y="766" on="1"/>
        <pt x="1062" y="737" on="0"/>
        <pt x="1221" y="561" on="0"/>
        <pt x="1221" y="416" on="1"/>
        <pt x="1221" y="220" on="0"/>
        <pt x="953" y="0" on="0"/>
        <pt x="713" y="0" on="1"/>
        <pt x="199" y="0" on="1"/>
      </contour>
      <contour>
        <pt x="383" y="840" on="1"/>
        <pt x="653" y="840" on="1"/>
        <pt x="825" y="840" on="0"/>
        <pt x="981" y="950" on="0"/>
        <pt x="981" y="1079" on="1"/>
        <pt x="981" y="1199" on="0"/>
        <pt x="810" y="1305" on="0"/>
        <pt x="625" y="1305" on="1"/>
        <pt x="383" y="1305" on="1"/>
      </contour>
      <contour>
        <pt x="383" y="686" on="1"/>
        <pt x="383" y="156" on="1"/>
        <pt x="678" y="156" on="1"/>
        <pt x="854" y="156" on="0"/>
        <pt x="1024" y="292" on="0"/>
        <pt x="1024" y="430" on="1"/>
        <pt x="1024" y="561" on="0"/>
        <pt x="844" y="686" on="0"/>
        <pt x="664" y="686" on="1"/>
      </contour>
    </TTGlyph>
    <TTGlyph name="Beta" xMin="199" yMin="0" xMax="1221" yMax="1462">
      <component glyphName="B" x="0" y="0" flags="0x204"/>
    </TTGlyph>
    <TTGlyph name="C" xMin="125" yMin="-20" xMax="1231" yMax="1483">
      <contour>
        <pt x="825" y="1321" on="1"/>
        <pt x="589" y="1321" on="0"/>
        <pt x="319" y="1005" on="0"/>
        <pt x="319" y="731" on="1"/>
        <pt x="319" y="448" on="0"/>
        <pt x="581" y="141" on="0"/>
        <pt x="823" y="141" on="1"/>
        <pt x="979" y="141" on="0"/>
        <pt x="1174" y="199" on="1"/>
        <pt x="1174" y="39" on="1"/>
        <pt x="1081" y="5" on="0"/>
        <pt x="909" y="-20" on="0"/>
        <pt x="797" y="-20" on="1"/>
        <pt x="474" y="-20" on="0"/>
        <pt x="125" y="373" on="0"/>
        <pt x="125" y="733" on="1"/>
        <pt x="125" y="959" on="0"/>
        <pt x="292" y="1299" on="0"/>
        <pt x="611" y="1483" on="0"/>
        <pt x="827" y="1483" on="1"/>
        <pt x="1059" y="1483" on="0"/>
        <pt x="1231" y="1397" on="1"/>
        <pt x="1157" y="1241" on="1"/>
        <pt x="982" y="1321" on="0"/>
      </contour>
    </TTGlyph>
    <TTGlyph name="Cacute" xMin="125" yMin="-20" xMax="1231" yMax="1907">
      <component glyphName="C" x="0" y="0" flags="0x204"/>
      <component glyphName="acute" x="264" y="338" flags="0x4"/>
    </TTGlyph>
    <TTGlyph name="Ccaron" xMin="125" yMin="-20" xMax="1231" yMax="1907">
      <component glyphName="C" x="0" y="0" flags="0x204"/>
      <component glyphName="caron" x="190" y="338" flags="0x4"/>
    </TTGlyph>
    <TTGlyph name="Ccedilla" xMin="125" yMin="-492" xMax="1231" yMax="1483">
      <component glyphName="C" x="0" y="0" flags="0x204"/>
      <component glyphName="cedilla" x="516" y="0" flags="0x4"/>
    </TTGlyph>
    <TTGlyph name="Ccircumflex" xMin="125" yMin="-20" xMax="1231" yMax="1907">
      <component glyphName="C" x="0" y="0" flags="0x204"/>
      <component glyphName="circumflex" x="190" y="338" flags="0x4"/>
    </TTGlyph>
    <TTGlyph name="Cdotaccent" xMin="125" yMin="-20" xMax="1231" yMax="1847">
      <component glyphName="C" x="0" y="0" flags="0x204"/>
      <component glyphName="dotaccent" x="530" y="338" flags="0x4"/>
    </TTGlyph>
    <TTGlyph name="Chi" xMin="8" yMin="0" xMax="1192" yMax="1462">
      <component glyphName="X" x="0" y="0" flags="0x204"/>
    </TTGlyph>
    <TTGlyph name="D" xMin="199" yMin="0" xMax="1370" yMax="1462">
      <contour>
        <pt x="1370" y="745" on="1"/>
        <pt x="1370" y="383" on="0"/>
        <pt x="975" y="0" on="0"/>
        <pt x="606" y="0" on="1"/>
        <pt x="199" y="0" on="1"/>
        <pt x="199" y="1462" on="1"/>
        <pt x="649" y="1462" on="1"/>
        <pt x="990" y="1462" on="0"/>
        <pt x="1370" y="1087" on="0"/>
      </contour>
      <contour>
        <pt x="1176" y="739" on="1"/>
        <pt x="1176" y="1018" on="0"/>
        <pt x="901" y="1305" on="0"/>
        <pt x="623" y="1305" on="1"/>
        <pt x="383" y="1305" on="1"/>
        <pt x="383" y="158" on="1"/>
        <pt x="582" y="158" on="1"/>
        <pt x="1176" y="158" on="0"/>
      </contour>
    </TTGlyph>
    <TTGlyph name="Dcaron" xMin="199" yMin="0" xMax="1370" yMax="1907">
      <component glyphName="D" x="0" y="0" flags="0x204"/>
      <component glyphName="caron" x="88" y="338" flags="0x4"/>
    </TTGlyph>
    <TTGlyph name="Dcroat" xMin="61" yMin="0" xMax="1370" yMax="1462">
      <component glyphName="Eth" x="0" y="0" flags="0x204"/>
    </TTGlyph>
    <TTGlyph name="Delta" xMin="41" yMin="0" xMax="1149" yMax="1462">
      <component glyphName="uni2206" x="0" y="0" flags="0x204"/>
    </TTGlyph>
    <TTGlyph name="E" xMin="199" yMin="0" xMax="1016" yMax="1462">
      <contour>
        <pt x="1016" y="0" on="1"/>
        <pt x="199" y="0" on="1"/>
        <pt x="199" y="1462" on="1"/>
        <pt x="1016" y="1462" on="1"/>
        <pt x="1016" y="1300" on="1"/>
        <pt x="383" y="1300" on="1"/>
        <pt x="383" y="844" on="1"/>
        <pt x="979" y="844" on="1"/>
        <pt x="979" y="684" on="1"/>
        <pt x="383" y="684" on="1"/>
        <pt x="383" y="162" on="1"/>
        <pt x="1016" y="162" on="1"/>
      </contour>
    </TTGlyph>
    <TTGlyph name="Eacute" xMin="199" yMin="0" xMax="1016" yMax="1907">
      <component glyphName="E" x="0" y="0" flags="0x204"/>
      <component glyphName="acute" x="66" y="338" flags="0x4"/>
    </TTGlyph>
    <TTGlyph name="Ebreve" xMin="199" yMin="0" xMax="1016" yMax="1854">
      <component glyphName="E" x="0" y="0" flags="0x204"/>
      <component glyphName="breve" x="12" y="338" flags="0x4"/>
    </TTGlyph>
    <TTGlyph name="Ecaron" xMin="199" yMin="0" xMax="1016" yMax="1907">
      <component glyphName="E" x="0" y="0" flags="0x204"/>
      <component glyphName="caron" x="12" y="338" flags="0x4"/>
    </TTGlyph>
    <TTGlyph name="Ecircumflex" xMin="199" yMin="0" xMax="1016" yMax="1907">
      <component glyphName="E" x="0" y="0" flags="0x204"/>
      <component glyphName="circumflex" x="-5" y="338" flags="0x4"/>
    </TTGlyph>
    <TTGlyph name="Edieresis" xMin="199" yMin="0" xMax="1016" yMax="1833">
      <component glyphName="E" x="0" y="0" flags="0x204"/>
      <component glyphName="dieresis" x="14" y="338" flags="0x4"/>
    </TTGlyph>
    <TTGlyph name="Edotaccent" xMin="199" yMin="0" xMax="1016" yMax="1818">
      <component glyphName="E" x="0" y="0" flags="0x204"/>
      <component glyphName="dotaccent" x="358" y="309" flags="0x4"/>
    </TTGlyph>
    <TTGlyph name="Egrave" xMin="199" yMin="0" xMax="1016" yMax="1907">
      <component glyphName="E" x="0" y="0" flags="0x204"/>
      <component glyphName="grave" x="-73" y="338" flags="0x4"/>
    </TTGlyph>
    <TTGlyph name="Emacron" xMin="199" yMin="0" xMax="1016" yMax="1724">
      <component glyphName="E" x="0" y="0" flags="0x204"/>
      <component glyphName="uni02C9" x="4" y="338" flags="0x4"/>
    </TTGlyph>
    <TTGlyph name="Eng" xMin="199" yMin="-389" xMax="1358" yMax="1462">
      <contour>
        <pt x="973" y="-389" on="1"/>
        <pt x="875" y="-389" on="0"/>
        <pt x="817" y="-362" on="1"/>
        <pt x="817" y="-207" on="1"/>
        <pt x="888" y="-227" on="0"/>
        <pt x="973" y="-227" on="1"/>
        <pt x="1075" y="-227" on="0"/>
        <pt x="1184" y="-110" on="0"/>
        <pt x="1186" y="0" on="1"/>
        <pt x="360" y="1214" on="1"/>
        <pt x="352" y="1214" on="1"/>
        <pt x="369" y="959" on="0"/>
        <pt x="369" y="793" on="1"/>
        <pt x="369" y="0" on="1"/>
        <pt x="199" y="0" on="1"/>
        <pt x="199" y="1462" on="1"/>
        <pt x="412" y="1462" on="1"/>
        <pt x="1192" y="291" on="1"/>
        <pt x="1200" y="291" on="1"/>
        <pt x="1186" y="445" on="0"/>
        <pt x="1186" y="700" on="1"/>
        <pt x="1186" y="1462" on="1"/>
        <pt x="1358" y="1462" on="1"/>
        <pt x="1358" y="12" on="1"/>
        <pt x="1358" y="-184" on="0"/>
        <pt x="1159" y="-389" on="0"/>
      </contour>
    </TTGlyph>
    <TTGlyph name="Eogonek" xMin="199" yMin="-451" xMax="1016" yMax="1462">
      <component glyphName="E" x="0" y="0" flags="0x204"/>
      <component glyphName="ogonek" x="621" y="0" flags="0x4"/>
    </TTGlyph>
    <TTGlyph name="Epsilon" xMin="199" yMin="0" xMax="1016" yMax="1462">
      <component glyphName="E" x="0" y="0" flags="0x204"/>
    </TTGlyph>
    <TTGlyph name="Epsilontonos" xMin="-48" yMin="0" xMax="1141" yMax="1544">
      <component glyphName="E" x="125" y="0" flags="0x4"/>
      <component glyphName="tonos" x="-552" y="-105" flags="0x4"/>
    </TTGlyph>
    <TTGlyph name="Eta" xMin="199" yMin="0" xMax="1317" yMax="1462">
      <component glyphName="H" x="0" y="0" flags="0x204"/>
    </TTGlyph>
    <TTGlyph name="Etatonos" xMin="-48" yMin="0" xMax="1464" yMax="1544">
      <component glyphName="H" x="147" y="0" flags="0x4"/>
      <component glyphName="tonos" x="-552" y="-105" flags="0x4"/>
    </TTGlyph>
    <TTGlyph name="Eth" xMin="61" yMin="0" xMax="1370" yMax="1462">
      <contour>
        <pt x="1370" y="745" on="1"/>
        <pt x="1370" y="386" on="0"/>
        <pt x="977" y="0" on="0"/>
        <pt x="604" y="0" on="1"/>
        <pt x="213" y="0" on="1"/>
        <pt x="213" y="643" on="1"/>
        <pt x="61" y="643" on="1"/>
        <pt x="61" y="803" on="1"/>
        <pt x="213" y="803" on="1"/>
        <pt x="213" y="1462" on="1"/>
        <pt x="649" y="1462" on="1"/>
        <pt x="990" y="1462" on="0"/>
        <pt x="1370" y="1085" on="0"/>
      </contour>
      <contour>
        <pt x="1176" y="739" on="1"/>
        <pt x="1176" y="1019" on="0"/>
        <pt x="898" y="1305" on="0"/>
        <pt x="623" y="1305" on="1"/>
        <pt x="397" y="1305" on="1"/>
        <pt x="397" y="803" on="1"/>
        <pt x="762" y="803" on="1"/>
        <pt x="762" y="643" on="1"/>
        <pt x="397" y="643" on="1"/>
        <pt x="397" y="158" on="1"/>
        <pt x="582" y="158" on="1"/>
        <pt x="1176" y="158" on="0"/>
      </contour>
    </TTGlyph>
    <TTGlyph name="Euro" xMin="47" yMin="-20" xMax="1145" yMax="1481">
      <contour>
        <pt x="778" y="1323" on="1"/>
        <pt x="466" y="1323" on="0"/>
        <pt x="391" y="932" on="1"/>
        <pt x="891" y="932" on="1"/>
        <pt x="891" y="799" on="1"/>
        <pt x="377" y="799" on="1"/>
        <pt x="375" y="743" on="1"/>
        <pt x="375" y="681" on="1"/>
        <pt x="377" y="637" on="1"/>
        <pt x="829" y="637" on="1"/>
        <pt x="829" y="504" on="1"/>
        <pt x="393" y="504" on="1"/>
        <pt x="428" y="330" on="0"/>
        <pt x="627" y="139" on="0"/>
        <pt x="795" y="139" on="1"/>
        <pt x="947" y="139" on="0"/>
        <pt x="1100" y="205" on="1"/>
        <pt x="1100" y="45" on="1"/>
        <pt x="954" y="-20" on="0"/>
        <pt x="784" y="-20" on="1"/>
        <pt x="548" y="-20" on="0"/>
        <pt x="257" y="247" on="0"/>
        <pt x="211" y="504" on="1"/>
        <pt x="47" y="504" on="1"/>
        <pt x="47" y="637" on="1"/>
        <pt x="195" y="637" on="1"/>
        <pt x="193" y="679" on="1"/>
        <pt x="193" y="721" on="1"/>
        <pt x="195" y="799" on="1"/>
        <pt x="47" y="799" on="1"/>
        <pt x="47" y="932" on="1"/>
        <pt x="209" y="932" on="1"/>
        <pt x="249" y="1196" on="0"/>
        <pt x="545" y="1481" on="0"/>
        <pt x="778" y="1481" on="1"/>
        <pt x="983" y="1481" on="0"/>
        <pt x="1145" y="1386" on="1"/>
        <pt x="1069" y="1239" on="1"/>
        <pt x="907" y="1323" on="0"/>
      </contour>
    </TTGlyph>
    <TTGlyph name="F" xMin="199" yMin="0" xMax="1016" yMax="1462">
      <contour>
        <pt x="383" y="0" on="1"/>
        <pt x="199" y="0" on="1"/>
        <pt x="199" y="1462" on="1"/>
        <pt x="1016" y="1462" on="1"/>
        <pt x="1016" y="1300" on="1"/>
        <pt x="383" y="1300" on="1"/>
        <pt x="383" y="782" on="1"/>
        <pt x="977" y="782" on="1"/>
        <pt x="977" y="621" on="1"/>
        <pt x="383" y="621" on="1"/>
      </contour>
    </TTGlyph>
    <TTGlyph name="G" xMin="125" yMin="-20" xMax="1339" yMax="1483">
      <contour>
        <pt x="834" y="772" on="1"/>
        <pt x="1339" y="772" on="1"/>
        <pt x="1339" y="55" on="1"/>
        <pt x="1223" y="18" on="0"/>
        <pt x="983" y="-20" on="0"/>
        <pt x="825" y="-20" on="1"/>
        <pt x="491" y="-20" on="0"/>
        <pt x="125" y="376" on="0"/>
        <pt x="125" y="731" on="1"/>
        <pt x="125" y="960" on="0"/>
        <pt x="307" y="1302" on="0"/>
        <pt x="650" y="1483" on="0"/>
        <pt x="883" y="1483" on="1"/>
        <pt x="1117" y="1483" on="0"/>
        <pt x="1319" y="1397" on="1"/>
        <pt x="1249" y="1237" on="1"/>
        <pt x="1056" y="1321" on="0"/>
        <pt x="872" y="1321" on="1"/>
        <pt x="611" y="1321" on="0"/>
        <pt x="317" y="1005" on="0"/>
        <pt x="317" y="731" on="1"/>
        <pt x="317" y="441" on="0"/>
        <pt x="599" y="139" on="0"/>
        <pt x="868" y="139" on="1"/>
        <pt x="1015" y="139" on="0"/>
        <pt x="1155" y="174" on="1"/>
        <pt x="1155" y="608" on="1"/>
        <pt x="834" y="608" on="1"/>
      </contour>
    </TTGlyph>
    <TTGlyph name="Gamma" xMin="199" yMin="0" xMax="1024" yMax="1462">
      <contour>
        <pt x="1024" y="1462" on="1"/>
        <pt x="1024" y="1298" on="1"/>
        <pt x="383" y="1298" on="1"/>
        <pt x="383" y="0" on="1"/>
        <pt x="199" y="0" on="1"/>
        <pt x="199" y="1462" on="1"/>
      </contour>
    </TTGlyph>
    <TTGlyph name="Gbreve" xMin="125" yMin="-20" xMax="1339" yMax="1854">
      <component glyphName="G" x="0" y="0" flags="0x204"/>
      <component glyphName="breve" x="248" y="338" flags="0x4"/>
    </TTGlyph>
    <TTGlyph name="Gcaron" xMin="125" yMin="-20" xMax="1339" yMax="1907">
      <component glyphName="G" x="0" y="0" flags="0x204"/>
      <component glyphName="caron" x="248" y="338" flags="0x4"/>
    </TTGlyph>
    <TTGlyph name="Gcircumflex" xMin="125" yMin="-20" xMax="1339" yMax="1907">
      <component glyphName="G" x="0" y="0" flags="0x204"/>
      <component glyphName="circumflex" x="248" y="338" flags="0x4"/>
    </TTGlyph>
    <TTGlyph name="Gcommaaccent" xMin="125" yMin="-453" xMax="1339" yMax="1483">
      <component glyphName="G" x="0" y="0" flags="0x204"/>
      <component glyphName="glyph00569" x="293" y="0" flags="0x4"/>
    </TTGlyph>
    <TTGlyph name="Gdotaccent" xMin="125" yMin="-20" xMax="1339" yMax="1847">
      <component glyphName="G" x="0" y="0" flags="0x204"/>
      <component glyphName="dotaccent" x="600" y="338" flags="0x4"/>
    </TTGlyph>
    <TTGlyph name="H" xMin="199" yMin="0" xMax="1317" yMax="1462">
      <contour>
        <pt x="1317" y="0" on="1"/>
        <pt x="1133" y="0" on="1"/>
        <pt x="1133" y="682" on="1"/>
        <pt x="383" y="682" on="1"/>
        <pt x="383" y="0" on="1"/>
        <pt x="199" y="0" on="1"/>
        <pt x="199" y="1462" on="1"/>
        <pt x="383" y="1462" on="1"/>
        <pt x="383" y="844" on="1"/>
        <pt x="1133" y="844" on="1"/>
        <pt x="1133" y="1462" on="1"/>
        <pt x="1317" y="1462" on="1"/>
      </contour>
    </TTGlyph>
    <TTGlyph name="H18533" xMin="178" yMin="137" xMax="1059" yMax="1018">
      <contour>
        <pt x="618" y="1018" on="1"/>
        <pt x="727" y="1018" on="0"/>
        <pt x="944" y="901" on="0"/>
        <pt x="1059" y="684" on="0"/>
        <pt x="1059" y="578" on="1"/>
        <pt x="1059" y="395" on="0"/>
        <pt x="801" y="137" on="0"/>
        <pt x="618" y="137" on="1"/>
        <pt x="436" y="137" on="0"/>
        <pt x="178" y="395" on="0"/>
        <pt x="178" y="578" on="1"/>
        <pt x="178" y="686" on="0"/>
        <pt x="289" y="899" on="0"/>
        <pt x="504" y="1018" on="0"/>
      </contour>
    </TTGlyph>
    <TTGlyph name="H18543" xMin="109" yMin="383" xMax="616" yMax="891">
      <contour>
        <pt x="616" y="383" on="1"/>
        <pt x="109" y="383" on="1"/>
        <pt x="109" y="891" on="1"/>
        <pt x="616" y="891" on="1"/>
      </contour>
    </TTGlyph>
    <TTGlyph name="H18551" xMin="109" yMin="383" xMax="616" yMax="891">
      <contour>
        <pt x="616" y="383" on="1"/>
        <pt x="109" y="383" on="1"/>
        <pt x="109" y="891" on="1"/>
        <pt x="616" y="891" on="1"/>
      </contour>
      <contour>
        <pt x="541" y="459" on="1"/>
        <pt x="541" y="813" on="1"/>
        <pt x="184" y="813" on="1"/>
        <pt x="184" y="459" on="1"/>
      </contour>
    </TTGlyph>
    <TTGlyph name="H22073" xMin="6" yMin="0" xMax="1231" yMax="1225">
      <contour>
        <pt x="6" y="1225" on="1"/>
        <pt x="1231" y="1225" on="1"/>
        <pt x="1231" y="0" on="1"/>
        <pt x="6" y="0" on="1"/>
      </contour>
      <contour>
        <pt x="82" y="1149" on="1"/>
        <pt x="82" y="76" on="1"/>
        <pt x="1155" y="76" on="1"/>
        <pt x="1155" y="1149" on="1"/>
      </contour>
    </TTGlyph>
    <TTGlyph name="Hbar" xMin="0" yMin="0" xMax="1516" yMax="1462">
      <contour>
        <pt x="199" y="1219" on="1"/>
        <pt x="199" y="1462" on="1"/>
        <pt x="383" y="1462" on="1"/>
        <pt x="383" y="1219" on="1"/>
        <pt x="1133" y="1219" on="1"/>
        <pt x="1133" y="1462" on="1"/>
        <pt x="1317" y="1462" on="1"/>
        <pt x="1317" y="1219" on="1"/>
        <pt x="1516" y="1219" on="1"/>
        <pt x="1516" y="1071" on="1"/>
        <pt x="1317" y="1071" on="1"/>
        <pt x="1317" y="0" on="1"/>
        <pt x="1133" y="0" on="1"/>
        <pt x="1133" y="682" on="1"/>
        <pt x="383" y="682" on="1"/>
        <pt x="383" y="0" on="1"/>
        <pt x="199" y="0" on="1"/>
        <pt x="199" y="1071" on="1"/>
        <pt x="0" y="1071" on="1"/>
        <pt x="0" y="1219" on="1"/>
      </contour>
      <contour>
        <pt x="1133" y="844" on="1"/>
        <pt x="1133" y="1071" on="1"/>
        <pt x="383" y="1071" on="1"/>
        <pt x="383" y="844" on="1"/>
      </contour>
    </TTGlyph>
    <TTGlyph name="Hcircumflex" xMin="199" yMin="0" xMax="1317" yMax="1907">
      <component glyphName="H" x="0" y="0" flags="0x204"/>
      <component glyphName="circumflex" x="150" y="338" flags="0x4"/>
    </TTGlyph>
    <TTGlyph name="I" xMin="82" yMin="0" xMax="610" yMax="1462">
      <contour>
        <pt x="610" y="0" on="1"/>
        <pt x="82" y="0" on="1"/>
        <pt x="82" y="106" on="1"/>
        <pt x="254" y="145" on="1"/>
        <pt x="254" y="1315" on="1"/>
        <pt x="82" y="1356" on="1"/>
        <pt x="82" y="1462" on="1"/>
        <pt x="610" y="1462" on="1"/>
        <pt x="610" y="1356" on="1"/>
        <pt x="438" y="1315" on="1"/>
        <pt x="438" y="145" on="1"/>
        <pt x="610" y="106" on="1"/>
      </contour>
    </TTGlyph>
    <TTGlyph name="IJ" xMin="82" yMin="-389" xMax="1067" yMax="1462">
      <component glyphName="I" x="0" y="0" flags="0x4"/>
      <component glyphName="J" x="694" y="0" flags="0x4"/>
    </TTGlyph>
    <TTGlyph name="Iacute" xMin="82" yMin="0" xMax="648" yMax="1907">
      <component glyphName="I" x="0" y="0" flags="0x204"/>
      <component glyphName="acute" x="-151" y="338" flags="0x4"/>
    </TTGlyph>
    <TTGlyph name="Ibreve" xMin="30" yMin="0" xMax="667" yMax="1854">
      <component glyphName="I" x="0" y="0" flags="0x204"/>
      <component glyphName="breve" x="-257" y="338" flags="0x4"/>
    </TTGlyph>
    <TTGlyph name="Icircumflex" xMin="-3" yMin="0" xMax="689" yMax="1907">
      <component glyphName="I" x="0" y="0" flags="0x204"/>
      <component glyphName="circumflex" x="-263" y="338" flags="0x4"/>
    </TTGlyph>
    <TTGlyph name="Idieresis" xMin="60" yMin="0" xMax="636" yMax="1833">
      <component glyphName="I" x="0" y="0" flags="0x204"/>
      <component glyphName="dieresis" x="-245" y="338" flags="0x4"/>
    </TTGlyph>
    <TTGlyph name="Idotaccent" xMin="82" yMin="0" xMax="610" yMax="1847">
      <component glyphName="I" x="0" y="0" flags="0x204"/>
      <component glyphName="dotaccent" x="80" y="338" flags="0x4"/>
    </TTGlyph>
    <TTGlyph name="Igrave" xMin="60" yMin="0" xMax="610" yMax="1907">
      <component glyphName="I" x="0" y="0" flags="0x204"/>
      <component glyphName="grave" x="-327" y="338" flags="0x4"/>
    </TTGlyph>
    <TTGlyph name="Imacron" xMin="44" yMin="0" xMax="652" yMax="1724">
      <component glyphName="I" x="0" y="0" flags="0x204"/>
      <component glyphName="uni02C9" x="-255" y="338" flags="0x4"/>
    </TTGlyph>
    <TTGlyph name="Iogonek" xMin="82" yMin="-451" xMax="610" yMax="1462">
      <component glyphName="I" x="0" y="0" flags="0x204"/>
      <component glyphName="ogonek" x="145" y="0" flags="0x4"/>
    </TTGlyph>
    <TTGlyph name="Iota" xMin="82" yMin="0" xMax="610" yMax="1462">
      <component glyphName="I" x="0" y="0" flags="0x204"/>
    </TTGlyph>
    <TTGlyph name="Iotadieresis" xMin="60" yMin="0" xMax="636" yMax="1833">
      <component glyphName="I" x="0" y="0" flags="0x204"/>
      <component glyphName="dieresis" x="-245" y="338" flags="0x4"/>
    </TTGlyph>
    <TTGlyph name="Iotatonos" xMin="-34" yMin="0" xMax="848" yMax="1544">
      <component glyphName="I" x="238" y="0" flags="0x4"/>
      <component glyphName="tonos" x="-538" y="-105" flags="0x4"/>
    </TTGlyph>
    <TTGlyph name="Itilde" xMin="-28" yMin="0" xMax="724" yMax="1843">
      <component glyphName="I" x="0" y="0" flags="0x204"/>
      <component glyphName="tilde" x="-286" y="338" flags="0x4"/>
    </TTGlyph>
    <TTGlyph name="J" xMin="-160" yMin="-389" xMax="373" yMax="1462">
      <contour>
        <pt x="-8" y="-389" on="1"/>
        <pt x="-102" y="-389" on="0"/>
        <pt x="-160" y="-362" on="1"/>
        <pt x="-160" y="-207" on="1"/>
        <pt x="-89" y="-227" on="0"/>
        <pt x="-12" y="-227" on="1"/>
        <pt x="88" y="-227" on="0"/>
        <pt x="188" y="-106" on="0"/>
        <pt x="188" y="8" on="1"/>
        <pt x="188" y="1462" on="1"/>
        <pt x="373" y="1462" on="1"/>
        <pt x="373" y="23" on="1"/>
        <pt x="373" y="-175" on="0"/>
        <pt x="176" y="-389" on="0"/>
      </contour>
    </TTGlyph>
    <TTGlyph name="Jcircumflex" xMin="-160" yMin="-389" xMax="629" yMax="1907">
      <component glyphName="J" x="0" y="0" flags="0x204"/>
      <component glyphName="circumflex" x="-323" y="338" flags="0x4"/>
    </TTGlyph>
    <TTGlyph name="K" xMin="199" yMin="0" xMax="1268" yMax="1462">
      <contour>
        <pt x="1268" y="0" on="1"/>
        <pt x="1051" y="0" on="1"/>
        <pt x="532" y="698" on="1"/>
        <pt x="383" y="567" on="1"/>
        <pt x="383" y="0" on="1"/>
        <pt x="199" y="0" on="1"/>
        <pt x="199" y="1462" on="1"/>
        <pt x="383" y="1462" on="1"/>
        <pt x="383" y="741" on="1"/>
        <pt x="509" y="880" on="1"/>
        <pt x="1030" y="1462" on="1"/>
        <pt x="1245" y="1462" on="1"/>
        <pt x="666" y="825" on="1"/>
      </contour>
    </TTGlyph>
    <TTGlyph name="Kappa" xMin="199" yMin="0" xMax="1268" yMax="1462">
      <component glyphName="K" x="0" y="0" flags="0x204"/>
    </TTGlyph>
    <TTGlyph name="Kcommaaccent" xMin="199" yMin="-453" xMax="1268" yMax="1462">
      <component glyphName="K" x="0" y="0" flags="0x204"/>
      <component glyphName="glyph00569" x="137" y="0" flags="0x4"/>
    </TTGlyph>
    <TTGlyph name="L" xMin="199" yMin="0" xMax="1022" yMax="1462">
      <contour>
        <pt x="199" y="0" on="1"/>
        <pt x="199" y="1462" on="1"/>
        <pt x="383" y="1462" on="1"/>
        <pt x="383" y="164" on="1"/>
        <pt x="1022" y="164" on="1"/>
        <pt x="1022" y="0" on="1"/>
      </contour>
    </TTGlyph>
    <TTGlyph name="Lacute" xMin="199" yMin="0" xMax="1022" yMax="1907">
      <component glyphName="L" x="0" y="0" flags="0x204"/>
      <component glyphName="acute" x="-146" y="338" flags="0x4"/>
    </TTGlyph>
    <TTGlyph name="Lambda" xMin="0" yMin="0" xMax="1243" yMax="1462">
      <contour>
        <pt x="717" y="1462" on="1"/>
        <pt x="1243" y="0" on="1"/>
        <pt x="1049" y="0" on="1"/>
        <pt x="725" y="922" on="1"/>
        <pt x="652" y="1129" on="0"/>
        <pt x="618" y="1262" on="1"/>
        <pt x="598" y="1163" on="0"/>
        <pt x="516" y="924" on="1"/>
        <pt x="195" y="0" on="1"/>
        <pt x="0" y="0" on="1"/>
        <pt x="524" y="1462" on="1"/>
      </contour>
    </TTGlyph>
    <TTGlyph name="Lcaron" xMin="199" yMin="0" xMax="1022" yMax="1463">
      <component glyphName="L" x="0" y="0" flags="0x204"/>
      <component glyphName="glyph00568" x="293" y="-93" flags="0x4"/>
    </TTGlyph>
    <TTGlyph name="Lcommaaccent" xMin="199" yMin="-453" xMax="1022" yMax="1462">
      <component glyphName="L" x="0" y="0" flags="0x204"/>
      <component glyphName="glyph00569" x="51" y="0" flags="0x4"/>
    </TTGlyph>
    <TTGlyph name="Ldot" xMin="199" yMin="0" xMax="1022" yMax="1462">
      <component glyphName="L" x="0" y="0" flags="0x204"/>
      <component glyphName="dotaccent" x="520" y="-663" flags="0x4"/>
    </TTGlyph>
    <TTGlyph name="Lslash" xMin="27" yMin="0" xMax="1022" yMax="1462">
      <contour>
        <pt x="199" y="0" on="1"/>
        <pt x="199" y="506" on="1"/>
        <pt x="98" y="449" on="1"/>
        <pt x="27" y="571" on="1"/>
        <pt x="199" y="674" on="1"/>
        <pt x="199" y="1462" on="1"/>
        <pt x="383" y="1462" on="1"/>
        <pt x="383" y="782" on="1"/>
        <pt x="664" y="948" on="1"/>
        <pt x="737" y="819" on="1"/>
        <pt x="383" y="614" on="1"/>
        <pt x="383" y="164" on="1"/>
        <pt x="1022" y="164" on="1"/>
        <pt x="1022" y="0" on="1"/>
      </contour>
    </TTGlyph>
    <TTGlyph name="M" xMin="199" yMin="0" xMax="1659" yMax="1462">
      <contour>
        <pt x="844" y="0" on="1"/>
        <pt x="362" y="1282" on="1"/>
        <pt x="354" y="1282" on="1"/>
        <pt x="369" y="1122" on="0"/>
        <pt x="369" y="887" on="1"/>
        <pt x="369" y="0" on="1"/>
        <pt x="199" y="0" on="1"/>
        <pt x="199" y="1462" on="1"/>
        <pt x="471" y="1462" on="1"/>
        <pt x="922" y="264" on="1"/>
        <pt x="930" y="264" on="1"/>
        <pt x="1389" y="1462" on="1"/>
        <pt x="1659" y="1462" on="1"/>
        <pt x="1659" y="0" on="1"/>
        <pt x="1477" y="0" on="1"/>
        <pt x="1477" y="899" on="1"/>
        <pt x="1477" y="1049" on="0"/>
        <pt x="1491" y="1280" on="1"/>
        <pt x="1483" y="1280" on="1"/>
        <pt x="995" y="0" on="1"/>
      </contour>
    </TTGlyph>
    <TTGlyph name="Mu" xMin="199" yMin="0" xMax="1659" yMax="1462">
      <component glyphName="M" x="0" y="0" flags="0x204"/>
    </TTGlyph>
    <TTGlyph name="N" xMin="199" yMin="0" xMax="1358" yMax="1462">
      <contour>
        <pt x="1358" y="0" on="1"/>
        <pt x="1143" y="0" on="1"/>
        <pt x="360" y="1214" on="1"/>
        <pt x="352" y="1214" on="1"/>
        <pt x="357" y="1133" on="1"/>
        <pt x="369" y="951" on="0"/>
        <pt x="369" y="817" on="1"/>
        <pt x="369" y="0" on="1"/>
        <pt x="199" y="0" on="1"/>
        <pt x="199" y="1462" on="1"/>
        <pt x="412" y="1462" on="1"/>
        <pt x="457" y="1391" on="1"/>
        <pt x="937" y="649" on="1"/>
        <pt x="1192" y="252" on="1"/>
        <pt x="1200" y="252" on="1"/>
        <pt x="1198" y="276" on="0"/>
        <pt x="1186" y="571" on="0"/>
        <pt x="1186" y="637" on="1"/>
        <pt x="1186" y="1462" on="1"/>
        <pt x="1358" y="1462" on="1"/>
      </contour>
    </TTGlyph>
    <TTGlyph name="Nacute" xMin="199" yMin="0" xMax="1358" yMax="1907">
      <component glyphName="N" x="0" y="0" flags="0x204"/>
      <component glyphName="acute" x="264" y="338" flags="0x4"/>
    </TTGlyph>
    <TTGlyph name="Ncaron" xMin="199" yMin="0" xMax="1358" yMax="1907">
      <component glyphName="N" x="0" y="0" flags="0x204"/>
      <component glyphName="caron" x="172" y="338" flags="0x4"/>
    </TTGlyph>
    <TTGlyph name="Ncommaaccent" xMin="199" yMin="-453" xMax="1358" yMax="1462">
      <component glyphName="N" x="0" y="0" flags="0x204"/>
      <component glyphName="glyph00569" x="209" y="0" flags="0x4"/>
    </TTGlyph>
    <TTGlyph name="Ntilde" xMin="199" yMin="0" xMax="1358" yMax="1843">
      <component glyphName="N" x="0" y="0" flags="0x204"/>
      <component glyphName="tilde" x="154" y="338" flags="0x4"/>
    </TTGlyph>
    <TTGlyph name="Nu" xMin="199" yMin="0" xMax="1358" yMax="1462">
      <component glyphName="N" x="0" y="0" flags="0x204"/>
    </TTGlyph>
    <TTGlyph name="O" xMin="125" yMin="-20" xMax="1475" yMax="1485">
      <contour>
        <pt x="1475" y="733" on="1"/>
        <pt x="1475" y="382" on="0"/>
        <pt x="1120" y="-20" on="0"/>
        <pt x="801" y="-20" on="1"/>
        <pt x="478" y="-20" on="0"/>
        <pt x="125" y="375" on="0"/>
        <pt x="125" y="735" on="1"/>
        <pt x="125" y="1092" on="0"/>
        <pt x="476" y="1485" on="0"/>
        <pt x="803" y="1485" on="1"/>
        <pt x="1121" y="1485" on="0"/>
        <pt x="1475" y="1086" on="0"/>
      </contour>
      <contour>
        <pt x="319" y="733" on="1"/>
        <pt x="319" y="443" on="0"/>
        <pt x="565" y="139" on="0"/>
        <pt x="801" y="139" on="1"/>
        <pt x="1036" y="139" on="0"/>
        <pt x="1280" y="439" on="0"/>
        <pt x="1280" y="733" on="1"/>
        <pt x="1280" y="1026" on="0"/>
        <pt x="1038" y="1323" on="0"/>
        <pt x="803" y="1323" on="1"/>
        <pt x="565" y="1323" on="0"/>
        <pt x="319" y="1022" on="0"/>
      </contour>
    </TTGlyph>
    <TTGlyph name="OE" xMin="125" yMin="-20" xMax="1778" yMax="1485">
      <contour>
        <pt x="1778" y="0" on="1"/>
        <pt x="999" y="0" on="1"/>
        <pt x="897" y="-20" on="0"/>
        <pt x="801" y="-20" on="1"/>
        <pt x="476" y="-20" on="0"/>
        <pt x="125" y="374" on="0"/>
        <pt x="125" y="735" on="1"/>
        <pt x="125" y="1094" on="0"/>
        <pt x="470" y="1485" on="0"/>
        <pt x="791" y="1485" on="1"/>
        <pt x="897" y="1485" on="0"/>
        <pt x="987" y="1462" on="1"/>
        <pt x="1778" y="1462" on="1"/>
        <pt x="1778" y="1300" on="1"/>
        <pt x="1190" y="1300" on="1"/>
        <pt x="1190" y="844" on="1"/>
        <pt x="1739" y="844" on="1"/>
        <pt x="1739" y="684" on="1"/>
        <pt x="1190" y="684" on="1"/>
        <pt x="1190" y="162" on="1"/>
        <pt x="1778" y="162" on="1"/>
      </contour>
      <contour>
        <pt x="807" y="1323" on="1"/>
        <pt x="565" y="1323" on="0"/>
        <pt x="317" y="1021" on="0"/>
        <pt x="317" y="733" on="1"/>
        <pt x="317" y="444" on="0"/>
        <pt x="565" y="139" on="0"/>
        <pt x="805" y="139" on="1"/>
        <pt x="922" y="139" on="0"/>
        <pt x="1008" y="174" on="1"/>
        <pt x="1008" y="1290" on="1"/>
        <pt x="923" y="1323" on="0"/>
      </contour>
    </TTGlyph>
    <TTGlyph name="Oacute" xMin="125" yMin="-20" xMax="1475" yMax="1907">
      <component glyphName="O" x="0" y="0" flags="0x204"/>
      <component glyphName="acute" x="270" y="338" flags="0x4"/>
    </TTGlyph>
    <TTGlyph name="Obreve" xMin="125" yMin="-20" xMax="1475" yMax="1854">
      <component glyphName="O" x="0" y="0" flags="0x204"/>
      <component glyphName="breve" x="193" y="338" flags="0x4"/>
    </TTGlyph>
    <TTGlyph name="Ocircumflex" xMin="125" yMin="-20" xMax="1475" yMax="1907">
      <component glyphName="O" x="0" y="0" flags="0x204"/>
      <component glyphName="circumflex" x="180" y="338" flags="0x4"/>
    </TTGlyph>
    <TTGlyph name="Odieresis" xMin="125" yMin="-20" xMax="1475" yMax="1833">
      <component glyphName="O" x="0" y="0" flags="0x204"/>
      <component glyphName="dieresis" x="211" y="338" flags="0x4"/>
    </TTGlyph>
    <TTGlyph name="Ograve" xMin="125" yMin="-20" xMax="1475" yMax="1907">
      <component glyphName="O" x="0" y="0" flags="0x204"/>
      <component glyphName="grave" x="119" y="338" flags="0x4"/>
    </TTGlyph>
    <TTGlyph name="Ohorn" xMin="125" yMin="-20" xMax="1649" yMax="1556">
      <contour>
        <pt x="1473" y="733" on="1"/>
        <pt x="1473" y="379" on="0"/>
        <pt x="1118" y="-20" on="0"/>
        <pt x="801" y="-20" on="1"/>
        <pt x="478" y="-20" on="0"/>
        <pt x="125" y="373" on="0"/>
        <pt x="125" y="735" on="1"/>
        <pt x="125" y="1095" on="0"/>
        <pt x="478" y="1485" on="0"/>
        <pt x="803" y="1485" on="1"/>
        <pt x="1128" y="1485" on="0"/>
        <pt x="1309" y="1272" on="1"/>
        <pt x="1377" y="1291" on="0"/>
        <pt x="1440" y="1415" on="0"/>
        <pt x="1440" y="1556" on="1"/>
        <pt x="1634" y="1556" on="1"/>
        <pt x="1649" y="1534" on="1"/>
        <pt x="1618" y="1374" on="0"/>
        <pt x="1484" y="1200" on="0"/>
        <pt x="1380" y="1161" on="1"/>
        <pt x="1473" y="987" on="0"/>
      </contour>
      <contour>
        <pt x="319" y="733" on="1"/>
        <pt x="319" y="442" on="0"/>
        <pt x="563" y="139" on="0"/>
        <pt x="801" y="139" on="1"/>
        <pt x="1038" y="139" on="0"/>
        <pt x="1278" y="438" on="0"/>
        <pt x="1278" y="733" on="1"/>
        <pt x="1278" y="1025" on="0"/>
        <pt x="1039" y="1323" on="0"/>
        <pt x="803" y="1323" on="1"/>
        <pt x="562" y="1323" on="0"/>
        <pt x="319" y="1021" on="0"/>
      </contour>
    </TTGlyph>
    <TTGlyph name="Ohungarumlaut" xMin="125" yMin="-20" xMax="1475" yMax="1907">
      <component glyphName="O" x="0" y="0" flags="0x204"/>
      <component glyphName="hungarumlaut" x="281" y="338" flags="0x4"/>
    </TTGlyph>
    <TTGlyph name="Omacron" xMin="125" yMin="-20" xMax="1475" yMax="1724">
      <component glyphName="O" x="0" y="0" flags="0x204"/>
      <component glyphName="uni02C9" x="197" y="338" flags="0x4"/>
    </TTGlyph>
    <TTGlyph name="Omega" xMin="78" yMin="0" xMax="1526" yMax="1485">
      <contour>
        <pt x="801" y="1323" on="1"/>
        <pt x="567" y="1323" on="0"/>
        <pt x="326" y="1068" on="0"/>
        <pt x="326" y="821" on="1"/>
        <pt x="326" y="597" on="0"/>
        <pt x="491" y="275" on="0"/>
        <pt x="668" y="147" on="1"/>
        <pt x="668" y="0" on="1"/>
        <pt x="78" y="0" on="1"/>
        <pt x="78" y="162" on="1"/>
        <pt x="442" y="162" on="1"/>
        <pt x="291" y="278" on="0"/>
        <pt x="131" y="622" on="0"/>
        <pt x="131" y="827" on="1"/>
        <pt x="131" y="1135" on="0"/>
        <pt x="487" y="1485" on="0"/>
        <pt x="801" y="1485" on="1"/>
        <pt x="1119" y="1485" on="0"/>
        <pt x="1473" y="1137" on="0"/>
        <pt x="1473" y="829" on="1"/>
        <pt x="1473" y="623" on="0"/>
        <pt x="1312" y="277" on="0"/>
        <pt x="1163" y="162" on="1"/>
        <pt x="1526" y="162" on="1"/>
        <pt x="1526" y="0" on="1"/>
        <pt x="936" y="0" on="1"/>
        <pt x="936" y="147" on="1"/>
        <pt x="1113" y="274" on="0"/>
        <pt x="1280" y="601" on="0"/>
        <pt x="1280" y="821" on="1"/>
        <pt x="1280" y="1067" on="0"/>
        <pt x="1037" y="1323" on="0"/>
      </contour>
    </TTGlyph>
    <TTGlyph name="Omegatonos" xMin="-30" yMin="0" xMax="1592" yMax="1544">
      <component glyphName="Omega" x="66" y="0" flags="0x4"/>
      <component glyphName="tonos" x="-534" y="-105" flags="0x4"/>
    </TTGlyph>
    <TTGlyph name="Omicron" xMin="125" yMin="-20" xMax="1475" yMax="1485">
      <component glyphName="O" x="0" y="0" flags="0x204"/>
    </TTGlyph>
    <TTGlyph name="Omicrontonos" xMin="-30" yMin="-20" xMax="1543" yMax="1544">
      <component glyphName="O" x="68" y="0" flags="0x4"/>
      <component glyphName="tonos" x="-534" y="-105" flags="0x4"/>
    </TTGlyph>
    <TTGlyph name="Oslash" xMin="125" yMin="-63" xMax="1475" yMax="1528">
      <contour>
        <pt x="1475" y="733" on="1"/>
        <pt x="1475" y="382" on="0"/>
        <pt x="1120" y="-20" on="0"/>
        <pt x="801" y="-20" on="1"/>
        <pt x="569" y="-20" on="0"/>
        <pt x="422" y="76" on="1"/>
        <pt x="324" y="-63" on="1"/>
        <pt x="199" y="18" on="1"/>
        <pt x="305" y="170" on="1"/>
        <pt x="125" y="368" on="0"/>
        <pt x="125" y="735" on="1"/>
        <pt x="125" y="1092" on="0"/>
        <pt x="476" y="1485" on="0"/>
        <pt x="803" y="1485" on="1"/>
        <pt x="1007" y="1485" on="0"/>
        <pt x="1167" y="1393" on="1"/>
        <pt x="1262" y="1528" on="1"/>
        <pt x="1386" y="1444" on="1"/>
        <pt x="1282" y="1298" on="1"/>
        <pt x="1475" y="1095" on="0"/>
      </contour>
      <contour>
        <pt x="1280" y="733" on="1"/>
        <pt x="1280" y="997" on="0"/>
        <pt x="1176" y="1147" on="1"/>
        <pt x="520" y="217" on="1"/>
        <pt x="634" y="139" on="0"/>
        <pt x="801" y="139" on="1"/>
        <pt x="1036" y="139" on="0"/>
        <pt x="1280" y="439" on="0"/>
      </contour>
      <contour>
        <pt x="319" y="733" on="1"/>
        <pt x="319" y="474" on="0"/>
        <pt x="416" y="328" on="1"/>
        <pt x="1069" y="1251" on="1"/>
        <pt x="960" y="1323" on="0"/>
        <pt x="803" y="1323" on="1"/>
        <pt x="565" y="1323" on="0"/>
        <pt x="319" y="1022" on="0"/>
      </contour>
    </TTGlyph>
    <TTGlyph name="Oslashacute" xMin="125" yMin="-63" xMax="1475" yMax="1907">
      <component glyphName="Oslash" x="0" y="0" flags="0x204"/>
      <component glyphName="acute" x="283" y="338" flags="0x4"/>
    </TTGlyph>
    <TTGlyph name="Otilde" xMin="125" yMin="-20" xMax="1475" yMax="1843">
      <component glyphName="O" x="0" y="0" flags="0x204"/>
      <component glyphName="tilde" x="158" y="338" flags="0x4"/>
    </TTGlyph>
    <TTGlyph name="P" xMin="199" yMin="0" xMax="1135" yMax="1462">
      <contour>
        <pt x="1135" y="1032" on="1"/>
        <pt x="1135" y="808" on="0"/>
        <pt x="829" y="569" on="0"/>
        <pt x="551" y="569" on="1"/>
        <pt x="383" y="569" on="1"/>
        <pt x="383" y="0" on="1"/>
        <pt x="199" y="0" on="1"/>
        <pt x="199" y="1462" on="1"/>
        <pt x="586" y="1462" on="1"/>
        <pt x="1135" y="1462" on="0"/>
      </contour>
      <contour>
        <pt x="383" y="727" on="1"/>
        <pt x="530" y="727" on="1"/>
        <pt x="748" y="727" on="0"/>
        <pt x="944" y="868" on="0"/>
        <pt x="944" y="1024" on="1"/>
        <pt x="944" y="1165" on="0"/>
        <pt x="762" y="1305" on="0"/>
        <pt x="569" y="1305" on="1"/>
        <pt x="383" y="1305" on="1"/>
      </contour>
    </TTGlyph>
    <TTGlyph name="Phi" xMin="104" yMin="-20" xMax="1540" yMax="1483">
      <contour>
        <pt x="731" y="1483" on="1"/>
        <pt x="913" y="1483" on="1"/>
        <pt x="913" y="1303" on="1"/>
        <pt x="981" y="1303" on="1"/>
        <pt x="1155" y="1303" on="0"/>
        <pt x="1408" y="1164" on="0"/>
        <pt x="1540" y="916" on="0"/>
        <pt x="1540" y="758" on="1"/>
        <pt x="1540" y="593" on="0"/>
        <pt x="1392" y="335" on="0"/>
        <pt x="1130" y="205" on="0"/>
        <pt x="952" y="205" on="1"/>
        <pt x="913" y="205" on="1"/>
        <pt x="913" y="-20" on="1"/>
        <pt x="731" y="-20" on="1"/>
        <pt x="731" y="205" on="1"/>
        <pt x="688" y="205" on="1"/>
        <pt x="510" y="205" on="0"/>
        <pt x="250" y="338" on="0"/>
        <pt x="104" y="596" on="0"/>
        <pt x="104" y="758" on="1"/>
        <pt x="104" y="913" on="0"/>
        <pt x="240" y="1162" on="0"/>
        <pt x="494" y="1303" on="0"/>
        <pt x="666" y="1303" on="1"/>
        <pt x="731" y="1303" on="1"/>
      </contour>
      <contour>
        <pt x="913" y="356" on="1"/>
        <pt x="938" y="356" on="1"/>
        <pt x="1135" y="356" on="0"/>
        <pt x="1354" y="571" on="0"/>
        <pt x="1354" y="760" on="1"/>
        <pt x="1354" y="940" on="0"/>
        <pt x="1151" y="1147" on="0"/>
        <pt x="969" y="1147" on="1"/>
        <pt x="913" y="1147" on="1"/>
      </contour>
      <contour>
        <pt x="731" y="1147" on="1"/>
        <pt x="676" y="1147" on="1"/>
        <pt x="495" y="1147" on="0"/>
        <pt x="291" y="938" on="0"/>
        <pt x="291" y="760" on="1"/>
        <pt x="291" y="571" on="0"/>
        <pt x="509" y="356" on="0"/>
        <pt x="709" y="356" on="1"/>
        <pt x="731" y="356" on="1"/>
      </contour>
    </TTGlyph>
    <TTGlyph name="Pi" xMin="199" yMin="0" xMax="1296" yMax="1462">
      <contour>
        <pt x="1296" y="0" on="1"/>
        <pt x="1114" y="0" on="1"/>
        <pt x="1114" y="1300" on="1"/>
        <pt x="383" y="1300" on="1"/>
        <pt x="383" y="0" on="1"/>
        <pt x="199" y="0" on="1"/>
        <pt x="199" y="1462" on="1"/>
        <pt x="1296" y="1462" on="1"/>
      </contour>
    </TTGlyph>
    <TTGlyph name="Psi" xMin="109" yMin="0" xMax="1538" yMax="1462">
      <contour>
        <pt x="911" y="0" on="1"/>
        <pt x="731" y="0" on="1"/>
        <pt x="731" y="444" on="1"/>
        <pt x="686" y="444" on="1"/>
        <pt x="500" y="444" on="0"/>
        <pt x="243" y="575" on="0"/>
        <pt x="109" y="815" on="0"/>
        <pt x="109" y="979" on="1"/>
        <pt x="109" y="1462" on="1"/>
        <pt x="293" y="1462" on="1"/>
        <pt x="293" y="983" on="1"/>
        <pt x="293" y="602" on="0"/>
        <pt x="705" y="602" on="1"/>
        <pt x="731" y="602" on="1"/>
        <pt x="731" y="1462" on="1"/>
        <pt x="911" y="1462" on="1"/>
        <pt x="911" y="602" on="1"/>
        <pt x="940" y="602" on="1"/>
        <pt x="1350" y="602" on="0"/>
        <pt x="1350" y="979" on="1"/>
        <pt x="1350" y="1462" on="1"/>
        <pt x="1538" y="1462" on="1"/>
        <pt x="1538" y="981" on="1"/>
        <pt x="1538" y="815" on="0"/>
        <pt x="1396" y="568" on="0"/>
        <pt x="1137" y="444" on="0"/>
        <pt x="958" y="444" on="1"/>
        <pt x="911" y="444" on="1"/>
      </contour>
    </TTGlyph>
    <TTGlyph name="Q" xMin="125" yMin="-348" xMax="1475" yMax="1485">
      <contour>
        <pt x="1475" y="733" on="1"/>
        <pt x="1475" y="456" on="0"/>
        <pt x="1253" y="86" on="0"/>
        <pt x="1049" y="16" on="1"/>
        <pt x="1399" y="-348" on="1"/>
        <pt x="1135" y="-348" on="1"/>
        <pt x="852" y="-18" on="1"/>
        <pt x="801" y="-20" on="1"/>
        <pt x="478" y="-20" on="0"/>
        <pt x="125" y="375" on="0"/>
        <pt x="125" y="735" on="1"/>
        <pt x="125" y="1092" on="0"/>
        <pt x="476" y="1485" on="0"/>
        <pt x="803" y="1485" on="1"/>
        <pt x="1121" y="1485" on="0"/>
        <pt x="1475" y="1086" on="0"/>
      </contour>
      <contour>
        <pt x="319" y="733" on="1"/>
        <pt x="319" y="443" on="0"/>
        <pt x="565" y="139" on="0"/>
        <pt x="801" y="139" on="1"/>
        <pt x="1036" y="139" on="0"/>
        <pt x="1280" y="439" on="0"/>
        <pt x="1280" y="733" on="1"/>
        <pt x="1280" y="1026" on="0"/>
        <pt x="1038" y="1323" on="0"/>
        <pt x="803" y="1323" on="1"/>
        <pt x="565" y="1323" on="0"/>
        <pt x="319" y="1022" on="0"/>
      </contour>
    </TTGlyph>
    <TTGlyph name="R" xMin="199" yMin="0" xMax="1243" yMax="1462">
      <contour>
        <pt x="383" y="760" on="1"/>
        <pt x="602" y="760" on="1"/>
        <pt x="780" y="760" on="0"/>
        <pt x="944" y="900" on="0"/>
        <pt x="944" y="1038" on="1"/>
        <pt x="944" y="1176" on="0"/>
        <pt x="778" y="1303" on="0"/>
        <pt x="592" y="1303" on="1"/>
        <pt x="383" y="1303" on="1"/>
      </contour>
      <contour>
        <pt x="383" y="604" on="1"/>
        <pt x="383" y="0" on="1"/>
        <pt x="199" y="0" on="1"/>
        <pt x="199" y="1462" on="1"/>
        <pt x="602" y="1462" on="1"/>
        <pt x="874" y="1462" on="0"/>
        <pt x="1135" y="1255" on="0"/>
        <pt x="1135" y="1047" on="1"/>
        <pt x="1135" y="756" on="0"/>
        <pt x="842" y="655" on="1"/>
        <pt x="1243" y="0" on="1"/>
        <pt x="1028" y="0" on="1"/>
        <pt x="674" y="604" on="1"/>
      </contour>
    </TTGlyph>
    <TTGlyph name="Racute" xMin="199" yMin="0" xMax="1243" yMax="1907">
      <component glyphName="R" x="0" y="0" flags="0x204"/>
      <component glyphName="acute" x="123" y="338" flags="0x4"/>
    </TTGlyph>
    <TTGlyph name="Rcaron" xMin="199" yMin="0" xMax="1243" yMax="1907">
      <component glyphName="R" x="0" y="0" flags="0x204"/>
      <component glyphName="caron" x="29" y="338" flags="0x4"/>
    </TTGlyph>
    <TTGlyph name="Rcommaaccent" xMin="199" yMin="-453" xMax="1243" yMax="1462">
      <component glyphName="R" x="0" y="0" flags="0x204"/>
      <component glyphName="glyph00569" x="129" y="0" flags="0x4"/>
    </TTGlyph>
    <TTGlyph name="Rho" xMin="199" yMin="0" xMax="1135" yMax="1462">
      <component glyphName="P" x="0" y="0" flags="0x204"/>
    </TTGlyph>
    <TTGlyph name="S" xMin="104" yMin="-20" xMax="1028" yMax="1483">
      <contour>
        <pt x="1028" y="391" on="1"/>
        <pt x="1028" y="200" on="0"/>
        <pt x="752" y="-20" on="0"/>
        <pt x="506" y="-20" on="1"/>
        <pt x="246" y="-20" on="0"/>
        <pt x="104" y="49" on="1"/>
        <pt x="104" y="225" on="1"/>
        <pt x="197" y="185" on="0"/>
        <pt x="418" y="139" on="0"/>
        <pt x="514" y="139" on="1"/>
        <pt x="678" y="139" on="0"/>
        <pt x="844" y="265" on="0"/>
        <pt x="844" y="375" on="1"/>
        <pt x="844" y="448" on="0"/>
        <pt x="784" y="542" on="0"/>
        <pt x="643" y="624" on="0"/>
        <pt x="500" y="676" on="1"/>
        <pt x="297" y="750" on="0"/>
        <pt x="123" y="951" on="0"/>
        <pt x="123" y="1110" on="1"/>
        <pt x="123" y="1281" on="0"/>
        <pt x="380" y="1483" on="0"/>
        <pt x="590" y="1483" on="1"/>
        <pt x="809" y="1483" on="0"/>
        <pt x="993" y="1401" on="1"/>
        <pt x="936" y="1243" on="1"/>
        <pt x="748" y="1321" on="0"/>
        <pt x="586" y="1321" on="1"/>
        <pt x="456" y="1321" on="0"/>
        <pt x="309" y="1209" on="0"/>
        <pt x="309" y="1108" on="1"/>
        <pt x="309" y="1036" on="0"/>
        <pt x="366" y="941" on="0"/>
        <pt x="493" y="863" on="0"/>
        <pt x="629" y="813" on="1"/>
        <pt x="792" y="753" on="0"/>
        <pt x="952" y="640" on="0"/>
        <pt x="1028" y="493" on="0"/>
      </contour>
    </TTGlyph>
    <TTGlyph name="SF010000" xMin="653" yMin="-492" xMax="1460" yMax="823">
      <contour>
        <pt x="653" y="823" on="1"/>
        <pt x="1460" y="823" on="1"/>
        <pt x="1460" y="678" on="1"/>
        <pt x="799" y="678" on="1"/>
        <pt x="799" y="-492" on="1"/>
        <pt x="653" y="-492" on="1"/>
      </contour>
    </TTGlyph>
    <TTGlyph name="SF020000" xMin="653" yMin="678" xMax="1460" yMax="1993">
      <contour>
        <pt x="653" y="1993" on="1"/>
        <pt x="799" y="1993" on="1"/>
        <pt x="799" y="823" on="1"/>
        <pt x="1460" y="823" on="1"/>
        <pt x="1460" y="678" on="1"/>
        <pt x="653" y="678" on="1"/>
      </contour>
    </TTGlyph>
    <TTGlyph name="SF030000" xMin="-10" yMin="-492" xMax="799" yMax="823">
      <contour>
        <pt x="-10" y="678" on="1"/>
        <pt x="-10" y="823" on="1"/>
        <pt x="799" y="823" on="1"/>
        <pt x="799" y="-492" on="1"/>
        <pt x="653" y="-492" on="1"/>
        <pt x="653" y="678" on="1"/>
      </contour>
    </TTGlyph>
    <TTGlyph name="SF040000" xMin="-10" yMin="678" xMax="799" yMax="1993">
      <contour>
        <pt x="-10" y="678" on="1"/>
        <pt x="-10" y="823" on="1"/>
        <pt x="653" y="823" on="1"/>
        <pt x="653" y="1993" on="1"/>
        <pt x="799" y="1993" on="1"/>
        <pt x="799" y="678" on="1"/>
      </contour>
    </TTGlyph>
    <TTGlyph name="SF050000" xMin="-10" yMin="-492" xMax="1460" yMax="1993">
      <contour>
        <pt x="-10" y="678" on="1"/>
        <pt x="-10" y="823" on="1"/>
        <pt x="653" y="823" on="1"/>
        <pt x="653" y="1993" on="1"/>
        <pt x="799" y="1993" on="1"/>
        <pt x="799" y="823" on="1"/>
        <pt x="1460" y="823" on="1"/>
        <pt x="1460" y="678" on="1"/>
        <pt x="799" y="678" on="1"/>
        <pt x="799" y="-492" on="1"/>
        <pt x="653" y="-492" on="1"/>
        <pt x="653" y="678" on="1"/>
      </contour>
    </TTGlyph>
    <TTGlyph name="SF060000" xMin="-10" yMin="-492" xMax="1460" yMax="823">
      <contour>
        <pt x="-10" y="678" on="1"/>
        <pt x="-10" y="823" on="1"/>
        <pt x="1460" y="823" on="1"/>
        <pt x="1460" y="678" on="1"/>
        <pt x="799" y="678" on="1"/>
        <pt x="799" y="-492" on="1"/>
        <pt x="653" y="-492" on="1"/>
        <pt x="653" y="678" on="1"/>
      </contour>
    </TTGlyph>
    <TTGlyph name="SF070000" xMin="-10" yMin="678" xMax="1460" yMax="1993">
      <contour>
        <pt x="-10" y="678" on="1"/>
        <pt x="-10" y="823" on="1"/>
        <pt x="653" y="823" on="1"/>
        <pt x="653" y="1993" on="1"/>
        <pt x="799" y="1993" on="1"/>
        <pt x="799" y="823" on="1"/>
        <pt x="1460" y="823" on="1"/>
        <pt x="1460" y="678" on="1"/>
      </contour>
    </TTGlyph>
    <TTGlyph name="SF080000" xMin="653" yMin="-492" xMax="1460" yMax="1993">
      <contour>
        <pt x="653" y="1993" on="1"/>
        <pt x="799" y="1993" on="1"/>
        <pt x="799" y="823" on="1"/>
        <pt x="1460" y="823" on="1"/>
        <pt x="1460" y="678" on="1"/>
        <pt x="799" y="678" on="1"/>
        <pt x="799" y="-492" on="1"/>
        <pt x="653" y="-492" on="1"/>
      </contour>
    </TTGlyph>
    <TTGlyph name="SF090000" xMin="-10" yMin="-492" xMax="799" yMax="1993">
      <contour>
        <pt x="-10" y="678" on="1"/>
        <pt x="-10" y="823" on="1"/>
        <pt x="653" y="823" on="1"/>
        <pt x="653" y="1993" on="1"/>
        <pt x="799" y="1993" on="1"/>
        <pt x="799" y="-492" on="1"/>
        <pt x="653" y="-492" on="1"/>
        <pt x="653" y="678" on="1"/>
      </contour>
    </TTGlyph>
    <TTGlyph name="SF100000" xMin="-10" yMin="678" xMax="1460" yMax="823">
      <contour>
        <pt x="-10" y="678" on="1"/>
        <pt x="-10" y="823" on="1"/>
        <pt x="1460" y="823" on="1"/>
        <pt x="1460" y="678" on="1"/>
      </contour>
    </TTGlyph>
    <TTGlyph name="SF110000" xMin="471" yMin="-492" xMax="616" yMax="1993">
      <contour>
        <pt x="471" y="1993" on="1"/>
        <pt x="616" y="1993" on="1"/>
        <pt x="616" y="-492" on="1"/>
        <pt x="471" y="-492" on="1"/>
      </contour>
    </TTGlyph>
    <TTGlyph name="SF190000" xMin="-10" yMin="-492" xMax="799" yMax="1993">
      <contour>
        <pt x="-10" y="498" on="1"/>
        <pt x="-10" y="643" on="1"/>
        <pt x="653" y="643" on="1"/>
        <pt x="653" y="858" on="1"/>
        <pt x="-10" y="858" on="1"/>
        <pt x="-10" y="1004" on="1"/>
        <pt x="653" y="1004" on="1"/>
        <pt x="653" y="1993" on="1"/>
        <pt x="799" y="1993" on="1"/>
        <pt x="799" y="-492" on="1"/>
        <pt x="653" y="-492" on="1"/>
        <pt x="653" y="498" on="1"/>
      </contour>
    </TTGlyph>
    <TTGlyph name="SF200000" xMin="-10" yMin="-492" xMax="979" yMax="1993">
      <contour>
        <pt x="-10" y="678" on="1"/>
        <pt x="-10" y="823" on="1"/>
        <pt x="473" y="823" on="1"/>
        <pt x="473" y="1993" on="1"/>
        <pt x="618" y="1993" on="1"/>
        <pt x="618" y="-492" on="1"/>
        <pt x="473" y="-492" on="1"/>
        <pt x="473" y="678" on="1"/>
      </contour>
      <contour>
        <pt x="834" y="1993" on="1"/>
        <pt x="979" y="1993" on="1"/>
        <pt x="979" y="-492" on="1"/>
        <pt x="834" y="-492" on="1"/>
      </contour>
    </TTGlyph>
    <TTGlyph name="SF210000" xMin="-10" yMin="-492" xMax="979" yMax="823">
      <contour>
        <pt x="-10" y="678" on="1"/>
        <pt x="-10" y="823" on="1"/>
        <pt x="979" y="823" on="1"/>
        <pt x="979" y="-492" on="1"/>
        <pt x="834" y="-492" on="1"/>
        <pt x="834" y="678" on="1"/>
        <pt x="618" y="678" on="1"/>
        <pt x="618" y="-492" on="1"/>
        <pt x="473" y="-492" on="1"/>
        <pt x="473" y="678" on="1"/>
      </contour>
    </TTGlyph>
    <TTGlyph name="SF220000" xMin="-10" yMin="-492" xMax="799" yMax="1004">
      <contour>
        <pt x="-10" y="498" on="1"/>
        <pt x="-10" y="643" on="1"/>
        <pt x="653" y="643" on="1"/>
        <pt x="653" y="858" on="1"/>
        <pt x="-10" y="858" on="1"/>
        <pt x="-10" y="1004" on="1"/>
        <pt x="799" y="1004" on="1"/>
        <pt x="799" y="-492" on="1"/>
        <pt x="653" y="-492" on="1"/>
        <pt x="653" y="498" on="1"/>
      </contour>
    </TTGlyph>
    <TTGlyph name="SF230000" xMin="-10" yMin="-492" xMax="979" yMax="1993">
      <contour>
        <pt x="834" y="1993" on="1"/>
        <pt x="979" y="1993" on="1"/>
        <pt x="979" y="-492" on="1"/>
        <pt x="834" y="-492" on="1"/>
      </contour>
      <contour>
        <pt x="473" y="1993" on="1"/>
        <pt x="618" y="1993" on="1"/>
        <pt x="618" y="858" on="1"/>
        <pt x="-10" y="858" on="1"/>
        <pt x="-10" y="1004" on="1"/>
        <pt x="473" y="1004" on="1"/>
      </contour>
      <contour>
        <pt x="618" y="-492" on="1"/>
        <pt x="473" y="-492" on="1"/>
        <pt x="473" y="498" on="1"/>
        <pt x="-10" y="498" on="1"/>
        <pt x="-10" y="643" on="1"/>
        <pt x="618" y="643" on="1"/>
      </contour>
    </TTGlyph>
    <TTGlyph name="SF240000" xMin="473" yMin="-492" xMax="979" yMax="1993">
      <contour>
        <pt x="473" y="1993" on="1"/>
        <pt x="618" y="1993" on="1"/>
        <pt x="618" y="-492" on="1"/>
        <pt x="473" y="-492" on="1"/>
      </contour>
      <contour>
        <pt x="834" y="1993" on="1"/>
        <pt x="979" y="1993" on="1"/>
        <pt x="979" y="-492" on="1"/>
        <pt x="834" y="-492" on="1"/>
      </contour>
    </TTGlyph>
    <TTGlyph name="SF250000" xMin="-10" yMin="-492" xMax="979" yMax="1004">
      <contour>
        <pt x="979" y="1004" on="1"/>
        <pt x="979" y="-492" on="1"/>
        <pt x="834" y="-492" on="1"/>
        <pt x="834" y="858" on="1"/>
        <pt x="-10" y="858" on="1"/>
        <pt x="-10" y="1004" on="1"/>
      </contour>
      <contour>
        <pt x="618" y="-492" on="1"/>
        <pt x="473" y="-492" on="1"/>
        <pt x="473" y="498" on="1"/>
        <pt x="-10" y="498" on="1"/>
        <pt x="-10" y="643" on="1"/>
        <pt x="618" y="643" on="1"/>
      </contour>
    </TTGlyph>
    <TTGlyph name="SF260000" xMin="-10" yMin="498" xMax="979" yMax="1993">
      <contour>
        <pt x="979" y="498" on="1"/>
        <pt x="-10" y="498" on="1"/>
        <pt x="-10" y="643" on="1"/>
        <pt x="834" y="643" on="1"/>
        <pt x="834" y="1993" on="1"/>
        <pt x="979" y="1993" on="1"/>
      </contour>
      <contour>
        <pt x="473" y="1993" on="1"/>
        <pt x="618" y="1993" on="1"/>
        <pt x="618" y="858" on="1"/>
        <pt x="-10" y="858" on="1"/>
        <pt x="-10" y="1004" on="1"/>
        <pt x="473" y="1004" on="1"/>
      </contour>
    </TTGlyph>
    <TTGlyph name="SF270000" xMin="-10" yMin="678" xMax="979" yMax="1993">
      <contour>
        <pt x="979" y="678" on="1"/>
        <pt x="-10" y="678" on="1"/>
        <pt x="-10" y="823" on="1"/>
        <pt x="473" y="823" on="1"/>
        <pt x="473" y="1993" on="1"/>
        <pt x="618" y="1993" on="1"/>
        <pt x="618" y="823" on="1"/>
        <pt x="834" y="823" on="1"/>
        <pt x="834" y="1993" on="1"/>
        <pt x="979" y="1993" on="1"/>
      </contour>
    </TTGlyph>
    <TTGlyph name="SF280000" xMin="-10" yMin="498" xMax="799" yMax="1993">
      <contour>
        <pt x="-10" y="498" on="1"/>
        <pt x="-10" y="643" on="1"/>
        <pt x="653" y="643" on="1"/>
        <pt x="653" y="858" on="1"/>
        <pt x="-10" y="858" on="1"/>
        <pt x="-10" y="1004" on="1"/>
        <pt x="653" y="1004" on="1"/>
        <pt x="653" y="1993" on="1"/>
        <pt x="799" y="1993" on="1"/>
        <pt x="799" y="498" on="1"/>
      </contour>
    </TTGlyph>
    <TTGlyph name="SF360000" xMin="653" yMin="-492" xMax="1460" yMax="1993">
      <contour>
        <pt x="653" y="1993" on="1"/>
        <pt x="799" y="1993" on="1"/>
        <pt x="799" y="1004" on="1"/>
        <pt x="1460" y="1004" on="1"/>
        <pt x="1460" y="858" on="1"/>
        <pt x="799" y="858" on="1"/>
        <pt x="799" y="643" on="1"/>
        <pt x="1460" y="643" on="1"/>
        <pt x="1460" y="498" on="1"/>
        <pt x="799" y="498" on="1"/>
        <pt x="799" y="-492" on="1"/>
        <pt x="653" y="-492" on="1"/>
      </contour>
    </TTGlyph>
    <TTGlyph name="SF370000" xMin="473" yMin="-492" xMax="1460" yMax="1993">
      <contour>
        <pt x="834" y="1993" on="1"/>
        <pt x="979" y="1993" on="1"/>
        <pt x="979" y="823" on="1"/>
        <pt x="1460" y="823" on="1"/>
        <pt x="1460" y="678" on="1"/>
        <pt x="979" y="678" on="1"/>
        <pt x="979" y="-492" on="1"/>
        <pt x="834" y="-492" on="1"/>
      </contour>
      <contour>
        <pt x="473" y="1993" on="1"/>
        <pt x="618" y="1993" on="1"/>
        <pt x="618" y="-492" on="1"/>
        <pt x="473" y="-492" on="1"/>
      </contour>
    </TTGlyph>
    <TTGlyph name="SF380000" xMin="473" yMin="498" xMax="1460" yMax="1993">
      <contour>
        <pt x="473" y="1993" on="1"/>
        <pt x="618" y="1993" on="1"/>
        <pt x="618" y="643" on="1"/>
        <pt x="1460" y="643" on="1"/>
        <pt x="1460" y="498" on="1"/>
        <pt x="473" y="498" on="1"/>
      </contour>
      <contour>
        <pt x="834" y="1993" on="1"/>
        <pt x="979" y="1993" on="1"/>
        <pt x="979" y="1004" on="1"/>
        <pt x="1460" y="1004" on="1"/>
        <pt x="1460" y="858" on="1"/>
        <pt x="834" y="858" on="1"/>
      </contour>
    </TTGlyph>
    <TTGlyph name="SF390000" xMin="473" yMin="-492" xMax="1460" yMax="1004">
      <contour>
        <pt x="473" y="1004" on="1"/>
        <pt x="1460" y="1004" on="1"/>
        <pt x="1460" y="858" on="1"/>
        <pt x="618" y="858" on="1"/>
        <pt x="618" y="-492" on="1"/>
        <pt x="473" y="-492" on="1"/>
      </contour>
      <contour>
        <pt x="834" y="643" on="1"/>
        <pt x="1460" y="643" on="1"/>
        <pt x="1460" y="498" on="1"/>
        <pt x="979" y="498" on="1"/>
        <pt x="979" y="-492" on="1"/>
        <pt x="834" y="-492" on="1"/>
      </contour>
    </TTGlyph>
    <TTGlyph name="SF400000" xMin="-10" yMin="498" xMax="1460" yMax="1993">
      <contour>
        <pt x="834" y="1993" on="1"/>
        <pt x="979" y="1993" on="1"/>
        <pt x="979" y="1004" on="1"/>
        <pt x="1460" y="1004" on="1"/>
        <pt x="1460" y="858" on="1"/>
        <pt x="834" y="858" on="1"/>
      </contour>
      <contour>
        <pt x="473" y="1993" on="1"/>
        <pt x="618" y="1993" on="1"/>
        <pt x="618" y="858" on="1"/>
        <pt x="-10" y="858" on="1"/>
        <pt x="-10" y="1004" on="1"/>
        <pt x="473" y="1004" on="1"/>
      </contour>
      <contour>
        <pt x="-10" y="498" on="1"/>
        <pt x="-10" y="643" on="1"/>
        <pt x="1460" y="643" on="1"/>
        <pt x="1460" y="498" on="1"/>
      </contour>
    </TTGlyph>
    <TTGlyph name="SF410000" xMin="-10" yMin="-492" xMax="1460" yMax="1004">
      <contour>
        <pt x="618" y="-492" on="1"/>
        <pt x="473" y="-492" on="1"/>
        <pt x="473" y="498" on="1"/>
        <pt x="-10" y="498" on="1"/>
        <pt x="-10" y="643" on="1"/>
        <pt x="618" y="643" on="1"/>
      </contour>
      <contour>
        <pt x="834" y="643" on="1"/>
        <pt x="1460" y="643" on="1"/>
        <pt x="1460" y="498" on="1"/>
        <pt x="979" y="498" on="1"/>
        <pt x="979" y="-492" on="1"/>
        <pt x="834" y="-492" on="1"/>
      </contour>
      <contour>
        <pt x="1460" y="1004" on="1"/>
        <pt x="1460" y="858" on="1"/>
        <pt x="-10" y="858" on="1"/>
        <pt x="-10" y="1004" on="1"/>
      </contour>
    </TTGlyph>
    <TTGlyph name="SF420000" xMin="473" yMin="-492" xMax="1460" yMax="1993">
      <contour>
        <pt x="618" y="-492" on="1"/>
        <pt x="473" y="-492" on="1"/>
        <pt x="473" y="1993" on="1"/>
        <pt x="618" y="1993" on="1"/>
      </contour>
      <contour>
        <pt x="834" y="643" on="1"/>
        <pt x="1460" y="643" on="1"/>
        <pt x="1460" y="498" on="1"/>
        <pt x="979" y="498" on="1"/>
        <pt x="979" y="-492" on="1"/>
        <pt x="834" y="-492" on="1"/>
      </contour>
      <contour>
        <pt x="834" y="1993" on="1"/>
        <pt x="979" y="1993" on="1"/>
        <pt x="979" y="1004" on="1"/>
        <pt x="1460" y="1004" on="1"/>
        <pt x="1460" y="858" on="1"/>
        <pt x="834" y="858" on="1"/>
      </contour>
    </TTGlyph>
    <TTGlyph name="SF430000" xMin="-10" yMin="498" xMax="1460" yMax="1004">
      <contour>
        <pt x="-10" y="858" on="1"/>
        <pt x="-10" y="1004" on="1"/>
        <pt x="1460" y="1004" on="1"/>
        <pt x="1460" y="858" on="1"/>
      </contour>
      <contour>
        <pt x="-10" y="498" on="1"/>
        <pt x="-10" y="643" on="1"/>
        <pt x="1460" y="643" on="1"/>
        <pt x="1460" y="498" on="1"/>
      </contour>
    </TTGlyph>
    <TTGlyph name="SF440000" xMin="-10" yMin="-492" xMax="1460" yMax="1993">
      <contour>
        <pt x="834" y="1993" on="1"/>
        <pt x="979" y="1993" on="1"/>
        <pt x="979" y="1004" on="1"/>
        <pt x="1460" y="1004" on="1"/>
        <pt x="1460" y="858" on="1"/>
        <pt x="834" y="858" on="1"/>
      </contour>
      <contour>
        <pt x="618" y="-492" on="1"/>
        <pt x="473" y="-492" on="1"/>
        <pt x="473" y="498" on="1"/>
        <pt x="-10" y="498" on="1"/>
        <pt x="-10" y="643" on="1"/>
        <pt x="618" y="643" on="1"/>
      </contour>
      <contour>
        <pt x="834" y="643" on="1"/>
        <pt x="1460" y="643" on="1"/>
        <pt x="1460" y="498" on="1"/>
        <pt x="979" y="498" on="1"/>
        <pt x="979" y="-492" on="1"/>
        <pt x="834" y="-492" on="1"/>
      </contour>
      <contour>
        <pt x="473" y="1993" on="1"/>
        <pt x="618" y="1993" on="1"/>
        <pt x="618" y="858" on="1"/>
        <pt x="-10" y="858" on="1"/>
        <pt x="-10" y="1004" on="1"/>
        <pt x="473" y="1004" on="1"/>
      </contour>
    </TTGlyph>
    <TTGlyph name="SF450000" xMin="-10" yMin="498" xMax="1460" yMax="1993">
      <contour>
        <pt x="-10" y="858" on="1"/>
        <pt x="-10" y="1004" on="1"/>
        <pt x="653" y="1004" on="1"/>
        <pt x="653" y="1993" on="1"/>
        <pt x="799" y="1993" on="1"/>
        <pt x="799" y="1004" on="1"/>
        <pt x="1460" y="1004" on="1"/>
        <pt x="1460" y="858" on="1"/>
      </contour>
      <contour>
        <pt x="-10" y="498" on="1"/>
        <pt x="-10" y="643" on="1"/>
        <pt x="1460" y="643" on="1"/>
        <pt x="1460" y="498" on="1"/>
      </contour>
    </TTGlyph>
    <TTGlyph name="SF460000" xMin="-10" yMin="678" xMax="1460" yMax="1993">
      <contour>
        <pt x="-10" y="678" on="1"/>
        <pt x="-10" y="823" on="1"/>
        <pt x="473" y="823" on="1"/>
        <pt x="473" y="1993" on="1"/>
        <pt x="618" y="1993" on="1"/>
        <pt x="618" y="823" on="1"/>
        <pt x="834" y="823" on="1"/>
        <pt x="834" y="1993" on="1"/>
        <pt x="979" y="1993" on="1"/>
        <pt x="979" y="823" on="1"/>
        <pt x="1460" y="823" on="1"/>
        <pt x="1460" y="678" on="1"/>
      </contour>
    </TTGlyph>
    <TTGlyph name="SF470000" xMin="-10" yMin="-492" xMax="1460" yMax="1004">
      <contour>
        <pt x="-10" y="498" on="1"/>
        <pt x="-10" y="643" on="1"/>
        <pt x="1460" y="643" on="1"/>
        <pt x="1460" y="498" on="1"/>
        <pt x="799" y="498" on="1"/>
        <pt x="799" y="-492" on="1"/>
        <pt x="653" y="-492" on="1"/>
        <pt x="653" y="498" on="1"/>
      </contour>
      <contour>
        <pt x="-10" y="858" on="1"/>
        <pt x="-10" y="1004" on="1"/>
        <pt x="1460" y="1004" on="1"/>
        <pt x="1460" y="858" on="1"/>
      </contour>
    </TTGlyph>
    <TTGlyph name="SF480000" xMin="-10" yMin="-492" xMax="1460" yMax="823">
      <contour>
        <pt x="-10" y="678" on="1"/>
        <pt x="-10" y="823" on="1"/>
        <pt x="1460" y="823" on="1"/>
        <pt x="1460" y="678" on="1"/>
        <pt x="979" y="678" on="1"/>
        <pt x="979" y="-492" on="1"/>
        <pt x="834" y="-492" on="1"/>
        <pt x="834" y="678" on="1"/>
        <pt x="618" y="678" on="1"/>
        <pt x="618" y="-492" on="1"/>
        <pt x="473" y="-492" on="1"/>
        <pt x="473" y="678" on="1"/>
      </contour>
    </TTGlyph>
    <TTGlyph name="SF490000" xMin="473" yMin="678" xMax="1460" yMax="1993">
      <contour>
        <pt x="834" y="1993" on="1"/>
        <pt x="979" y="1993" on="1"/>
        <pt x="979" y="823" on="1"/>
        <pt x="1460" y="823" on="1"/>
        <pt x="1460" y="678" on="1"/>
        <pt x="473" y="678" on="1"/>
        <pt x="473" y="1993" on="1"/>
        <pt x="618" y="1993" on="1"/>
        <pt x="618" y="823" on="1"/>
        <pt x="834" y="823" on="1"/>
      </contour>
    </TTGlyph>
    <TTGlyph name="SF500000" xMin="653" yMin="498" xMax="1460" yMax="1993">
      <contour>
        <pt x="653" y="1993" on="1"/>
        <pt x="799" y="1993" on="1"/>
        <pt x="799" y="1004" on="1"/>
        <pt x="1460" y="1004" on="1"/>
        <pt x="1460" y="858" on="1"/>
        <pt x="799" y="858" on="1"/>
        <pt x="799" y="643" on="1"/>
        <pt x="1460" y="643" on="1"/>
        <pt x="1460" y="498" on="1"/>
        <pt x="653" y="498" on="1"/>
      </contour>
    </TTGlyph>
    <TTGlyph name="SF510000" xMin="653" yMin="-492" xMax="1460" yMax="1004">
      <contour>
        <pt x="653" y="1004" on="1"/>
        <pt x="1460" y="1004" on="1"/>
        <pt x="1460" y="858" on="1"/>
        <pt x="799" y="858" on="1"/>
        <pt x="799" y="643" on="1"/>
        <pt x="1460" y="643" on="1"/>
        <pt x="1460" y="498" on="1"/>
        <pt x="799" y="498" on="1"/>
        <pt x="799" y="-492" on="1"/>
        <pt x="653" y="-492" on="1"/>
      </contour>
    </TTGlyph>
    <TTGlyph name="SF520000" xMin="473" yMin="-492" xMax="1460" yMax="823">
      <contour>
        <pt x="1460" y="823" on="1"/>
        <pt x="1460" y="678" on="1"/>
        <pt x="979" y="678" on="1"/>
        <pt x="979" y="-492" on="1"/>
        <pt x="834" y="-492" on="1"/>
        <pt x="834" y="678" on="1"/>
        <pt x="618" y="678" on="1"/>
        <pt x="618" y="-492" on="1"/>
        <pt x="473" y="-492" on="1"/>
        <pt x="473" y="823" on="1"/>
      </contour>
    </TTGlyph>
    <TTGlyph name="SF530000" xMin="-10" yMin="-492" xMax="1460" yMax="1993">
      <contour>
        <pt x="834" y="1993" on="1"/>
        <pt x="979" y="1993" on="1"/>
        <pt x="979" y="823" on="1"/>
        <pt x="1460" y="823" on="1"/>
        <pt x="1460" y="678" on="1"/>
        <pt x="979" y="678" on="1"/>
        <pt x="979" y="-492" on="1"/>
        <pt x="834" y="-492" on="1"/>
        <pt x="834" y="678" on="1"/>
        <pt x="618" y="678" on="1"/>
        <pt x="618" y="-492" on="1"/>
        <pt x="473" y="-492" on="1"/>
        <pt x="473" y="678" on="1"/>
        <pt x="-10" y="678" on="1"/>
        <pt x="-10" y="823" on="1"/>
        <pt x="473" y="823" on="1"/>
        <pt x="473" y="1993" on="1"/>
        <pt x="618" y="1993" on="1"/>
        <pt x="618" y="823" on="1"/>
        <pt x="834" y="823" on="1"/>
      </contour>
    </TTGlyph>
    <TTGlyph name="SF540000" xMin="-10" yMin="-492" xMax="1460" yMax="1993">
      <contour>
        <pt x="-10" y="498" on="1"/>
        <pt x="-10" y="643" on="1"/>
        <pt x="653" y="643" on="1"/>
        <pt x="653" y="858" on="1"/>
        <pt x="-10" y="858" on="1"/>
        <pt x="-10" y="1004" on="1"/>
        <pt x="653" y="1004" on="1"/>
        <pt x="653" y="1993" on="1"/>
        <pt x="799" y="1993" on="1"/>
        <pt x="799" y="1004" on="1"/>
        <pt x="1460" y="1004" on="1"/>
        <pt x="1460" y="858" on="1"/>
        <pt x="799" y="858" on="1"/>
        <pt x="799" y="643" on="1"/>
        <pt x="1460" y="643" on="1"/>
        <pt x="1460" y="498" on="1"/>
        <pt x="799" y="498" on="1"/>
        <pt x="799" y="-492" on="1"/>
        <pt x="653" y="-492" on="1"/>
        <pt x="653" y="498" on="1"/>
      </contour>
    </TTGlyph>
    <TTGlyph name="Sacute" xMin="104" yMin="-20" xMax="1028" yMax="1907">
      <component glyphName="S" x="0" y="0" flags="0x204"/>
      <component glyphName="acute" x="78" y="338" flags="0x4"/>
    </TTGlyph>
    <TTGlyph name="Scaron" xMin="104" yMin="-20" xMax="1028" yMax="1907">
      <component glyphName="S" x="0" y="0" flags="0x204"/>
      <component glyphName="caron" x="-26" y="338" flags="0x4"/>
    </TTGlyph>
    <TTGlyph name="Scedilla" xMin="104" yMin="-492" xMax="1028" yMax="1483">
      <component glyphName="S" x="0" y="0" flags="0x204"/>
      <component glyphName="cedilla" x="299" y="0" flags="0x4"/>
    </TTGlyph>
    <TTGlyph name="Scircumflex" xMin="104" yMin="-20" xMax="1028" yMax="1907">
      <component glyphName="S" x="0" y="0" flags="0x204"/>
      <component glyphName="circumflex" x="-22" y="338" flags="0x4"/>
    </TTGlyph>
    <TTGlyph name="Scommaaccent" xMin="104" yMin="-453" xMax="1028" yMax="1483">
      <component glyphName="S" x="0" y="0" flags="0x204"/>
      <component glyphName="glyph00569" x="23" y="0" flags="0x4"/>
    </TTGlyph>
    <TTGlyph name="Sigma" xMin="74" yMin="0" xMax="1118" yMax="1462">
      <contour>
        <pt x="74" y="0" on="1"/>
        <pt x="74" y="152" on="1"/>
        <pt x="553" y="764" on="1"/>
        <pt x="86" y="1309" on="1"/>
        <pt x="86" y="1462" on="1"/>
        <pt x="1059" y="1462" on="1"/>
        <pt x="1059" y="1298" on="1"/>
        <pt x="393" y="1298" on="1"/>
        <pt x="297" y="1300" on="1"/>
        <pt x="758" y="766" on="1"/>
        <pt x="276" y="160" on="1"/>
        <pt x="610" y="162" on="1"/>
        <pt x="1118" y="162" on="1"/>
        <pt x="1118" y="0" on="1"/>
      </contour>
    </TTGlyph>
    <TTGlyph name="T" xMin="20" yMin="0" xMax="1116" yMax="1462">
      <contour>
        <pt x="662" y="0" on="1"/>
        <pt x="477" y="0" on="1"/>
        <pt x="477" y="1300" on="1"/>
        <pt x="20" y="1300" on="1"/>
        <pt x="20" y="1462" on="1"/>
        <pt x="1116" y="1462" on="1"/>
        <pt x="1116" y="1300" on="1"/>
        <pt x="662" y="1300" on="1"/>
      </contour>
    </TTGlyph>
    <TTGlyph name="Tau" xMin="20" yMin="0" xMax="1116" yMax="1462">
      <component glyphName="T" x="0" y="0" flags="0x204"/>
    </TTGlyph>
    <TTGlyph name="Tbar" xMin="20" yMin="0" xMax="1116" yMax="1462">
      <contour>
        <pt x="475" y="817" on="1"/>
        <pt x="475" y="1298" on="1"/>
        <pt x="20" y="1298" on="1"/>
        <pt x="20" y="1462" on="1"/>
        <pt x="1116" y="1462" on="1"/>
        <pt x="1116" y="1298" on="1"/>
        <pt x="659" y="1298" on="1"/>
        <pt x="659" y="817" on="1"/>
        <pt x="963" y="817" on="1"/>
        <pt x="963" y="666" on="1"/>
        <pt x="659" y="666" on="1"/>
        <pt x="659" y="0" on="1"/>
        <pt x="475" y="0" on="1"/>
        <pt x="475" y="666" on="1"/>
        <pt x="170" y="666" on="1"/>
        <pt x="170" y="817" on="1"/>
      </contour>
    </TTGlyph>
    <TTGlyph name="Tcaron" xMin="20" yMin="0" xMax="1116" yMax="1907">
      <component glyphName="T" x="0" y="0" flags="0x204"/>
      <component glyphName="caron" x="-34" y="338" flags="0x4"/>
    </TTGlyph>
    <TTGlyph name="Tcommaaccent" xMin="20" yMin="-492" xMax="1116" yMax="1462">
      <component glyphName="T" x="0" y="0" flags="0x204"/>
      <component glyphName="cedilla" x="326" y="0" flags="0x4"/>
    </TTGlyph>
    <TTGlyph name="Theta" xMin="123" yMin="-20" xMax="1475" yMax="1485">
      <contour>
        <pt x="489" y="823" on="1"/>
        <pt x="1108" y="823" on="1"/>
        <pt x="1108" y="664" on="1"/>
        <pt x="489" y="664" on="1"/>
      </contour>
      <contour>
        <pt x="1475" y="733" on="1"/>
        <pt x="1475" y="382" on="0"/>
        <pt x="1118" y="-20" on="0"/>
        <pt x="799" y="-20" on="1"/>
        <pt x="474" y="-20" on="0"/>
        <pt x="123" y="374" on="0"/>
        <pt x="123" y="735" on="1"/>
        <pt x="123" y="1092" on="0"/>
        <pt x="474" y="1485" on="0"/>
        <pt x="801" y="1485" on="1"/>
        <pt x="1118" y="1485" on="0"/>
        <pt x="1475" y="1088" on="0"/>
      </contour>
      <contour>
        <pt x="317" y="733" on="1"/>
        <pt x="317" y="441" on="0"/>
        <pt x="563" y="139" on="0"/>
        <pt x="799" y="139" on="1"/>
        <pt x="1038" y="139" on="0"/>
        <pt x="1280" y="440" on="0"/>
        <pt x="1280" y="733" on="1"/>
        <pt x="1280" y="1026" on="0"/>
        <pt x="1036" y="1321" on="0"/>
        <pt x="801" y="1321" on="1"/>
        <pt x="564" y="1321" on="0"/>
        <pt x="317" y="1025" on="0"/>
      </contour>
    </TTGlyph>
    <TTGlyph name="Thorn" xMin="199" yMin="0" xMax="1135" yMax="1462">
      <contour>
        <pt x="1135" y="782" on="1"/>
        <pt x="1135" y="556" on="0"/>
        <pt x="834" y="317" on="0"/>
        <pt x="549" y="317" on="1"/>
        <pt x="383" y="317" on="1"/>
        <pt x="383" y="0" on="1"/>
        <pt x="199" y="0" on="1"/>
        <pt x="199" y="1462" on="1"/>
        <pt x="383" y="1462" on="1"/>
        <pt x="383" y="1208" on="1"/>
        <pt x="580" y="1208" on="1"/>
        <pt x="861" y="1208" on="0"/>
        <pt x="1135" y="997" on="0"/>
      </contour>
      <contour>
        <pt x="383" y="473" on="1"/>
        <pt x="530" y="473" on="1"/>
        <pt x="751" y="473" on="0"/>
        <pt x="944" y="615" on="0"/>
        <pt x="944" y="772" on="1"/>
        <pt x="944" y="916" on="0"/>
        <pt x="762" y="1051" on="0"/>
        <pt x="565" y="1051" on="1"/>
        <pt x="383" y="1051" on="1"/>
      </contour>
    </TTGlyph>
    <TTGlyph name="U" xMin="184" yMin="-20" xMax="1311" yMax="1462">
      <contour>
        <pt x="1311" y="1462" on="1"/>
        <pt x="1311" y="516" on="1"/>
        <pt x="1311" y="266" on="0"/>
        <pt x="1009" y="-20" on="0"/>
        <pt x="741" y="-20" on="1"/>
        <pt x="476" y="-20" on="0"/>
        <pt x="184" y="269" on="0"/>
        <pt x="184" y="520" on="1"/>
        <pt x="184" y="1462" on="1"/>
        <pt x="369" y="1462" on="1"/>
        <pt x="369" y="514" on="1"/>
        <pt x="369" y="335" on="0"/>
        <pt x="560" y="139" on="0"/>
        <pt x="752" y="139" on="1"/>
        <pt x="933" y="139" on="0"/>
        <pt x="1128" y="333" on="0"/>
        <pt x="1128" y="516" on="1"/>
        <pt x="1128" y="1462" on="1"/>
      </contour>
    </TTGlyph>
    <TTGlyph name="Uacute" xMin="184" yMin="-20" xMax="1311" yMax="1907">
      <component glyphName="U" x="0" y="0" flags="0x204"/>
      <component glyphName="acute" x="213" y="338" flags="0x4"/>
    </TTGlyph>
    <TTGlyph name="Ubreve" xMin="184" yMin="-20" xMax="1311" yMax="1854">
      <component glyphName="U" x="0" y="0" flags="0x204"/>
      <component glyphName="breve" x="139" y="338" flags="0x4"/>
    </TTGlyph>
    <TTGlyph name="Ucircumflex" xMin="184" yMin="-20" xMax="1311" yMax="1907">
      <component glyphName="U" x="0" y="0" flags="0x204"/>
      <component glyphName="circumflex" x="127" y="338" flags="0x4"/>
    </TTGlyph>
    <TTGlyph name="Udieresis" xMin="184" yMin="-20" xMax="1311" yMax="1833">
      <component glyphName="U" x="0" y="0" flags="0x204"/>
      <component glyphName="dieresis" x="152" y="338" flags="0x4"/>
    </TTGlyph>
    <TTGlyph name="Ugrave" xMin="184" yMin="-20" xMax="1311" yMax="1907">
      <component glyphName="U" x="0" y="0" flags="0x204"/>
      <component glyphName="grave" x="66" y="338" flags="0x4"/>
    </TTGlyph>
    <TTGlyph name="Uhorn" xMin="184" yMin="-20" xMax="1675" yMax="1556">
      <contour>
        <pt x="1311" y="1462" on="1"/>
        <pt x="1311" y="1264" on="1"/>
        <pt x="1393" y="1275" on="0"/>
        <pt x="1470" y="1404" on="0"/>
        <pt x="1470" y="1556" on="1"/>
        <pt x="1661" y="1556" on="1"/>
        <pt x="1675" y="1534" on="1"/>
        <pt x="1642" y="1349" on="0"/>
        <pt x="1466" y="1163" on="0"/>
        <pt x="1311" y="1137" on="1"/>
        <pt x="1311" y="516" on="1"/>
        <pt x="1311" y="260" on="0"/>
        <pt x="1022" y="-20" on="0"/>
        <pt x="756" y="-20" on="1"/>
        <pt x="484" y="-20" on="0"/>
        <pt x="184" y="268" on="0"/>
        <pt x="184" y="520" on="1"/>
        <pt x="184" y="1462" on="1"/>
        <pt x="369" y="1462" on="1"/>
        <pt x="369" y="512" on="1"/>
        <pt x="369" y="335" on="0"/>
        <pt x="563" y="139" on="0"/>
        <pt x="760" y="139" on="1"/>
        <pt x="940" y="139" on="0"/>
        <pt x="1128" y="329" on="0"/>
        <pt x="1128" y="514" on="1"/>
        <pt x="1128" y="1462" on="1"/>
      </contour>
    </TTGlyph>
    <TTGlyph name="Uhungarumlaut" xMin="184" yMin="-20" xMax="1311" yMax="1907">
      <component glyphName="U" x="0" y="0" flags="0x204"/>
      <component glyphName="hungarumlaut" x="229" y="338" flags="0x4"/>
    </TTGlyph>
    <TTGlyph name="Umacron" xMin="184" yMin="-20" xMax="1311" yMax="1724">
      <component glyphName="U" x="0" y="0" flags="0x204"/>
      <component glyphName="uni02C9" x="145" y="338" flags="0x4"/>
    </TTGlyph>
    <TTGlyph name="Uogonek" xMin="184" yMin="-451" xMax="1311" yMax="1462">
      <component glyphName="U" x="0" y="0" flags="0x204"/>
      <component glyphName="ogonek" x="547" y="0" flags="0x4"/>
    </TTGlyph>
    <TTGlyph name="Upsilon" xMin="0" yMin="0" xMax="1159" yMax="1462">
      <component glyphName="Y" x="0" y="0" flags="0x204"/>
    </TTGlyph>
    <TTGlyph name="Upsilon1" xMin="0" yMin="0" xMax="1161" yMax="1475">
      <contour>
        <pt x="575" y="731" on="1"/>
        <pt x="644" y="890" on="1"/>
        <pt x="701" y="1027" on="0"/>
        <pt x="834" y="1317" on="0"/>
        <pt x="910" y="1425" on="0"/>
        <pt x="1003" y="1475" on="0"/>
        <pt x="1067" y="1475" on="1"/>
        <pt x="1125" y="1475" on="0"/>
        <pt x="1161" y="1458" on="1"/>
        <pt x="1161" y="1315" on="1"/>
        <pt x="1137" y="1321" on="0"/>
        <pt x="1102" y="1321" on="1"/>
        <pt x="1057" y="1321" on="0"/>
        <pt x="988" y="1246" on="0"/>
        <pt x="824" y="921" on="0"/>
        <pt x="699" y="640" on="0"/>
        <pt x="664" y="543" on="1"/>
        <pt x="664" y="0" on="1"/>
        <pt x="477" y="0" on="1"/>
        <pt x="477" y="559" on="1"/>
        <pt x="0" y="1462" on="1"/>
        <pt x="201" y="1462" on="1"/>
      </contour>
    </TTGlyph>
    <TTGlyph name="Upsilondieresis" xMin="0" yMin="0" xMax="1159" yMax="1833">
      <component glyphName="Y" x="0" y="0" flags="0x204"/>
      <component glyphName="dieresis" x="-13" y="338" flags="0x4"/>
    </TTGlyph>
    <TTGlyph name="Upsilontonos" xMin="-50" yMin="0" xMax="1427" yMax="1544">
      <component glyphName="Y" x="268" y="0" flags="0x4"/>
      <component glyphName="tonos" x="-554" y="-105" flags="0x4"/>
    </TTGlyph>
    <TTGlyph name="Uring" xMin="184" yMin="-20" xMax="1311" yMax="2011">
      <component glyphName="U" x="0" y="0" flags="0x204"/>
      <component glyphName="ring" x="158" y="338" flags="0x4"/>
    </TTGlyph>
    <TTGlyph name="Utilde" xMin="184" yMin="-20" xMax="1311" yMax="1843">
      <component glyphName="U" x="0" y="0" flags="0x204"/>
      <component glyphName="tilde" x="115" y="338" flags="0x4"/>
    </TTGlyph>
    <TTGlyph name="V" xMin="0" yMin="0" xMax="1229" yMax="1462">
      <contour>
        <pt x="0" y="1462" on="1"/>
        <pt x="193" y="1462" on="1"/>
        <pt x="522" y="524" on="1"/>
        <pt x="585" y="346" on="0"/>
        <pt x="614" y="205" on="1"/>
        <pt x="639" y="331" on="0"/>
        <pt x="707" y="528" on="1"/>
        <pt x="1034" y="1462" on="1"/>
        <pt x="1229" y="1462" on="1"/>
        <pt x="707" y="0" on="1"/>
        <pt x="522" y="0" on="1"/>
      </contour>
    </TTGlyph>
    <TTGlyph name="W" xMin="25" yMin="0" xMax="1878" yMax="1462">
      <contour>
        <pt x="1489" y="0" on="1"/>
        <pt x="1303" y="0" on="1"/>
        <pt x="1018" y="958" on="1"/>
        <pt x="955" y="1172" on="0"/>
        <pt x="944" y="1247" on="1"/>
        <pt x="928" y="1132" on="0"/>
        <pt x="874" y="952" on="1"/>
        <pt x="598" y="0" on="1"/>
        <pt x="412" y="0" on="1"/>
        <pt x="25" y="1462" on="1"/>
        <pt x="217" y="1462" on="1"/>
        <pt x="444" y="569" on="1"/>
        <pt x="490" y="394" on="0"/>
        <pt x="514" y="221" on="1"/>
        <pt x="536" y="385" on="0"/>
        <pt x="592" y="580" on="1"/>
        <pt x="850" y="1462" on="1"/>
        <pt x="1040" y="1462" on="1"/>
        <pt x="1309" y="573" on="1"/>
        <pt x="1361" y="400" on="0"/>
        <pt x="1389" y="221" on="1"/>
        <pt x="1405" y="359" on="0"/>
        <pt x="1460" y="571" on="1"/>
        <pt x="1686" y="1462" on="1"/>
        <pt x="1878" y="1462" on="1"/>
      </contour>
    </TTGlyph>
    <TTGlyph name="Wacute" xMin="25" yMin="0" xMax="1878" yMax="1907">
      <component glyphName="W" x="0" y="0" flags="0x204"/>
      <component glyphName="acute" x="432" y="338" flags="0x4"/>
    </TTGlyph>
    <TTGlyph name="Wcircumflex" xMin="25" yMin="0" xMax="1878" yMax="1907">
      <component glyphName="W" x="0" y="0" flags="0x204"/>
      <component glyphName="circumflex" x="342" y="338" flags="0x4"/>
    </TTGlyph>
    <TTGlyph name="Wdieresis" xMin="25" yMin="0" xMax="1878" yMax="1833">
      <component glyphName="W" x="0" y="0" flags="0x204"/>
      <component glyphName="dieresis" x="356" y="338" flags="0x4"/>
    </TTGlyph>
    <TTGlyph name="Wgrave" xMin="25" yMin="0" xMax="1878" yMax="1907">
      <component glyphName="W" x="0" y="0" flags="0x204"/>
      <component glyphName="grave" x="274" y="338" flags="0x4"/>
    </TTGlyph>
    <TTGlyph name="X" xMin="8" yMin="0" xMax="1192" yMax="1462">
      <contour>
        <pt x="1192" y="0" on="1"/>
        <pt x="983" y="0" on="1"/>
        <pt x="596" y="635" on="1"/>
        <pt x="203" y="0" on="1"/>
        <pt x="8" y="0" on="1"/>
        <pt x="494" y="762" on="1"/>
        <pt x="39" y="1462" on="1"/>
        <pt x="244" y="1462" on="1"/>
        <pt x="602" y="889" on="1"/>
        <pt x="963" y="1462" on="1"/>
        <pt x="1157" y="1462" on="1"/>
        <pt x="705" y="766" on="1"/>
      </contour>
    </TTGlyph>
    <TTGlyph name="Xi" xMin="72" yMin="0" xMax="1063" yMax="1462">
      <contour>
        <pt x="195" y="844" on="1"/>
        <pt x="940" y="844" on="1"/>
        <pt x="940" y="684" on="1"/>
        <pt x="195" y="684" on="1"/>
      </contour>
      <contour>
        <pt x="113" y="1462" on="1"/>
        <pt x="1022" y="1462" on="1"/>
        <pt x="1022" y="1300" on="1"/>
        <pt x="113" y="1300" on="1"/>
      </contour>
      <contour>
        <pt x="1063" y="162" on="1"/>
        <pt x="1063" y="0" on="1"/>
        <pt x="72" y="0" on="1"/>
        <pt x="72" y="162" on="1"/>
      </contour>
    </TTGlyph>
    <TTGlyph name="Y" xMin="0" yMin="0" xMax="1159" yMax="1462">
      <contour>
        <pt x="580" y="743" on="1"/>
        <pt x="961" y="1462" on="1"/>
        <pt x="1159" y="1462" on="1"/>
        <pt x="672" y="567" on="1"/>
        <pt x="672" y="0" on="1"/>
        <pt x="487" y="0" on="1"/>
        <pt x="487" y="559" on="1"/>
        <pt x="0" y="1462" on="1"/>
        <pt x="201" y="1462" on="1"/>
      </contour>
    </TTGlyph>
    <TTGlyph name="Yacute" xMin="0" yMin="0" xMax="1159" yMax="1907">
      <component glyphName="Y" x="0" y="0" flags="0x204"/>
      <component glyphName="acute" x="55" y="338" flags="0x4"/>
    </TTGlyph>
    <TTGlyph name="Ycircumflex" xMin="0" yMin="0" xMax="1159" yMax="1907">
      <component glyphName="Y" x="0" y="0" flags="0x204"/>
      <component glyphName="circumflex" x="-26" y="338" flags="0x4"/>
    </TTGlyph>
    <TTGlyph name="Ydieresis" xMin="0" yMin="0" xMax="1159" yMax="1833">
      <component glyphName="Y" x="0" y="0" flags="0x204"/>
      <component glyphName="dieresis" x="-11" y="338" flags="0x4"/>
    </TTGlyph>
    <TTGlyph name="Ygrave" xMin="0" yMin="0" xMax="1159" yMax="1907">
      <component glyphName="Y" x="0" y="0" flags="0x204"/>
      <component glyphName="grave" x="-110" y="338" flags="0x4"/>
    </TTGlyph>
    <TTGlyph name="Z" xMin="78" yMin="0" xMax="1092" yMax="1462">
      <contour>
        <pt x="1092" y="0" on="1"/>
        <pt x="78" y="0" on="1"/>
        <pt x="78" y="139" on="1"/>
        <pt x="848" y="1298" on="1"/>
        <pt x="102" y="1298" on="1"/>
        <pt x="102" y="1462" on="1"/>
        <pt x="1071" y="1462" on="1"/>
        <pt x="1071" y="1323" on="1"/>
        <pt x="301" y="164" on="1"/>
        <pt x="1092" y="164" on="1"/>
      </contour>
    </TTGlyph>
    <TTGlyph name="Zacute" xMin="78" yMin="0" xMax="1092" yMax="1907">
      <component glyphName="Z" x="0" y="0" flags="0x204"/>
      <component glyphName="acute" x="66" y="338" flags="0x4"/>
    </TTGlyph>
    <TTGlyph name="Zcaron" xMin="78" yMin="0" xMax="1092" yMax="1907">
      <component glyphName="Z" x="0" y="0" flags="0x204"/>
      <component glyphName="caron" x="-17" y="338" flags="0x4"/>
    </TTGlyph>
    <TTGlyph name="Zdotaccent" xMin="78" yMin="0" xMax="1092" yMax="1847">
      <component glyphName="Z" x="0" y="0" flags="0x204"/>
      <component glyphName="dotaccent" x="317" y="338" flags="0x4"/>
    </TTGlyph>
    <TTGlyph name="Zeta" xMin="78" yMin="0" xMax="1092" yMax="1462">
      <component glyphName="Z" x="0" y="0" flags="0x204"/>
    </TTGlyph>
    <TTGlyph name="a" xMin="94" yMin="-20" xMax="983" yMax="1116">
      <contour>
        <pt x="852" y="0" on="1"/>
        <pt x="817" y="156" on="1"/>
        <pt x="809" y="156" on="1"/>
        <pt x="727" y="53" on="0"/>
        <pt x="564" y="-20" on="0"/>
        <pt x="440" y="-20" on="1"/>
        <pt x="278" y="-20" on="0"/>
        <pt x="94" y="150" on="0"/>
        <pt x="94" y="305" on="1"/>
        <pt x="94" y="639" on="0"/>
        <pt x="621" y="655" on="1"/>
        <pt x="807" y="662" on="1"/>
        <pt x="807" y="727" on="1"/>
        <pt x="807" y="852" on="0"/>
        <pt x="699" y="971" on="0"/>
        <pt x="580" y="971" on="1"/>
        <pt x="493" y="971" on="0"/>
        <pt x="338" y="919" on="0"/>
        <pt x="270" y="887" on="1"/>
        <pt x="215" y="1022" on="1"/>
        <pt x="298" y="1066" on="0"/>
        <pt x="494" y="1116" on="0"/>
        <pt x="590" y="1116" on="1"/>
        <pt x="789" y="1116" on="0"/>
        <pt x="983" y="940" on="0"/>
        <pt x="983" y="748" on="1"/>
        <pt x="983" y="0" on="1"/>
      </contour>
      <contour>
        <pt x="481" y="125" on="1"/>
        <pt x="632" y="125" on="0"/>
        <pt x="805" y="288" on="0"/>
        <pt x="805" y="438" on="1"/>
        <pt x="805" y="537" on="1"/>
        <pt x="643" y="530" on="1"/>
        <pt x="454" y="523" on="0"/>
        <pt x="281" y="417" on="0"/>
        <pt x="281" y="303" on="1"/>
        <pt x="281" y="217" on="0"/>
        <pt x="386" y="125" on="0"/>
      </contour>
    </TTGlyph>
    <TTGlyph name="aacute" xMin="94" yMin="-20" xMax="983" yMax="1569">
      <component glyphName="a" x="0" y="0" flags="0x204"/>
      <component glyphName="acute" x="49" y="0" flags="0x4"/>
    </TTGlyph>
    <TTGlyph name="abreve" xMin="94" yMin="-20" xMax="983" yMax="1516">
      <component glyphName="a" x="0" y="0" flags="0x204"/>
      <component glyphName="breve" x="-24" y="0" flags="0x4"/>
    </TTGlyph>
    <TTGlyph name="acircumflex" xMin="94" yMin="-20" xMax="983" yMax="1569">
      <component glyphName="a" x="0" y="0" flags="0x204"/>
      <component glyphName="circumflex" x="-36" y="0" flags="0x4"/>
    </TTGlyph>
    <TTGlyph name="acute" xMin="387" yMin="1241" xMax="799" yMax="1569">
      <contour>
        <pt x="387" y="1266" on="1"/>
        <pt x="425" y="1314" on="0"/>
        <pt x="542" y="1491" on="0"/>
        <pt x="582" y="1569" on="1"/>
        <pt x="799" y="1569" on="1"/>
        <pt x="799" y="1548" on="1"/>
        <pt x="755" y="1484" on="0"/>
        <pt x="569" y="1290" on="0"/>
        <pt x="506" y="1241" on="1"/>
        <pt x="387" y="1241" on="1"/>
      </contour>
    </TTGlyph>
    <TTGlyph name="acutecomb" xMin="-761" yMin="1241" xMax="-349" yMax="1569">
      <component glyphName="acute" x="-1148" y="0" flags="0x4"/>
    </TTGlyph>
    <TTGlyph name="adieresis" xMin="94" yMin="-20" xMax="983" yMax="1495">
      <component glyphName="a" x="0" y="0" flags="0x204"/>
      <component glyphName="dieresis" x="-26" y="0" flags="0x4"/>
    </TTGlyph>
    <TTGlyph name="ae" xMin="94" yMin="-20" xMax="1665" yMax="1118">
      <contour>
        <pt x="94" y="305" on="1"/>
        <pt x="94" y="639" on="0"/>
        <pt x="594" y="655" on="1"/>
        <pt x="778" y="662" on="1"/>
        <pt x="778" y="731" on="1"/>
        <pt x="778" y="853" on="0"/>
        <pt x="665" y="971" on="0"/>
        <pt x="549" y="971" on="1"/>
        <pt x="410" y="971" on="0"/>
        <pt x="242" y="887" on="1"/>
        <pt x="186" y="1022" on="1"/>
        <pt x="257" y="1062" on="0"/>
        <pt x="460" y="1116" on="0"/>
        <pt x="563" y="1116" on="1"/>
        <pt x="691" y="1116" on="0"/>
        <pt x="856" y="1033" on="0"/>
        <pt x="899" y="940" on="1"/>
        <pt x="953" y="1025" on="0"/>
        <pt x="1123" y="1118" on="0"/>
        <pt x="1235" y="1118" on="1"/>
        <pt x="1432" y="1118" on="0"/>
        <pt x="1665" y="848" on="0"/>
        <pt x="1665" y="627" on="1"/>
        <pt x="1665" y="516" on="1"/>
        <pt x="963" y="516" on="1"/>
        <pt x="971" y="133" on="0"/>
        <pt x="1280" y="133" on="1"/>
        <pt x="1368" y="133" on="0"/>
        <pt x="1522" y="166" on="0"/>
        <pt x="1616" y="209" on="1"/>
        <pt x="1616" y="51" on="1"/>
        <pt x="1528" y="12" on="0"/>
        <pt x="1376" y="-20" on="0"/>
        <pt x="1274" y="-20" on="1"/>
        <pt x="983" y="-20" on="0"/>
        <pt x="858" y="211" on="1"/>
        <pt x="776" y="87" on="0"/>
        <pt x="578" y="-20" on="0"/>
        <pt x="442" y="-20" on="1"/>
        <pt x="278" y="-20" on="0"/>
        <pt x="94" y="151" on="0"/>
      </contour>
      <contour>
        <pt x="281" y="303" on="1"/>
        <pt x="281" y="211" on="0"/>
        <pt x="385" y="125" on="0"/>
        <pt x="471" y="125" on="1"/>
        <pt x="611" y="125" on="0"/>
        <pt x="774" y="288" on="0"/>
        <pt x="774" y="438" on="1"/>
        <pt x="774" y="537" on="1"/>
        <pt x="621" y="530" on="1"/>
        <pt x="444" y="523" on="0"/>
        <pt x="281" y="417" on="0"/>
      </contour>
      <contour>
        <pt x="1233" y="971" on="1"/>
        <pt x="1114" y="971" on="0"/>
        <pt x="978" y="810" on="0"/>
        <pt x="967" y="657" on="1"/>
        <pt x="1475" y="657" on="1"/>
        <pt x="1475" y="809" on="0"/>
        <pt x="1350" y="971" on="0"/>
      </contour>
    </TTGlyph>
    <TTGlyph name="aeacute" xMin="94" yMin="-20" xMax="1665" yMax="1569">
      <component glyphName="ae" x="0" y="0" flags="0x204"/>
      <component glyphName="acute" x="395" y="0" flags="0x4"/>
    </TTGlyph>
    <TTGlyph name="afii00208" xMin="82" yMin="469" xMax="1966" yMax="629">
      <contour>
        <pt x="82" y="469" on="1"/>
        <pt x="82" y="629" on="1"/>
        <pt x="1966" y="629" on="1"/>
        <pt x="1966" y="469" on="1"/>
      </contour>
    </TTGlyph>
    <TTGlyph name="afii10017" xMin="0" yMin="0" xMax="1307" yMax="1468">
      <component glyphName="A" x="0" y="0" flags="0x204"/>
    </TTGlyph>
    <TTGlyph name="afii10018" xMin="199" yMin="0" xMax="1155" yMax="1462">
      <contour>
        <pt x="1155" y="428" on="1"/>
        <pt x="1155" y="212" on="0"/>
        <pt x="895" y="0" on="0"/>
        <pt x="627" y="0" on="1"/>
        <pt x="199" y="0" on="1"/>
        <pt x="199" y="1462" on="1"/>
        <pt x="1067" y="1462" on="1"/>
        <pt x="1067" y="1300" on="1"/>
        <pt x="383" y="1300" on="1"/>
        <pt x="383" y="844" on="1"/>
        <pt x="600" y="844" on="1"/>
        <pt x="880" y="844" on="0"/>
        <pt x="1155" y="646" on="0"/>
      </contour>
      <contour>
        <pt x="383" y="158" on="1"/>
        <pt x="608" y="158" on="1"/>
        <pt x="796" y="158" on="0"/>
        <pt x="965" y="285" on="0"/>
        <pt x="965" y="428" on="1"/>
        <pt x="965" y="568" on="0"/>
        <pt x="789" y="684" on="0"/>
        <pt x="578" y="684" on="1"/>
        <pt x="383" y="684" on="1"/>
      </contour>
    </TTGlyph>
    <TTGlyph name="afii10019" xMin="199" yMin="0" xMax="1221" yMax="1462">
      <component glyphName="B" x="0" y="0" flags="0x204"/>
    </TTGlyph>
    <TTGlyph name="afii10020" xMin="199" yMin="0" xMax="1024" yMax="1462">
      <component glyphName="Gamma" x="0" y="0" flags="0x204"/>
    </TTGlyph>
    <TTGlyph name="afii10021" xMin="12" yMin="-385" xMax="1370" yMax="1462">
      <contour>
        <pt x="1370" y="-385" on="1"/>
        <pt x="1194" y="-385" on="1"/>
        <pt x="1194" y="0" on="1"/>
        <pt x="188" y="0" on="1"/>
        <pt x="188" y="-385" on="1"/>
        <pt x="12" y="-385" on="1"/>
        <pt x="12" y="164" on="1"/>
        <pt x="125" y="164" on="1"/>
        <pt x="273" y="416" on="0"/>
        <pt x="489" y="1134" on="0"/>
        <pt x="508" y="1462" on="1"/>
        <pt x="1184" y="1462" on="1"/>
        <pt x="1184" y="164" on="1"/>
        <pt x="1370" y="164" on="1"/>
      </contour>
      <contour>
        <pt x="1001" y="164" on="1"/>
        <pt x="1001" y="1296" on="1"/>
        <pt x="670" y="1296" on="1"/>
        <pt x="651" y="1047" on="0"/>
        <pt x="446" y="383" on="0"/>
        <pt x="319" y="164" on="1"/>
      </contour>
    </TTGlyph>
    <TTGlyph name="afii10022" xMin="199" yMin="0" xMax="1016" yMax="1462">
      <component glyphName="E" x="0" y="0" flags="0x204"/>
    </TTGlyph>
    <TTGlyph name="afii10023" xMin="199" yMin="0" xMax="1016" yMax="1833">
      <component glyphName="E" x="0" y="0" flags="0x204"/>
      <component glyphName="dieresis" x="33" y="338" flags="0x4"/>
    </TTGlyph>
    <TTGlyph name="afii10024" xMin="2" yMin="0" xMax="1745" yMax="1462">
      <contour>
        <pt x="590" y="752" on="1"/>
        <pt x="23" y="1462" on="1"/>
        <pt x="227" y="1462" on="1"/>
        <pt x="786" y="754" on="1"/>
        <pt x="786" y="1462" on="1"/>
        <pt x="963" y="1462" on="1"/>
        <pt x="963" y="754" on="1"/>
        <pt x="1522" y="1462" on="1"/>
        <pt x="1726" y="1462" on="1"/>
        <pt x="1159" y="754" on="1"/>
        <pt x="1745" y="0" on="1"/>
        <pt x="1534" y="0" on="1"/>
        <pt x="963" y="741" on="1"/>
        <pt x="963" y="0" on="1"/>
        <pt x="786" y="0" on="1"/>
        <pt x="786" y="741" on="1"/>
        <pt x="213" y="0" on="1"/>
        <pt x="2" y="0" on="1"/>
      </contour>
    </TTGlyph>
    <TTGlyph name="afii10025" xMin="78" yMin="-20" xMax="1094" yMax="1483">
      <contour>
        <pt x="1063" y="1120" on="1"/>
        <pt x="1063" y="978" on="0"/>
        <pt x="881" y="797" on="0"/>
        <pt x="717" y="772" on="1"/>
        <pt x="717" y="764" on="1"/>
        <pt x="903" y="739" on="0"/>
        <pt x="1094" y="559" on="0"/>
        <pt x="1094" y="414" on="1"/>
        <pt x="1094" y="209" on="0"/>
        <pt x="784" y="-20" on="0"/>
        <pt x="504" y="-20" on="1"/>
        <pt x="241" y="-20" on="0"/>
        <pt x="78" y="59" on="1"/>
        <pt x="78" y="227" on="1"/>
        <pt x="177" y="180" on="0"/>
        <pt x="404" y="131" on="0"/>
        <pt x="502" y="131" on="1"/>
        <pt x="700" y="131" on="0"/>
        <pt x="901" y="277" on="0"/>
        <pt x="901" y="414" on="1"/>
        <pt x="901" y="545" on="0"/>
        <pt x="675" y="680" on="0"/>
        <pt x="451" y="680" on="1"/>
        <pt x="242" y="680" on="1"/>
        <pt x="242" y="834" on="1"/>
        <pt x="440" y="834" on="1"/>
        <pt x="657" y="834" on="0"/>
        <pt x="872" y="979" on="0"/>
        <pt x="872" y="1102" on="1"/>
        <pt x="872" y="1208" on="0"/>
        <pt x="713" y="1331" on="0"/>
        <pt x="578" y="1331" on="1"/>
        <pt x="464" y="1331" on="0"/>
        <pt x="281" y="1277" on="0"/>
        <pt x="172" y="1206" on="1"/>
        <pt x="84" y="1331" on="1"/>
        <pt x="295" y="1483" on="0"/>
        <pt x="580" y="1483" on="1"/>
        <pt x="805" y="1483" on="0"/>
        <pt x="1063" y="1287" on="0"/>
      </contour>
    </TTGlyph>
    <TTGlyph name="afii10026" xMin="201" yMin="0" xMax="1376" yMax="1462">
      <contour>
        <pt x="201" y="1462" on="1"/>
        <pt x="373" y="1462" on="1"/>
        <pt x="373" y="659" on="1"/>
        <pt x="373" y="574" on="0"/>
        <pt x="363" y="294" on="0"/>
        <pt x="358" y="252" on="1"/>
        <pt x="367" y="252" on="1"/>
        <pt x="1171" y="1462" on="1"/>
        <pt x="1376" y="1462" on="1"/>
        <pt x="1376" y="0" on="1"/>
        <pt x="1204" y="0" on="1"/>
        <pt x="1204" y="795" on="1"/>
        <pt x="1204" y="899" on="0"/>
        <pt x="1218" y="1176" on="0"/>
        <pt x="1221" y="1217" on="1"/>
        <pt x="1212" y="1217" on="1"/>
        <pt x="406" y="0" on="1"/>
        <pt x="201" y="0" on="1"/>
      </contour>
    </TTGlyph>
    <TTGlyph name="afii10027" xMin="201" yMin="0" xMax="1376" yMax="1890">
      <component glyphName="afii10026" x="0" y="0" flags="0x204"/>
      <component glyphName="glyph00566" x="227" y="338" flags="0x4"/>
    </TTGlyph>
    <TTGlyph name="afii10028" xMin="199" yMin="0" xMax="1266" yMax="1462">
      <contour>
        <pt x="1266" y="0" on="1"/>
        <pt x="1044" y="0" on="1"/>
        <pt x="383" y="741" on="1"/>
        <pt x="383" y="0" on="1"/>
        <pt x="199" y="0" on="1"/>
        <pt x="199" y="1462" on="1"/>
        <pt x="383" y="1462" on="1"/>
        <pt x="383" y="754" on="1"/>
        <pt x="1028" y="1462" on="1"/>
        <pt x="1237" y="1462" on="1"/>
        <pt x="602" y="752" on="1"/>
      </contour>
    </TTGlyph>
    <TTGlyph name="afii10029" xMin="2" yMin="-23" xMax="1251" yMax="1462">
      <contour>
        <pt x="1251" y="0" on="1"/>
        <pt x="1067" y="0" on="1"/>
        <pt x="1067" y="1300" on="1"/>
        <pt x="604" y="1300" on="1"/>
        <pt x="573" y="1062" on="1"/>
        <pt x="510" y="570" on="0"/>
        <pt x="416" y="144" on="0"/>
        <pt x="265" y="-23" on="0"/>
        <pt x="135" y="-23" on="1"/>
        <pt x="61" y="-23" on="0"/>
        <pt x="2" y="2" on="1"/>
        <pt x="2" y="156" on="1"/>
        <pt x="54" y="131" on="0"/>
        <pt x="115" y="131" on="1"/>
        <pt x="194" y="131" on="0"/>
        <pt x="287" y="330" on="0"/>
        <pt x="396" y="1032" on="0"/>
        <pt x="451" y="1462" on="1"/>
        <pt x="1251" y="1462" on="1"/>
      </contour>
    </TTGlyph>
    <TTGlyph name="afii10030" xMin="199" yMin="0" xMax="1659" yMax="1462">
      <component glyphName="M" x="0" y="0" flags="0x204"/>
    </TTGlyph>
    <TTGlyph name="afii10031" xMin="199" yMin="0" xMax="1317" yMax="1462">
      <component glyphName="H" x="0" y="0" flags="0x204"/>
    </TTGlyph>
    <TTGlyph name="afii10032" xMin="125" yMin="-20" xMax="1475" yMax="1485">
      <component glyphName="O" x="0" y="0" flags="0x204"/>
    </TTGlyph>
    <TTGlyph name="afii10033" xMin="199" yMin="0" xMax="1296" yMax="1462">
      <component glyphName="Pi" x="0" y="0" flags="0x204"/>
    </TTGlyph>
    <TTGlyph name="afii10034" xMin="199" yMin="0" xMax="1135" yMax="1462">
      <component glyphName="P" x="0" y="0" flags="0x204"/>
    </TTGlyph>
    <TTGlyph name="afii10035" xMin="125" yMin="-20" xMax="1231" yMax="1483">
      <component glyphName="C" x="0" y="0" flags="0x204"/>
    </TTGlyph>
    <TTGlyph name="afii10036" xMin="20" yMin="0" xMax="1116" yMax="1462">
      <component glyphName="T" x="0" y="0" flags="0x204"/>
    </TTGlyph>
    <TTGlyph name="afii10037" xMin="23" yMin="-20" xMax="1278" yMax="1462">
      <contour>
        <pt x="293" y="-20" on="1"/>
        <pt x="180" y="-20" on="0"/>
        <pt x="94" y="10" on="1"/>
        <pt x="94" y="184" on="1"/>
        <pt x="185" y="143" on="0"/>
        <pt x="287" y="143" on="1"/>
        <pt x="394" y="143" on="0"/>
        <pt x="525" y="243" on="0"/>
        <pt x="586" y="375" on="1"/>
        <pt x="23" y="1462" on="1"/>
        <pt x="225" y="1462" on="1"/>
        <pt x="643" y="649" on="1"/>
        <pt x="668" y="602" on="0"/>
        <pt x="686" y="545" on="1"/>
        <pt x="694" y="545" on="1"/>
        <pt x="702" y="569" on="1"/>
        <pt x="733" y="651" on="1"/>
        <pt x="1083" y="1462" on="1"/>
        <pt x="1278" y="1462" on="1"/>
        <pt x="811" y="416" on="1"/>
        <pt x="728" y="230" on="0"/>
        <pt x="592" y="60" on="0"/>
        <pt x="417" y="-20" on="0"/>
      </contour>
    </TTGlyph>
    <TTGlyph name="afii10038" xMin="104" yMin="-20" xMax="1540" yMax="1483">
      <component glyphName="Phi" x="0" y="0" flags="0x204"/>
    </TTGlyph>
    <TTGlyph name="afii10039" xMin="8" yMin="0" xMax="1192" yMax="1462">
      <component glyphName="X" x="0" y="0" flags="0x204"/>
    </TTGlyph>
    <TTGlyph name="afii10040" xMin="199" yMin="-385" xMax="1475" yMax="1462">
      <contour>
        <pt x="1296" y="162" on="1"/>
        <pt x="1475" y="162" on="1"/>
        <pt x="1475" y="-385" on="1"/>
        <pt x="1298" y="-385" on="1"/>
        <pt x="1298" y="0" on="1"/>
        <pt x="199" y="0" on="1"/>
        <pt x="199" y="1462" on="1"/>
        <pt x="383" y="1462" on="1"/>
        <pt x="383" y="164" on="1"/>
        <pt x="1114" y="164" on="1"/>
        <pt x="1114" y="1462" on="1"/>
        <pt x="1296" y="1462" on="1"/>
      </contour>
    </TTGlyph>
    <TTGlyph name="afii10041" xMin="164" yMin="0" xMax="1231" yMax="1462">
      <contour>
        <pt x="1231" y="0" on="1"/>
        <pt x="1047" y="0" on="1"/>
        <pt x="1047" y="600" on="1"/>
        <pt x="898" y="547" on="0"/>
        <pt x="698" y="508" on="0"/>
        <pt x="594" y="508" on="1"/>
        <pt x="386" y="508" on="0"/>
        <pt x="164" y="701" on="0"/>
        <pt x="164" y="879" on="1"/>
        <pt x="164" y="1462" on="1"/>
        <pt x="348" y="1462" on="1"/>
        <pt x="348" y="905" on="1"/>
        <pt x="348" y="787" on="0"/>
        <pt x="472" y="670" on="0"/>
        <pt x="612" y="670" on="1"/>
        <pt x="707" y="670" on="0"/>
        <pt x="884" y="700" on="0"/>
        <pt x="1047" y="754" on="1"/>
        <pt x="1047" y="1462" on="1"/>
        <pt x="1231" y="1462" on="1"/>
      </contour>
    </TTGlyph>
    <TTGlyph name="afii10042" xMin="199" yMin="0" xMax="1923" yMax="1462">
      <contour>
        <pt x="1923" y="0" on="1"/>
        <pt x="199" y="0" on="1"/>
        <pt x="199" y="1462" on="1"/>
        <pt x="383" y="1462" on="1"/>
        <pt x="383" y="164" on="1"/>
        <pt x="967" y="164" on="1"/>
        <pt x="967" y="1462" on="1"/>
        <pt x="1151" y="1462" on="1"/>
        <pt x="1151" y="164" on="1"/>
        <pt x="1737" y="164" on="1"/>
        <pt x="1737" y="1462" on="1"/>
        <pt x="1923" y="1462" on="1"/>
      </contour>
    </TTGlyph>
    <TTGlyph name="afii10043" xMin="199" yMin="-385" xMax="2071" yMax="1462">
      <contour>
        <pt x="199" y="0" on="1"/>
        <pt x="199" y="1462" on="1"/>
        <pt x="383" y="1462" on="1"/>
        <pt x="383" y="164" on="1"/>
        <pt x="952" y="164" on="1"/>
        <pt x="952" y="1462" on="1"/>
        <pt x="1139" y="1462" on="1"/>
        <pt x="1139" y="164" on="1"/>
        <pt x="1710" y="164" on="1"/>
        <pt x="1710" y="1462" on="1"/>
        <pt x="1894" y="1462" on="1"/>
        <pt x="1894" y="162" on="1"/>
        <pt x="2071" y="162" on="1"/>
        <pt x="2071" y="-385" on="1"/>
        <pt x="1894" y="-385" on="1"/>
        <pt x="1894" y="0" on="1"/>
      </contour>
    </TTGlyph>
    <TTGlyph name="afii10044" xMin="16" yMin="0" xMax="1313" yMax="1462">
      <contour>
        <pt x="1313" y="428" on="1"/>
        <pt x="1313" y="220" on="0"/>
        <pt x="1048" y="0" on="0"/>
        <pt x="795" y="0" on="1"/>
        <pt x="356" y="0" on="1"/>
        <pt x="356" y="1300" on="1"/>
        <pt x="16" y="1300" on="1"/>
        <pt x="16" y="1462" on="1"/>
        <pt x="539" y="1462" on="1"/>
        <pt x="539" y="844" on="1"/>
        <pt x="770" y="844" on="1"/>
        <pt x="1036" y="844" on="0"/>
        <pt x="1313" y="635" on="0"/>
      </contour>
      <contour>
        <pt x="539" y="158" on="1"/>
        <pt x="776" y="158" on="1"/>
        <pt x="954" y="158" on="0"/>
        <pt x="1122" y="291" on="0"/>
        <pt x="1122" y="428" on="1"/>
        <pt x="1122" y="562" on="0"/>
        <pt x="947" y="684" on="0"/>
        <pt x="748" y="684" on="1"/>
        <pt x="539" y="684" on="1"/>
      </contour>
    </TTGlyph>
    <TTGlyph name="afii10045" xMin="199" yMin="0" xMax="1559" yMax="1462">
      <contour>
        <pt x="1149" y="428" on="1"/>
        <pt x="1149" y="221" on="0"/>
        <pt x="886" y="0" on="0"/>
        <pt x="631" y="0" on="1"/>
        <pt x="199" y="0" on="1"/>
        <pt x="199" y="1462" on="1"/>
        <pt x="383" y="1462" on="1"/>
        <pt x="383" y="844" on="1"/>
        <pt x="608" y="844" on="1"/>
        <pt x="873" y="844" on="0"/>
        <pt x="1149" y="634" on="0"/>
      </contour>
      <contour>
        <pt x="383" y="156" on="1"/>
        <pt x="614" y="156" on="1"/>
        <pt x="792" y="156" on="0"/>
        <pt x="958" y="291" on="0"/>
        <pt x="958" y="428" on="1"/>
        <pt x="958" y="562" on="0"/>
        <pt x="786" y="682" on="0"/>
        <pt x="588" y="682" on="1"/>
        <pt x="383" y="682" on="1"/>
      </contour>
      <contour>
        <pt x="1559" y="0" on="1"/>
        <pt x="1374" y="0" on="1"/>
        <pt x="1374" y="1462" on="1"/>
        <pt x="1559" y="1462" on="1"/>
      </contour>
    </TTGlyph>
    <TTGlyph name="afii10046" xMin="199" yMin="0" xMax="1210" yMax="1462">
      <contour>
        <pt x="1210" y="428" on="1"/>
        <pt x="1210" y="222" on="0"/>
        <pt x="934" y="0" on="0"/>
        <pt x="680" y="0" on="1"/>
        <pt x="199" y="0" on="1"/>
        <pt x="199" y="1462" on="1"/>
        <pt x="383" y="1462" on="1"/>
        <pt x="383" y="844" on="1"/>
        <pt x="657" y="844" on="1"/>
        <pt x="926" y="844" on="0"/>
        <pt x="1210" y="631" on="0"/>
      </contour>
      <contour>
        <pt x="383" y="158" on="1"/>
        <pt x="662" y="158" on="1"/>
        <pt x="1020" y="158" on="0"/>
        <pt x="1020" y="428" on="1"/>
        <pt x="1020" y="561" on="0"/>
        <pt x="837" y="684" on="0"/>
        <pt x="635" y="684" on="1"/>
        <pt x="383" y="684" on="1"/>
      </contour>
    </TTGlyph>
    <TTGlyph name="afii10047" xMin="61" yMin="-20" xMax="1169" yMax="1483">
      <contour>
        <pt x="475" y="1321" on="1"/>
        <pt x="308" y="1321" on="0"/>
        <pt x="137" y="1243" on="1"/>
        <pt x="61" y="1397" on="1"/>
        <pt x="235" y="1483" on="0"/>
        <pt x="477" y="1483" on="1"/>
        <pt x="694" y="1483" on="0"/>
        <pt x="1007" y="1307" on="0"/>
        <pt x="1169" y="981" on="0"/>
        <pt x="1169" y="756" on="1"/>
        <pt x="1169" y="382" on="0"/>
        <pt x="804" y="-20" on="0"/>
        <pt x="463" y="-20" on="1"/>
        <pt x="350" y="-20" on="0"/>
        <pt x="175" y="4" on="0"/>
        <pt x="74" y="39" on="1"/>
        <pt x="74" y="199" on="1"/>
        <pt x="160" y="176" on="0"/>
        <pt x="335" y="141" on="0"/>
        <pt x="434" y="141" on="1"/>
        <pt x="698" y="141" on="0"/>
        <pt x="967" y="421" on="0"/>
        <pt x="975" y="684" on="1"/>
        <pt x="264" y="684" on="1"/>
        <pt x="264" y="846" on="1"/>
        <pt x="973" y="846" on="1"/>
        <pt x="953" y="1068" on="0"/>
        <pt x="690" y="1321" on="0"/>
      </contour>
    </TTGlyph>
    <TTGlyph name="afii10048" xMin="199" yMin="-20" xMax="2028" yMax="1485">
      <contour>
        <pt x="2028" y="733" on="1"/>
        <pt x="2028" y="379" on="0"/>
        <pt x="1688" y="-20" on="0"/>
        <pt x="1382" y="-20" on="1"/>
        <pt x="1082" y="-20" on="0"/>
        <pt x="741" y="346" on="0"/>
        <pt x="729" y="682" on="1"/>
        <pt x="383" y="682" on="1"/>
        <pt x="383" y="0" on="1"/>
        <pt x="199" y="0" on="1"/>
        <pt x="199" y="1462" on="1"/>
        <pt x="383" y="1462" on="1"/>
        <pt x="383" y="844" on="1"/>
        <pt x="733" y="844" on="1"/>
        <pt x="756" y="1153" on="0"/>
        <pt x="1092" y="1485" on="0"/>
        <pt x="1378" y="1485" on="1"/>
        <pt x="1684" y="1485" on="0"/>
        <pt x="2028" y="1087" on="0"/>
      </contour>
      <contour>
        <pt x="922" y="733" on="1"/>
        <pt x="922" y="443" on="0"/>
        <pt x="1151" y="139" on="0"/>
        <pt x="1376" y="139" on="1"/>
        <pt x="1602" y="139" on="0"/>
        <pt x="1835" y="439" on="0"/>
        <pt x="1835" y="733" on="1"/>
        <pt x="1835" y="1026" on="0"/>
        <pt x="1606" y="1323" on="0"/>
        <pt x="1380" y="1323" on="1"/>
        <pt x="1153" y="1323" on="0"/>
        <pt x="922" y="1022" on="0"/>
      </contour>
    </TTGlyph>
    <TTGlyph name="afii10049" xMin="45" yMin="0" xMax="1110" yMax="1462">
      <contour>
        <pt x="639" y="606" on="1"/>
        <pt x="260" y="0" on="1"/>
        <pt x="45" y="0" on="1"/>
        <pt x="455" y="639" on="1"/>
        <pt x="300" y="689" on="0"/>
        <pt x="154" y="895" on="0"/>
        <pt x="154" y="1053" on="1"/>
        <pt x="154" y="1251" on="0"/>
        <pt x="427" y="1462" on="0"/>
        <pt x="700" y="1462" on="1"/>
        <pt x="1110" y="1462" on="1"/>
        <pt x="1110" y="0" on="1"/>
        <pt x="926" y="0" on="1"/>
        <pt x="926" y="606" on="1"/>
      </contour>
      <contour>
        <pt x="926" y="1305" on="1"/>
        <pt x="705" y="1305" on="1"/>
        <pt x="522" y="1305" on="0"/>
        <pt x="344" y="1177" on="0"/>
        <pt x="344" y="1044" on="1"/>
        <pt x="344" y="762" on="0"/>
        <pt x="713" y="762" on="1"/>
        <pt x="926" y="762" on="1"/>
      </contour>
    </TTGlyph>
    <TTGlyph name="afii10050" xMin="199" yMin="0" xMax="1042" yMax="1763">
      <contour>
        <pt x="870" y="1462" on="1"/>
        <pt x="870" y="1763" on="1"/>
        <pt x="1042" y="1763" on="1"/>
        <pt x="1042" y="1298" on="1"/>
        <pt x="383" y="1298" on="1"/>
        <pt x="383" y="0" on="1"/>
        <pt x="199" y="0" on="1"/>
        <pt x="199" y="1462" on="1"/>
      </contour>
    </TTGlyph>
    <TTGlyph name="afii10051" xMin="20" yMin="-20" xMax="1364" yMax="1462">
      <contour>
        <pt x="991" y="-20" on="1"/>
        <pt x="888" y="-20" on="0"/>
        <pt x="836" y="4" on="1"/>
        <pt x="836" y="164" on="1"/>
        <pt x="895" y="143" on="0"/>
        <pt x="983" y="143" on="1"/>
        <pt x="1082" y="143" on="0"/>
        <pt x="1182" y="261" on="0"/>
        <pt x="1182" y="371" on="1"/>
        <pt x="1182" y="502" on="1"/>
        <pt x="1182" y="626" on="0"/>
        <pt x="1055" y="735" on="0"/>
        <pt x="920" y="735" on="1"/>
        <pt x="543" y="735" on="1"/>
        <pt x="543" y="0" on="1"/>
        <pt x="360" y="0" on="1"/>
        <pt x="360" y="1300" on="1"/>
        <pt x="20" y="1300" on="1"/>
        <pt x="20" y="1462" on="1"/>
        <pt x="987" y="1462" on="1"/>
        <pt x="987" y="1300" on="1"/>
        <pt x="543" y="1300" on="1"/>
        <pt x="543" y="897" on="1"/>
        <pt x="934" y="897" on="1"/>
        <pt x="1142" y="897" on="0"/>
        <pt x="1364" y="704" on="0"/>
        <pt x="1364" y="526" on="1"/>
        <pt x="1364" y="383" on="1"/>
        <pt x="1364" y="193" on="0"/>
        <pt x="1167" y="-20" on="0"/>
      </contour>
    </TTGlyph>
    <TTGlyph name="afii10052" xMin="199" yMin="0" xMax="1024" yMax="1907">
      <component glyphName="Gamma" x="0" y="0" flags="0x204"/>
      <component glyphName="acute" x="94" y="338" flags="0x4"/>
    </TTGlyph>
    <TTGlyph name="afii10053" xMin="125" yMin="-20" xMax="1257" yMax="1485">
      <contour>
        <pt x="834" y="1321" on="1"/>
        <pt x="614" y="1321" on="0"/>
        <pt x="350" y="1076" on="0"/>
        <pt x="324" y="842" on="1"/>
        <pt x="1036" y="842" on="1"/>
        <pt x="1036" y="682" on="1"/>
        <pt x="319" y="682" on="1"/>
        <pt x="331" y="415" on="0"/>
        <pt x="592" y="141" on="0"/>
        <pt x="834" y="141" on="1"/>
        <pt x="998" y="141" on="0"/>
        <pt x="1200" y="199" on="1"/>
        <pt x="1200" y="39" on="1"/>
        <pt x="1042" y="-20" on="0"/>
        <pt x="809" y="-20" on="1"/>
        <pt x="476" y="-20" on="0"/>
        <pt x="125" y="368" on="0"/>
        <pt x="125" y="733" on="1"/>
        <pt x="125" y="1082" on="0"/>
        <pt x="501" y="1485" on="0"/>
        <pt x="838" y="1485" on="1"/>
        <pt x="1073" y="1485" on="0"/>
        <pt x="1257" y="1395" on="1"/>
        <pt x="1182" y="1237" on="1"/>
        <pt x="1007" y="1321" on="0"/>
      </contour>
    </TTGlyph>
    <TTGlyph name="afii10054" xMin="104" yMin="-20" xMax="1028" yMax="1483">
      <component glyphName="S" x="0" y="0" flags="0x204"/>
    </TTGlyph>
    <TTGlyph name="afii10055" xMin="82" yMin="0" xMax="610" yMax="1462">
      <component glyphName="I" x="0" y="0" flags="0x204"/>
    </TTGlyph>
    <TTGlyph name="afii10056" xMin="60" yMin="0" xMax="636" yMax="1833">
      <component glyphName="I" x="0" y="0" flags="0x204"/>
      <component glyphName="dieresis" x="-245" y="338" flags="0x4"/>
    </TTGlyph>
    <TTGlyph name="afii10057" xMin="-160" yMin="-389" xMax="373" yMax="1462">
      <component glyphName="J" x="0" y="0" flags="0x204"/>
    </TTGlyph>
    <TTGlyph name="afii10058" xMin="2" yMin="-23" xMax="1839" yMax="1462">
      <contour>
        <pt x="1839" y="428" on="1"/>
        <pt x="1839" y="221" on="0"/>
        <pt x="1563" y="0" on="0"/>
        <pt x="1300" y="0" on="1"/>
        <pt x="965" y="0" on="1"/>
        <pt x="965" y="1300" on="1"/>
        <pt x="608" y="1300" on="1"/>
        <pt x="552" y="875" on="0"/>
        <pt x="467" y="347" on="0"/>
        <pt x="384" y="94" on="0"/>
        <pt x="244" y="-23" on="0"/>
        <pt x="135" y="-23" on="1"/>
        <pt x="66" y="-23" on="0"/>
        <pt x="2" y="2" on="1"/>
        <pt x="2" y="156" on="1"/>
        <pt x="54" y="131" on="0"/>
        <pt x="115" y="131" on="1"/>
        <pt x="173" y="131" on="0"/>
        <pt x="254" y="239" on="0"/>
        <pt x="310" y="481" on="0"/>
        <pt x="381" y="934" on="0"/>
        <pt x="453" y="1462" on="1"/>
        <pt x="1149" y="1462" on="1"/>
        <pt x="1149" y="844" on="1"/>
        <pt x="1270" y="844" on="1"/>
        <pt x="1550" y="844" on="0"/>
        <pt x="1839" y="637" on="0"/>
      </contour>
      <contour>
        <pt x="1149" y="158" on="1"/>
        <pt x="1278" y="158" on="1"/>
        <pt x="1468" y="158" on="0"/>
        <pt x="1649" y="291" on="0"/>
        <pt x="1649" y="428" on="1"/>
        <pt x="1649" y="562" on="0"/>
        <pt x="1463" y="684" on="0"/>
        <pt x="1247" y="684" on="1"/>
        <pt x="1149" y="684" on="1"/>
      </contour>
    </TTGlyph>
    <TTGlyph name="afii10059" xMin="199" yMin="0" xMax="1884" yMax="1462">
      <contour>
        <pt x="1884" y="428" on="1"/>
        <pt x="1884" y="219" on="0"/>
        <pt x="1607" y="0" on="0"/>
        <pt x="1348" y="0" on="1"/>
        <pt x="1010" y="0" on="1"/>
        <pt x="1010" y="682" on="1"/>
        <pt x="383" y="682" on="1"/>
        <pt x="383" y="0" on="1"/>
        <pt x="199" y="0" on="1"/>
        <pt x="199" y="1462" on="1"/>
        <pt x="383" y="1462" on="1"/>
        <pt x="383" y="844" on="1"/>
        <pt x="1010" y="844" on="1"/>
        <pt x="1010" y="1462" on="1"/>
        <pt x="1196" y="1462" on="1"/>
        <pt x="1196" y="844" on="1"/>
        <pt x="1315" y="844" on="1"/>
        <pt x="1595" y="844" on="0"/>
        <pt x="1884" y="637" on="0"/>
      </contour>
      <contour>
        <pt x="1196" y="158" on="1"/>
        <pt x="1325" y="158" on="1"/>
        <pt x="1515" y="158" on="0"/>
        <pt x="1694" y="291" on="0"/>
        <pt x="1694" y="428" on="1"/>
        <pt x="1694" y="562" on="0"/>
        <pt x="1508" y="684" on="0"/>
        <pt x="1294" y="684" on="1"/>
        <pt x="1196" y="684" on="1"/>
      </contour>
    </TTGlyph>
    <TTGlyph name="afii10060" xMin="20" yMin="0" xMax="1364" yMax="1462">
      <contour>
        <pt x="543" y="895" on="1"/>
        <pt x="940" y="895" on="1"/>
        <pt x="1145" y="895" on="0"/>
        <pt x="1364" y="707" on="0"/>
        <pt x="1364" y="524" on="1"/>
        <pt x="1364" y="0" on="1"/>
        <pt x="1180" y="0" on="1"/>
        <pt x="1180" y="502" on="1"/>
        <pt x="1180" y="625" on="0"/>
        <pt x="1061" y="733" on="0"/>
        <pt x="928" y="733" on="1"/>
        <pt x="543" y="733" on="1"/>
        <pt x="543" y="0" on="1"/>
        <pt x="358" y="0" on="1"/>
        <pt x="358" y="1298" on="1"/>
        <pt x="20" y="1298" on="1"/>
        <pt x="20" y="1462" on="1"/>
        <pt x="1044" y="1462" on="1"/>
        <pt x="1044" y="1298" on="1"/>
        <pt x="543" y="1298" on="1"/>
      </contour>
    </TTGlyph>
    <TTGlyph name="afii10061" xMin="199" yMin="0" xMax="1266" yMax="1907">
      <component glyphName="afii10028" x="0" y="0" flags="0x204"/>
      <component glyphName="acute" x="170" y="338" flags="0x4"/>
    </TTGlyph>
    <TTGlyph name="afii10062" xMin="23" yMin="-20" xMax="1278" yMax="1890">
      <component glyphName="afii10037" x="0" y="0" flags="0x204"/>
      <component glyphName="glyph00566" x="70" y="338" flags="0x4"/>
    </TTGlyph>
    <TTGlyph name="afii10065" xMin="94" yMin="-20" xMax="983" yMax="1116">
      <component glyphName="a" x="0" y="0" flags="0x204"/>
    </TTGlyph>
    <TTGlyph name="afii10066" xMin="117" yMin="-20" xMax="1116" yMax="1567">
      <contour>
        <pt x="117" y="659" on="1"/>
        <pt x="117" y="1026" on="0"/>
        <pt x="338" y="1423" on="0"/>
        <pt x="575" y="1475" on="1"/>
        <pt x="798" y="1520" on="0"/>
        <pt x="1073" y="1567" on="1"/>
        <pt x="1104" y="1409" on="1"/>
        <pt x="985" y="1390" on="1"/>
        <pt x="753" y="1352" on="0"/>
        <pt x="612" y="1323" on="1"/>
        <pt x="468" y="1291" on="0"/>
        <pt x="323" y="1062" on="0"/>
        <pt x="313" y="844" on="1"/>
        <pt x="326" y="844" on="1"/>
        <pt x="384" y="925" on="0"/>
        <pt x="577" y="1022" on="0"/>
        <pt x="686" y="1022" on="1"/>
        <pt x="888" y="1022" on="0"/>
        <pt x="1116" y="762" on="0"/>
        <pt x="1116" y="528" on="1"/>
        <pt x="1116" y="267" on="0"/>
        <pt x="850" y="-20" on="0"/>
        <pt x="614" y="-20" on="1"/>
        <pt x="380" y="-20" on="0"/>
        <pt x="117" y="338" on="0"/>
      </contour>
      <contour>
        <pt x="629" y="129" on="1"/>
        <pt x="926" y="129" on="0"/>
        <pt x="926" y="510" on="1"/>
        <pt x="926" y="872" on="0"/>
        <pt x="657" y="872" on="1"/>
        <pt x="584" y="872" on="0"/>
        <pt x="447" y="812" on="0"/>
        <pt x="336" y="714" on="0"/>
        <pt x="301" y="655" on="1"/>
        <pt x="301" y="129" on="0"/>
      </contour>
    </TTGlyph>
    <TTGlyph name="afii10067" xMin="174" yMin="0" xMax="1112" yMax="1098">
      <contour>
        <pt x="1077" y="821" on="1"/>
        <pt x="1077" y="715" on="0"/>
        <pt x="957" y="604" on="0"/>
        <pt x="846" y="584" on="1"/>
        <pt x="846" y="575" on="1"/>
        <pt x="985" y="556" on="0"/>
        <pt x="1112" y="429" on="0"/>
        <pt x="1112" y="322" on="1"/>
        <pt x="1112" y="166" on="0"/>
        <pt x="883" y="0" on="0"/>
        <pt x="668" y="0" on="1"/>
        <pt x="174" y="0" on="1"/>
        <pt x="174" y="1098" on="1"/>
        <pt x="666" y="1098" on="1"/>
        <pt x="1077" y="1098" on="0"/>
      </contour>
      <contour>
        <pt x="932" y="332" on="1"/>
        <pt x="932" y="424" on="0"/>
        <pt x="788" y="498" on="0"/>
        <pt x="649" y="498" on="1"/>
        <pt x="354" y="498" on="1"/>
        <pt x="354" y="145" on="1"/>
        <pt x="653" y="145" on="1"/>
        <pt x="932" y="145" on="0"/>
      </contour>
      <contour>
        <pt x="901" y="805" on="1"/>
        <pt x="901" y="882" on="0"/>
        <pt x="782" y="948" on="0"/>
        <pt x="662" y="948" on="1"/>
        <pt x="354" y="948" on="1"/>
        <pt x="354" y="647" on="1"/>
        <pt x="629" y="647" on="1"/>
        <pt x="776" y="647" on="0"/>
        <pt x="901" y="720" on="0"/>
      </contour>
    </TTGlyph>
    <TTGlyph name="afii10068" xMin="174" yMin="0" xMax="844" yMax="1098">
      <contour>
        <pt x="844" y="946" on="1"/>
        <pt x="354" y="946" on="1"/>
        <pt x="354" y="0" on="1"/>
        <pt x="174" y="0" on="1"/>
        <pt x="174" y="1098" on="1"/>
        <pt x="844" y="1098" on="1"/>
      </contour>
    </TTGlyph>
    <TTGlyph name="afii10069" xMin="39" yMin="-381" xMax="1149" yMax="1098">
      <contour>
        <pt x="1149" y="-381" on="1"/>
        <pt x="975" y="-381" on="1"/>
        <pt x="975" y="0" on="1"/>
        <pt x="211" y="0" on="1"/>
        <pt x="211" y="-381" on="1"/>
        <pt x="39" y="-381" on="1"/>
        <pt x="39" y="152" on="1"/>
        <pt x="127" y="152" on="1"/>
        <pt x="260" y="337" on="0"/>
        <pt x="408" y="824" on="0"/>
        <pt x="412" y="1098" on="1"/>
        <pt x="989" y="1098" on="1"/>
        <pt x="989" y="152" on="1"/>
        <pt x="1149" y="152" on="1"/>
      </contour>
      <contour>
        <pt x="815" y="152" on="1"/>
        <pt x="815" y="956" on="1"/>
        <pt x="571" y="956" on="1"/>
        <pt x="556" y="735" on="0"/>
        <pt x="415" y="290" on="0"/>
        <pt x="313" y="152" on="1"/>
      </contour>
    </TTGlyph>
    <TTGlyph name="afii10070" xMin="113" yMin="-20" xMax="1051" yMax="1118">
      <component glyphName="e" x="0" y="0" flags="0x204"/>
    </TTGlyph>
    <TTGlyph name="afii10071" xMin="113" yMin="-20" xMax="1051" yMax="1495">
      <component glyphName="e" x="0" y="0" flags="0x204"/>
      <component glyphName="dieresis" x="6" y="0" flags="0x4"/>
    </TTGlyph>
    <TTGlyph name="afii10072" xMin="2" yMin="0" xMax="1530" yMax="1098">
      <contour>
        <pt x="682" y="1098" on="1"/>
        <pt x="850" y="1098" on="1"/>
        <pt x="850" y="565" on="1"/>
        <pt x="1296" y="1098" on="1"/>
        <pt x="1491" y="1098" on="1"/>
        <pt x="1038" y="565" on="1"/>
        <pt x="1530" y="0" on="1"/>
        <pt x="1325" y="0" on="1"/>
        <pt x="850" y="557" on="1"/>
        <pt x="850" y="0" on="1"/>
        <pt x="682" y="0" on="1"/>
        <pt x="682" y="557" on="1"/>
        <pt x="207" y="0" on="1"/>
        <pt x="2" y="0" on="1"/>
        <pt x="494" y="565" on="1"/>
        <pt x="184" y="933" on="0"/>
        <pt x="41" y="1098" on="1"/>
        <pt x="238" y="1098" on="1"/>
        <pt x="682" y="565" on="1"/>
      </contour>
    </TTGlyph>
    <TTGlyph name="afii10073" xMin="68" yMin="-20" xMax="911" yMax="1118">
      <contour>
        <pt x="391" y="645" on="1"/>
        <pt x="702" y="645" on="0"/>
        <pt x="702" y="813" on="1"/>
        <pt x="702" y="969" on="0"/>
        <pt x="453" y="969" on="1"/>
        <pt x="374" y="969" on="0"/>
        <pt x="238" y="939" on="0"/>
        <pt x="143" y="899" on="1"/>
        <pt x="80" y="1042" on="1"/>
        <pt x="251" y="1118" on="0"/>
        <pt x="463" y="1118" on="1"/>
        <pt x="656" y="1118" on="0"/>
        <pt x="874" y="964" on="0"/>
        <pt x="874" y="829" on="1"/>
        <pt x="874" y="642" on="0"/>
        <pt x="668" y="586" on="1"/>
        <pt x="668" y="578" on="1"/>
        <pt x="793" y="542" on="0"/>
        <pt x="911" y="406" on="0"/>
        <pt x="911" y="303" on="1"/>
        <pt x="911" y="152" on="0"/>
        <pt x="661" y="-20" on="0"/>
        <pt x="442" y="-20" on="1"/>
        <pt x="200" y="-20" on="0"/>
        <pt x="68" y="51" on="1"/>
        <pt x="68" y="213" on="1"/>
        <pt x="251" y="127" on="0"/>
        <pt x="440" y="127" on="1"/>
        <pt x="581" y="127" on="0"/>
        <pt x="733" y="221" on="0"/>
        <pt x="733" y="313" on="1"/>
        <pt x="733" y="407" on="0"/>
        <pt x="579" y="498" on="0"/>
        <pt x="420" y="498" on="1"/>
        <pt x="272" y="498" on="1"/>
        <pt x="272" y="645" on="1"/>
      </contour>
    </TTGlyph>
    <TTGlyph name="afii10074" xMin="174" yMin="0" xMax="1141" yMax="1098">
      <contour>
        <pt x="344" y="1098" on="1"/>
        <pt x="344" y="428" on="1"/>
        <pt x="336" y="234" on="1"/>
        <pt x="332" y="178" on="1"/>
        <pt x="920" y="1098" on="1"/>
        <pt x="1141" y="1098" on="1"/>
        <pt x="1141" y="0" on="1"/>
        <pt x="973" y="0" on="1"/>
        <pt x="973" y="647" on="1"/>
        <pt x="976" y="786" on="1"/>
        <pt x="981" y="918" on="1"/>
        <pt x="397" y="0" on="1"/>
        <pt x="174" y="0" on="1"/>
        <pt x="174" y="1098" on="1"/>
      </contour>
    </TTGlyph>
    <TTGlyph name="afii10075" xMin="174" yMin="0" xMax="1141" yMax="1552">
      <component glyphName="afii10074" x="0" y="0" flags="0x204"/>
      <component glyphName="glyph00566" x="70" y="0" flags="0x4"/>
    </TTGlyph>
    <TTGlyph name="afii10076" xMin="174" yMin="0" xMax="1059" yMax="1098">
      <contour>
        <pt x="823" y="1098" on="1"/>
        <pt x="1020" y="1098" on="1"/>
        <pt x="551" y="569" on="1"/>
        <pt x="1059" y="0" on="1"/>
        <pt x="850" y="0" on="1"/>
        <pt x="354" y="557" on="1"/>
        <pt x="354" y="0" on="1"/>
        <pt x="174" y="0" on="1"/>
        <pt x="174" y="1098" on="1"/>
        <pt x="354" y="1098" on="1"/>
        <pt x="354" y="565" on="1"/>
      </contour>
    </TTGlyph>
    <TTGlyph name="afii10077" xMin="14" yMin="-14" xMax="1010" yMax="1098">
      <contour>
        <pt x="1010" y="0" on="1"/>
        <pt x="827" y="0" on="1"/>
        <pt x="827" y="948" on="1"/>
        <pt x="504" y="948" on="1"/>
        <pt x="476" y="588" on="0"/>
        <pt x="381" y="177" on="0"/>
        <pt x="228" y="-14" on="0"/>
        <pt x="109" y="-14" on="1"/>
        <pt x="44" y="-14" on="0"/>
        <pt x="14" y="0" on="1"/>
        <pt x="14" y="135" on="1"/>
        <pt x="35" y="127" on="0"/>
        <pt x="70" y="127" on="1"/>
        <pt x="180" y="127" on="0"/>
        <pt x="311" y="591" on="0"/>
        <pt x="348" y="1098" on="1"/>
        <pt x="1010" y="1098" on="1"/>
      </contour>
    </TTGlyph>
    <TTGlyph name="afii10078" xMin="174" yMin="0" xMax="1352" yMax="1098">
      <contour>
        <pt x="758" y="172" on="1"/>
        <pt x="788" y="281" on="0"/>
        <pt x="834" y="397" on="1"/>
        <pt x="1120" y="1098" on="1"/>
        <pt x="1352" y="1098" on="1"/>
        <pt x="1352" y="0" on="1"/>
        <pt x="1190" y="0" on="1"/>
        <pt x="1190" y="905" on="1"/>
        <pt x="1155" y="796" on="0"/>
        <pt x="1108" y="676" on="1"/>
        <pt x="834" y="0" on="1"/>
        <pt x="688" y="0" on="1"/>
        <pt x="414" y="680" on="1"/>
        <pt x="394" y="728" on="0"/>
        <pt x="355" y="842" on="0"/>
        <pt x="336" y="905" on="1"/>
        <pt x="336" y="0" on="1"/>
        <pt x="174" y="0" on="1"/>
        <pt x="174" y="1098" on="1"/>
        <pt x="399" y="1098" on="1"/>
        <pt x="676" y="424" on="1"/>
        <pt x="713" y="330" on="0"/>
      </contour>
    </TTGlyph>
    <TTGlyph name="afii10079" xMin="174" yMin="0" xMax="1130" yMax="1098">
      <contour>
        <pt x="354" y="1098" on="1"/>
        <pt x="354" y="641" on="1"/>
        <pt x="950" y="641" on="1"/>
        <pt x="950" y="1098" on="1"/>
        <pt x="1130" y="1098" on="1"/>
        <pt x="1130" y="0" on="1"/>
        <pt x="950" y="0" on="1"/>
        <pt x="950" y="489" on="1"/>
        <pt x="354" y="489" on="1"/>
        <pt x="354" y="0" on="1"/>
        <pt x="174" y="0" on="1"/>
        <pt x="174" y="1098" on="1"/>
      </contour>
    </TTGlyph>
    <TTGlyph name="afii10080" xMin="113" yMin="-20" xMax="1128" yMax="1118">
      <component glyphName="o" x="0" y="0" flags="0x204"/>
    </TTGlyph>
    <TTGlyph name="afii10081" xMin="174" yMin="0" xMax="1102" yMax="1098">
      <contour>
        <pt x="354" y="0" on="1"/>
        <pt x="174" y="0" on="1"/>
        <pt x="174" y="1098" on="1"/>
        <pt x="1102" y="1098" on="1"/>
        <pt x="1102" y="0" on="1"/>
        <pt x="922" y="0" on="1"/>
        <pt x="922" y="944" on="1"/>
        <pt x="354" y="944" on="1"/>
      </contour>
    </TTGlyph>
    <TTGlyph name="afii10082" xMin="174" yMin="-492" xMax="1147" yMax="1118">
      <component glyphName="p" x="0" y="0" flags="0x204"/>
    </TTGlyph>
    <TTGlyph name="afii10083" xMin="113" yMin="-20" xMax="915" yMax="1118">
      <component glyphName="c" x="0" y="0" flags="0x204"/>
    </TTGlyph>
    <TTGlyph name="afii10084" xMin="41" yMin="0" xMax="932" yMax="1098">
      <contour>
        <pt x="932" y="946" on="1"/>
        <pt x="573" y="946" on="1"/>
        <pt x="573" y="0" on="1"/>
        <pt x="395" y="0" on="1"/>
        <pt x="395" y="946" on="1"/>
        <pt x="41" y="946" on="1"/>
        <pt x="41" y="1098" on="1"/>
        <pt x="932" y="1098" on="1"/>
      </contour>
    </TTGlyph>
    <TTGlyph name="afii10085" xMin="2" yMin="-492" xMax="1044" yMax="1098">
      <component glyphName="y" x="0" y="0" flags="0x204"/>
    </TTGlyph>
    <TTGlyph name="afii10086" xMin="111" yMin="-492" xMax="1372" yMax="1556">
      <contour>
        <pt x="1372" y="549" on="1"/>
        <pt x="1372" y="304" on="0"/>
        <pt x="1085" y="4" on="0"/>
        <pt x="829" y="-16" on="1"/>
        <pt x="829" y="-492" on="1"/>
        <pt x="653" y="-492" on="1"/>
        <pt x="653" y="-16" on="1"/>
        <pt x="401" y="5" on="0"/>
        <pt x="111" y="305" on="0"/>
        <pt x="111" y="549" on="1"/>
        <pt x="111" y="799" on="0"/>
        <pt x="399" y="1094" on="0"/>
        <pt x="659" y="1114" on="1"/>
        <pt x="659" y="1556" on="1"/>
        <pt x="829" y="1556" on="1"/>
        <pt x="829" y="1114" on="1"/>
        <pt x="1082" y="1089" on="0"/>
        <pt x="1372" y="789" on="0"/>
      </contour>
      <contour>
        <pt x="299" y="549" on="1"/>
        <pt x="299" y="168" on="0"/>
        <pt x="659" y="131" on="1"/>
        <pt x="659" y="965" on="1"/>
        <pt x="471" y="946" on="0"/>
        <pt x="299" y="735" on="0"/>
      </contour>
      <contour>
        <pt x="1186" y="549" on="1"/>
        <pt x="1186" y="924" on="0"/>
        <pt x="829" y="963" on="1"/>
        <pt x="829" y="131" on="1"/>
        <pt x="1186" y="170" on="0"/>
      </contour>
    </TTGlyph>
    <TTGlyph name="afii10087" xMin="37" yMin="0" xMax="1047" yMax="1098">
      <component glyphName="x" x="0" y="0" flags="0x204"/>
    </TTGlyph>
    <TTGlyph name="afii10088" xMin="174" yMin="-381" xMax="1257" yMax="1098">
      <contour>
        <pt x="1257" y="-381" on="1"/>
        <pt x="1081" y="-381" on="1"/>
        <pt x="1081" y="0" on="1"/>
        <pt x="174" y="0" on="1"/>
        <pt x="174" y="1098" on="1"/>
        <pt x="354" y="1098" on="1"/>
        <pt x="354" y="152" on="1"/>
        <pt x="922" y="152" on="1"/>
        <pt x="922" y="1098" on="1"/>
        <pt x="1102" y="1098" on="1"/>
        <pt x="1102" y="150" on="1"/>
        <pt x="1257" y="150" on="1"/>
      </contour>
    </TTGlyph>
    <TTGlyph name="afii10089" xMin="152" yMin="0" xMax="1081" yMax="1098">
      <contour>
        <pt x="332" y="1098" on="1"/>
        <pt x="332" y="698" on="1"/>
        <pt x="332" y="510" on="0"/>
        <pt x="543" y="510" on="1"/>
        <pt x="635" y="510" on="0"/>
        <pt x="800" y="565" on="0"/>
        <pt x="901" y="627" on="1"/>
        <pt x="901" y="1098" on="1"/>
        <pt x="1081" y="1098" on="1"/>
        <pt x="1081" y="0" on="1"/>
        <pt x="901" y="0" on="1"/>
        <pt x="901" y="489" on="1"/>
        <pt x="791" y="418" on="0"/>
        <pt x="614" y="362" on="0"/>
        <pt x="506" y="362" on="1"/>
        <pt x="342" y="362" on="0"/>
        <pt x="152" y="534" on="0"/>
        <pt x="152" y="686" on="1"/>
        <pt x="152" y="1098" on="1"/>
      </contour>
    </TTGlyph>
    <TTGlyph name="afii10090" xMin="174" yMin="0" xMax="1663" yMax="1098">
      <contour>
        <pt x="1008" y="152" on="1"/>
        <pt x="1483" y="152" on="1"/>
        <pt x="1483" y="1098" on="1"/>
        <pt x="1663" y="1098" on="1"/>
        <pt x="1663" y="0" on="1"/>
        <pt x="174" y="0" on="1"/>
        <pt x="174" y="1098" on="1"/>
        <pt x="354" y="1098" on="1"/>
        <pt x="354" y="152" on="1"/>
        <pt x="827" y="152" on="1"/>
        <pt x="827" y="1098" on="1"/>
        <pt x="1008" y="1098" on="1"/>
      </contour>
    </TTGlyph>
    <TTGlyph name="afii10091" xMin="174" yMin="-379" xMax="1821" yMax="1098">
      <contour>
        <pt x="1008" y="152" on="1"/>
        <pt x="1483" y="152" on="1"/>
        <pt x="1483" y="1098" on="1"/>
        <pt x="1661" y="1098" on="1"/>
        <pt x="1661" y="150" on="1"/>
        <pt x="1821" y="150" on="1"/>
        <pt x="1821" y="-379" on="1"/>
        <pt x="1640" y="-379" on="1"/>
        <pt x="1640" y="0" on="1"/>
        <pt x="174" y="0" on="1"/>
        <pt x="174" y="1098" on="1"/>
        <pt x="354" y="1098" on="1"/>
        <pt x="354" y="152" on="1"/>
        <pt x="827" y="152" on="1"/>
        <pt x="827" y="1098" on="1"/>
        <pt x="1008" y="1098" on="1"/>
      </contour>
    </TTGlyph>
    <TTGlyph name="afii10092" xMin="37" yMin="0" xMax="1315" yMax="1098">
      <contour>
        <pt x="567" y="647" on="1"/>
        <pt x="870" y="647" on="1"/>
        <pt x="1315" y="647" on="0"/>
        <pt x="1315" y="336" on="1"/>
        <pt x="1315" y="0" on="0"/>
        <pt x="868" y="0" on="1"/>
        <pt x="387" y="0" on="1"/>
        <pt x="387" y="946" on="1"/>
        <pt x="37" y="946" on="1"/>
        <pt x="37" y="1098" on="1"/>
        <pt x="567" y="1098" on="1"/>
      </contour>
      <contour>
        <pt x="1137" y="326" on="1"/>
        <pt x="1137" y="416" on="0"/>
        <pt x="1016" y="496" on="0"/>
        <pt x="864" y="496" on="1"/>
        <pt x="567" y="496" on="1"/>
        <pt x="567" y="145" on="1"/>
        <pt x="870" y="145" on="1"/>
        <pt x="1137" y="145" on="0"/>
      </contour>
    </TTGlyph>
    <TTGlyph name="afii10093" xMin="174" yMin="0" xMax="1419" yMax="1098">
      <contour>
        <pt x="354" y="647" on="1"/>
        <pt x="639" y="647" on="1"/>
        <pt x="853" y="647" on="0"/>
        <pt x="1057" y="491" on="0"/>
        <pt x="1057" y="336" on="1"/>
        <pt x="1057" y="169" on="0"/>
        <pt x="841" y="0" on="0"/>
        <pt x="631" y="0" on="1"/>
        <pt x="174" y="0" on="1"/>
        <pt x="174" y="1098" on="1"/>
        <pt x="354" y="1098" on="1"/>
      </contour>
      <contour>
        <pt x="879" y="326" on="1"/>
        <pt x="879" y="415" on="0"/>
        <pt x="760" y="498" on="0"/>
        <pt x="616" y="498" on="1"/>
        <pt x="354" y="498" on="1"/>
        <pt x="354" y="145" on="1"/>
        <pt x="614" y="145" on="1"/>
        <pt x="879" y="145" on="0"/>
      </contour>
      <contour>
        <pt x="1419" y="0" on="1"/>
        <pt x="1239" y="0" on="1"/>
        <pt x="1239" y="1098" on="1"/>
        <pt x="1419" y="1098" on="1"/>
      </contour>
    </TTGlyph>
    <TTGlyph name="afii10094" xMin="174" yMin="0" xMax="1108" yMax="1098">
      <contour>
        <pt x="354" y="647" on="1"/>
        <pt x="680" y="647" on="1"/>
        <pt x="1108" y="647" on="0"/>
        <pt x="1108" y="336" on="1"/>
        <pt x="1108" y="172" on="0"/>
        <pt x="886" y="0" on="0"/>
        <pt x="672" y="0" on="1"/>
        <pt x="174" y="0" on="1"/>
        <pt x="174" y="1098" on="1"/>
        <pt x="354" y="1098" on="1"/>
      </contour>
      <contour>
        <pt x="928" y="326" on="1"/>
        <pt x="928" y="414" on="0"/>
        <pt x="804" y="498" on="0"/>
        <pt x="659" y="498" on="1"/>
        <pt x="354" y="498" on="1"/>
        <pt x="354" y="145" on="1"/>
        <pt x="664" y="145" on="1"/>
        <pt x="791" y="145" on="0"/>
        <pt x="928" y="237" on="0"/>
      </contour>
    </TTGlyph>
    <TTGlyph name="afii10095" xMin="59" yMin="-20" xMax="899" yMax="1118">
      <contour>
        <pt x="350" y="-20" on="1"/>
        <pt x="181" y="-20" on="0"/>
        <pt x="59" y="39" on="1"/>
        <pt x="59" y="195" on="1"/>
        <pt x="213" y="133" on="0"/>
        <pt x="354" y="133" on="1"/>
        <pt x="690" y="133" on="0"/>
        <pt x="713" y="492" on="1"/>
        <pt x="172" y="492" on="1"/>
        <pt x="172" y="639" on="1"/>
        <pt x="711" y="639" on="1"/>
        <pt x="697" y="807" on="0"/>
        <pt x="535" y="963" on="0"/>
        <pt x="379" y="963" on="1"/>
        <pt x="274" y="963" on="0"/>
        <pt x="123" y="909" on="1"/>
        <pt x="72" y="1055" on="1"/>
        <pt x="136" y="1084" on="0"/>
        <pt x="301" y="1118" on="0"/>
        <pt x="377" y="1118" on="1"/>
        <pt x="634" y="1118" on="0"/>
        <pt x="899" y="827" on="0"/>
        <pt x="899" y="549" on="1"/>
        <pt x="899" y="278" on="0"/>
        <pt x="612" y="-20" on="0"/>
      </contour>
    </TTGlyph>
    <TTGlyph name="afii10096" xMin="174" yMin="-20" xMax="1599" yMax="1118">
      <contour>
        <pt x="1599" y="551" on="1"/>
        <pt x="1599" y="281" on="0"/>
        <pt x="1340" y="-20" on="0"/>
        <pt x="1114" y="-20" on="1"/>
        <pt x="900" y="-20" on="0"/>
        <pt x="647" y="247" on="0"/>
        <pt x="633" y="489" on="1"/>
        <pt x="354" y="489" on="1"/>
        <pt x="354" y="0" on="1"/>
        <pt x="174" y="0" on="1"/>
        <pt x="174" y="1098" on="1"/>
        <pt x="354" y="1098" on="1"/>
        <pt x="354" y="641" on="1"/>
        <pt x="635" y="641" on="1"/>
        <pt x="657" y="870" on="0"/>
        <pt x="909" y="1118" on="0"/>
        <pt x="1118" y="1118" on="1"/>
        <pt x="1340" y="1118" on="0"/>
        <pt x="1599" y="812" on="0"/>
      </contour>
      <contour>
        <pt x="817" y="551" on="1"/>
        <pt x="817" y="343" on="0"/>
        <pt x="959" y="129" on="0"/>
        <pt x="1116" y="129" on="1"/>
        <pt x="1273" y="129" on="0"/>
        <pt x="1413" y="343" on="0"/>
        <pt x="1413" y="551" on="1"/>
        <pt x="1413" y="756" on="0"/>
        <pt x="1271" y="967" on="0"/>
        <pt x="1116" y="967" on="1"/>
        <pt x="959" y="967" on="0"/>
        <pt x="817" y="756" on="0"/>
      </contour>
    </TTGlyph>
    <TTGlyph name="afii10097" xMin="33" yMin="0" xMax="971" yMax="1098">
      <contour>
        <pt x="242" y="0" on="1"/>
        <pt x="33" y="0" on="1"/>
        <pt x="346" y="461" on="1"/>
        <pt x="220" y="493" on="0"/>
        <pt x="90" y="655" on="0"/>
        <pt x="90" y="774" on="1"/>
        <pt x="90" y="926" on="0"/>
        <pt x="296" y="1098" on="0"/>
        <pt x="479" y="1098" on="1"/>
        <pt x="971" y="1098" on="1"/>
        <pt x="971" y="0" on="1"/>
        <pt x="791" y="0" on="1"/>
        <pt x="791" y="436" on="1"/>
        <pt x="524" y="436" on="1"/>
      </contour>
      <contour>
        <pt x="264" y="772" on="1"/>
        <pt x="264" y="586" on="0"/>
        <pt x="532" y="586" on="1"/>
        <pt x="791" y="586" on="1"/>
        <pt x="791" y="948" on="1"/>
        <pt x="498" y="948" on="1"/>
        <pt x="383" y="948" on="0"/>
        <pt x="264" y="858" on="0"/>
      </contour>
    </TTGlyph>
    <TTGlyph name="afii10098" xMin="174" yMin="0" xMax="848" yMax="1417">
      <contour>
        <pt x="848" y="958" on="1"/>
        <pt x="354" y="958" on="1"/>
        <pt x="354" y="0" on="1"/>
        <pt x="174" y="0" on="1"/>
        <pt x="174" y="1098" on="1"/>
        <pt x="672" y="1098" on="1"/>
        <pt x="672" y="1417" on="1"/>
        <pt x="848" y="1417" on="1"/>
      </contour>
    </TTGlyph>
    <TTGlyph name="afii10099" xMin="18" yMin="-492" xMax="1102" yMax="1556">
      <contour>
        <pt x="817" y="-492" on="1"/>
        <pt x="737" y="-492" on="0"/>
        <pt x="680" y="-467" on="1"/>
        <pt x="680" y="-319" on="1"/>
        <pt x="735" y="-340" on="0"/>
        <pt x="793" y="-340" on="1"/>
        <pt x="922" y="-340" on="0"/>
        <pt x="922" y="-170" on="1"/>
        <pt x="922" y="664" on="1"/>
        <pt x="922" y="797" on="0"/>
        <pt x="803" y="926" on="0"/>
        <pt x="678" y="926" on="1"/>
        <pt x="509" y="926" on="0"/>
        <pt x="356" y="739" on="0"/>
        <pt x="356" y="528" on="1"/>
        <pt x="356" y="0" on="1"/>
        <pt x="174" y="0" on="1"/>
        <pt x="174" y="1239" on="1"/>
        <pt x="18" y="1239" on="1"/>
        <pt x="18" y="1372" on="1"/>
        <pt x="174" y="1372" on="1"/>
        <pt x="174" y="1556" on="1"/>
        <pt x="354" y="1556" on="1"/>
        <pt x="354" y="1372" on="1"/>
        <pt x="748" y="1372" on="1"/>
        <pt x="748" y="1239" on="1"/>
        <pt x="354" y="1239" on="1"/>
        <pt x="354" y="1059" on="1"/>
        <pt x="354" y="998" on="0"/>
        <pt x="346" y="907" on="1"/>
        <pt x="356" y="907" on="1"/>
        <pt x="405" y="985" on="0"/>
        <pt x="585" y="1077" on="0"/>
        <pt x="700" y="1077" on="1"/>
        <pt x="900" y="1077" on="0"/>
        <pt x="1102" y="886" on="0"/>
        <pt x="1102" y="676" on="1"/>
        <pt x="1102" y="-162" on="1"/>
        <pt x="1102" y="-322" on="0"/>
        <pt x="958" y="-492" on="0"/>
      </contour>
    </TTGlyph>
    <TTGlyph name="afii10100" xMin="174" yMin="0" xMax="844" yMax="1569">
      <component glyphName="afii10068" x="0" y="0" flags="0x204"/>
      <component glyphName="acute" x="-9" y="0" flags="0x4"/>
    </TTGlyph>
    <TTGlyph name="afii10101" xMin="113" yMin="-20" xMax="944" yMax="1118">
      <contour>
        <pt x="635" y="-20" on="1"/>
        <pt x="385" y="-20" on="0"/>
        <pt x="113" y="269" on="0"/>
        <pt x="113" y="543" on="1"/>
        <pt x="113" y="822" on="0"/>
        <pt x="388" y="1118" on="0"/>
        <pt x="641" y="1118" on="1"/>
        <pt x="725" y="1118" on="0"/>
        <pt x="885" y="1085" on="0"/>
        <pt x="944" y="1059" on="1"/>
        <pt x="891" y="911" on="1"/>
        <pt x="754" y="963" on="0"/>
        <pt x="637" y="963" on="1"/>
        <pt x="479" y="963" on="0"/>
        <pt x="316" y="803" on="0"/>
        <pt x="299" y="639" on="1"/>
        <pt x="838" y="639" on="1"/>
        <pt x="838" y="492" on="1"/>
        <pt x="297" y="492" on="1"/>
        <pt x="306" y="308" on="0"/>
        <pt x="470" y="133" on="0"/>
        <pt x="631" y="133" on="1"/>
        <pt x="724" y="133" on="0"/>
        <pt x="866" y="170" on="0"/>
        <pt x="928" y="195" on="1"/>
        <pt x="928" y="39" on="1"/>
        <pt x="808" y="-20" on="0"/>
      </contour>
    </TTGlyph>
    <TTGlyph name="afii10102" xMin="104" yMin="-20" xMax="889" yMax="1118">
      <component glyphName="s" x="0" y="0" flags="0x204"/>
    </TTGlyph>
    <TTGlyph name="afii10103" xMin="160" yMin="0" xMax="371" yMax="1509">
      <component glyphName="i" x="0" y="0" flags="0x204"/>
    </TTGlyph>
    <TTGlyph name="afii10104" xMin="-20" yMin="0" xMax="556" yMax="1495">
      <component glyphName="dotlessi" x="0" y="0" flags="0x204"/>
      <component glyphName="dieresis" x="-325" y="0" flags="0x4"/>
    </TTGlyph>
    <TTGlyph name="afii10105" xMin="-113" yMin="-492" xMax="371" yMax="1509">
      <component glyphName="j" x="0" y="0" flags="0x204"/>
    </TTGlyph>
    <TTGlyph name="afii10106" xMin="14" yMin="-14" xMax="1616" yMax="1098">
      <contour>
        <pt x="940" y="647" on="1"/>
        <pt x="1194" y="647" on="1"/>
        <pt x="1616" y="647" on="0"/>
        <pt x="1616" y="336" on="1"/>
        <pt x="1616" y="0" on="0"/>
        <pt x="1174" y="0" on="1"/>
        <pt x="758" y="0" on="1"/>
        <pt x="758" y="946" on="1"/>
        <pt x="502" y="946" on="1"/>
        <pt x="475" y="589" on="0"/>
        <pt x="379" y="176" on="0"/>
        <pt x="229" y="-14" on="0"/>
        <pt x="111" y="-14" on="1"/>
        <pt x="44" y="-14" on="0"/>
        <pt x="14" y="0" on="1"/>
        <pt x="14" y="133" on="1"/>
        <pt x="43" y="125" on="0"/>
        <pt x="68" y="125" on="1"/>
        <pt x="175" y="125" on="0"/>
        <pt x="311" y="582" on="0"/>
        <pt x="348" y="1098" on="1"/>
        <pt x="940" y="1098" on="1"/>
      </contour>
      <contour>
        <pt x="1436" y="326" on="1"/>
        <pt x="1436" y="415" on="0"/>
        <pt x="1311" y="496" on="0"/>
        <pt x="1161" y="496" on="1"/>
        <pt x="940" y="496" on="1"/>
        <pt x="940" y="145" on="1"/>
        <pt x="1167" y="145" on="1"/>
        <pt x="1299" y="145" on="0"/>
        <pt x="1436" y="237" on="0"/>
      </contour>
    </TTGlyph>
    <TTGlyph name="afii10107" xMin="174" yMin="0" xMax="1704" yMax="1098">
      <contour>
        <pt x="1032" y="1098" on="1"/>
        <pt x="1032" y="645" on="1"/>
        <pt x="1278" y="645" on="1"/>
        <pt x="1498" y="645" on="0"/>
        <pt x="1704" y="490" on="0"/>
        <pt x="1704" y="336" on="1"/>
        <pt x="1704" y="0" on="0"/>
        <pt x="1266" y="0" on="1"/>
        <pt x="846" y="0" on="1"/>
        <pt x="846" y="489" on="1"/>
        <pt x="358" y="489" on="1"/>
        <pt x="358" y="0" on="1"/>
        <pt x="174" y="0" on="1"/>
        <pt x="174" y="1098" on="1"/>
        <pt x="358" y="1098" on="1"/>
        <pt x="358" y="641" on="1"/>
        <pt x="850" y="641" on="1"/>
        <pt x="850" y="1098" on="1"/>
      </contour>
      <contour>
        <pt x="1028" y="496" on="1"/>
        <pt x="1028" y="145" on="1"/>
        <pt x="1257" y="145" on="1"/>
        <pt x="1526" y="145" on="0"/>
        <pt x="1526" y="326" on="1"/>
        <pt x="1526" y="416" on="0"/>
        <pt x="1401" y="496" on="0"/>
        <pt x="1253" y="496" on="1"/>
      </contour>
    </TTGlyph>
    <TTGlyph name="afii10108" xMin="18" yMin="0" xMax="1100" yMax="1556">
      <contour>
        <pt x="922" y="0" on="1"/>
        <pt x="922" y="662" on="1"/>
        <pt x="922" y="795" on="0"/>
        <pt x="803" y="926" on="0"/>
        <pt x="676" y="926" on="1"/>
        <pt x="507" y="926" on="0"/>
        <pt x="354" y="741" on="0"/>
        <pt x="354" y="528" on="1"/>
        <pt x="354" y="0" on="1"/>
        <pt x="174" y="0" on="1"/>
        <pt x="174" y="1237" on="1"/>
        <pt x="18" y="1237" on="1"/>
        <pt x="18" y="1372" on="1"/>
        <pt x="174" y="1372" on="1"/>
        <pt x="174" y="1556" on="1"/>
        <pt x="354" y="1556" on="1"/>
        <pt x="354" y="1372" on="1"/>
        <pt x="788" y="1372" on="1"/>
        <pt x="788" y="1237" on="1"/>
        <pt x="354" y="1237" on="1"/>
        <pt x="354" y="1059" on="1"/>
        <pt x="354" y="971" on="0"/>
        <pt x="344" y="907" on="1"/>
        <pt x="356" y="907" on="1"/>
        <pt x="409" y="992" on="0"/>
        <pt x="592" y="1077" on="0"/>
        <pt x="700" y="1077" on="1"/>
        <pt x="899" y="1077" on="0"/>
        <pt x="1100" y="884" on="0"/>
        <pt x="1100" y="674" on="1"/>
        <pt x="1100" y="0" on="1"/>
      </contour>
    </TTGlyph>
    <TTGlyph name="afii10109" xMin="174" yMin="0" xMax="1059" yMax="1569">
      <component glyphName="afii10076" x="0" y="0" flags="0x204"/>
      <component glyphName="acute" x="63" y="0" flags="0x4"/>
    </TTGlyph>
    <TTGlyph name="afii10110" xMin="2" yMin="-492" xMax="1044" yMax="1552">
      <component glyphName="y" x="0" y="0" flags="0x204"/>
      <component glyphName="glyph00566" x="-65" y="0" flags="0x4"/>
    </TTGlyph>
    <TTGlyph name="afii10145" xMin="199" yMin="-385" xMax="1296" yMax="1462">
      <contour>
        <pt x="1296" y="0" on="1"/>
        <pt x="836" y="0" on="1"/>
        <pt x="836" y="-385" on="1"/>
        <pt x="647" y="-385" on="1"/>
        <pt x="647" y="0" on="1"/>
        <pt x="199" y="0" on="1"/>
        <pt x="199" y="1462" on="1"/>
        <pt x="383" y="1462" on="1"/>
        <pt x="383" y="164" on="1"/>
        <pt x="1114" y="164" on="1"/>
        <pt x="1114" y="1462" on="1"/>
        <pt x="1296" y="1462" on="1"/>
      </contour>
    </TTGlyph>
    <TTGlyph name="afii10146" xMin="18" yMin="0" xMax="1276" yMax="1462">
      <contour>
        <pt x="18" y="1233" on="1"/>
        <pt x="332" y="1233" on="1"/>
        <pt x="332" y="1462" on="1"/>
        <pt x="518" y="1462" on="1"/>
        <pt x="518" y="1233" on="1"/>
        <pt x="932" y="1233" on="1"/>
        <pt x="932" y="1077" on="1"/>
        <pt x="518" y="1077" on="1"/>
        <pt x="518" y="844" on="1"/>
        <pt x="711" y="844" on="1"/>
        <pt x="1276" y="844" on="0"/>
        <pt x="1276" y="428" on="1"/>
        <pt x="1276" y="216" on="0"/>
        <pt x="1004" y="0" on="0"/>
        <pt x="741" y="0" on="1"/>
        <pt x="332" y="0" on="1"/>
        <pt x="332" y="1077" on="1"/>
        <pt x="18" y="1077" on="1"/>
      </contour>
      <contour>
        <pt x="518" y="156" on="1"/>
        <pt x="721" y="156" on="1"/>
        <pt x="913" y="156" on="0"/>
        <pt x="1085" y="291" on="0"/>
        <pt x="1085" y="428" on="1"/>
        <pt x="1085" y="565" on="0"/>
        <pt x="901" y="682" on="0"/>
        <pt x="690" y="682" on="1"/>
        <pt x="518" y="682" on="1"/>
      </contour>
    </TTGlyph>
    <TTGlyph name="afii10147" xMin="125" yMin="-20" xMax="1475" yMax="1485">
      <contour>
        <pt x="1475" y="733" on="1"/>
        <pt x="1475" y="382" on="0"/>
        <pt x="1120" y="-20" on="0"/>
        <pt x="801" y="-20" on="1"/>
        <pt x="478" y="-20" on="0"/>
        <pt x="125" y="375" on="0"/>
        <pt x="125" y="735" on="1"/>
        <pt x="125" y="1092" on="0"/>
        <pt x="476" y="1485" on="0"/>
        <pt x="803" y="1485" on="1"/>
        <pt x="1121" y="1485" on="0"/>
        <pt x="1475" y="1086" on="0"/>
      </contour>
      <contour>
        <pt x="801" y="139" on="1"/>
        <pt x="1023" y="139" on="0"/>
        <pt x="1266" y="406" on="0"/>
        <pt x="1278" y="666" on="1"/>
        <pt x="322" y="666" on="1"/>
        <pt x="335" y="406" on="0"/>
        <pt x="578" y="139" on="0"/>
      </contour>
      <contour>
        <pt x="803" y="1323" on="1"/>
        <pt x="585" y="1323" on="0"/>
        <pt x="341" y="1072" on="0"/>
        <pt x="322" y="825" on="1"/>
        <pt x="1276" y="825" on="1"/>
        <pt x="1257" y="1073" on="0"/>
        <pt x="1018" y="1323" on="0"/>
      </contour>
    </TTGlyph>
    <TTGlyph name="afii10148" xMin="0" yMin="0" xMax="1362" yMax="1475">
      <contour>
        <pt x="1260" y="1323" on="1"/>
        <pt x="1199" y="1323" on="0"/>
        <pt x="1121" y="1219" on="0"/>
        <pt x="1069" y="1049" on="1"/>
        <pt x="737" y="0" on="1"/>
        <pt x="526" y="0" on="1"/>
        <pt x="0" y="1462" on="1"/>
        <pt x="193" y="1462" on="1"/>
        <pt x="526" y="526" on="1"/>
        <pt x="596" y="333" on="0"/>
        <pt x="629" y="188" on="1"/>
        <pt x="658" y="327" on="0"/>
        <pt x="727" y="549" on="1"/>
        <pt x="891" y="1067" on="1"/>
        <pt x="950" y="1257" on="0"/>
        <pt x="1034" y="1409" on="0"/>
        <pt x="1144" y="1475" on="0"/>
        <pt x="1233" y="1475" on="1"/>
        <pt x="1275" y="1475" on="0"/>
        <pt x="1362" y="1454" on="1"/>
        <pt x="1362" y="1303" on="1"/>
        <pt x="1306" y="1323" on="0"/>
      </contour>
    </TTGlyph>
    <TTGlyph name="afii10193" xMin="174" yMin="-379" xMax="1106" yMax="1098">
      <contour>
        <pt x="557" y="0" on="1"/>
        <pt x="174" y="0" on="1"/>
        <pt x="174" y="1098" on="1"/>
        <pt x="354" y="1098" on="1"/>
        <pt x="354" y="152" on="1"/>
        <pt x="926" y="152" on="1"/>
        <pt x="926" y="1098" on="1"/>
        <pt x="1106" y="1098" on="1"/>
        <pt x="1106" y="0" on="1"/>
        <pt x="733" y="0" on="1"/>
        <pt x="733" y="-379" on="1"/>
        <pt x="557" y="-379" on="1"/>
      </contour>
    </TTGlyph>
    <TTGlyph name="afii10194" xMin="18" yMin="0" xMax="1190" yMax="1319">
      <contour>
        <pt x="436" y="1098" on="1"/>
        <pt x="782" y="1098" on="1"/>
        <pt x="782" y="948" on="1"/>
        <pt x="436" y="948" on="1"/>
        <pt x="436" y="645" on="1"/>
        <pt x="745" y="645" on="1"/>
        <pt x="1190" y="645" on="0"/>
        <pt x="1190" y="336" on="1"/>
        <pt x="1190" y="171" on="0"/>
        <pt x="965" y="0" on="0"/>
        <pt x="741" y="0" on="1"/>
        <pt x="258" y="0" on="1"/>
        <pt x="258" y="948" on="1"/>
        <pt x="18" y="948" on="1"/>
        <pt x="18" y="1098" on="1"/>
        <pt x="258" y="1098" on="1"/>
        <pt x="258" y="1319" on="1"/>
        <pt x="436" y="1319" on="1"/>
      </contour>
      <contour>
        <pt x="436" y="496" on="1"/>
        <pt x="436" y="145" on="1"/>
        <pt x="733" y="145" on="1"/>
        <pt x="869" y="145" on="0"/>
        <pt x="1012" y="237" on="0"/>
        <pt x="1012" y="326" on="1"/>
        <pt x="1012" y="415" on="0"/>
        <pt x="884" y="496" on="0"/>
        <pt x="729" y="496" on="1"/>
      </contour>
    </TTGlyph>
    <TTGlyph name="afii10195" xMin="113" yMin="-20" xMax="1128" yMax="1118">
      <contour>
        <pt x="1128" y="551" on="1"/>
        <pt x="1128" y="282" on="0"/>
        <pt x="856" y="-20" on="0"/>
        <pt x="616" y="-20" on="1"/>
        <pt x="467" y="-20" on="0"/>
        <pt x="237" y="119" on="0"/>
        <pt x="113" y="379" on="0"/>
        <pt x="113" y="551" on="1"/>
        <pt x="113" y="819" on="0"/>
        <pt x="381" y="1118" on="0"/>
        <pt x="623" y="1118" on="1"/>
        <pt x="855" y="1118" on="0"/>
        <pt x="1128" y="813" on="0"/>
      </contour>
      <contour>
        <pt x="621" y="129" on="1"/>
        <pt x="777" y="129" on="0"/>
        <pt x="929" y="313" on="0"/>
        <pt x="940" y="489" on="1"/>
        <pt x="299" y="489" on="1"/>
        <pt x="317" y="129" on="0"/>
      </contour>
      <contour>
        <pt x="618" y="967" on="1"/>
        <pt x="466" y="967" on="0"/>
        <pt x="315" y="801" on="0"/>
        <pt x="301" y="639" on="1"/>
        <pt x="940" y="639" on="1"/>
        <pt x="910" y="967" on="0"/>
      </contour>
    </TTGlyph>
    <TTGlyph name="afii10196" xMin="0" yMin="0" xMax="1100" yMax="1108">
      <contour>
        <pt x="408" y="0" on="1"/>
        <pt x="268" y="370" on="0"/>
        <pt x="0" y="1098" on="1"/>
        <pt x="188" y="1098" on="1"/>
        <pt x="449" y="371" on="1"/>
        <pt x="515" y="180" on="0"/>
        <pt x="524" y="127" on="1"/>
        <pt x="532" y="127" on="1"/>
        <pt x="563" y="292" on="0"/>
        <pt x="596" y="387" on="1"/>
        <pt x="739" y="834" on="1"/>
        <pt x="793" y="1001" on="0"/>
        <pt x="904" y="1108" on="0"/>
        <pt x="1016" y="1108" on="1"/>
        <pt x="1054" y="1108" on="0"/>
        <pt x="1100" y="1096" on="1"/>
        <pt x="1100" y="956" on="1"/>
        <pt x="1071" y="967" on="0"/>
        <pt x="1030" y="967" on="1"/>
        <pt x="984" y="967" on="0"/>
        <pt x="927" y="885" on="0"/>
        <pt x="899" y="799" on="1"/>
        <pt x="647" y="0" on="1"/>
      </contour>
    </TTGlyph>
    <TTGlyph name="afii10846" xMin="104" yMin="-20" xMax="1042" yMax="1118">
      <component glyphName="uni0259" x="0" y="0" flags="0x204"/>
    </TTGlyph>
    <TTGlyph name="afii299" xMin="-41" yMin="-272" xMax="434" yMax="1413">
      <contour>
        <pt x="434" y="1194" on="1"/>
        <pt x="213" y="975" on="1"/>
        <pt x="158" y="1028" on="1"/>
        <pt x="289" y="1153" on="1"/>
        <pt x="41" y="1153" on="1"/>
        <pt x="41" y="-272" on="1"/>
        <pt x="-41" y="-272" on="1"/>
        <pt x="-41" y="1233" on="1"/>
        <pt x="289" y="1233" on="1"/>
        <pt x="158" y="1358" on="1"/>
        <pt x="213" y="1413" on="1"/>
      </contour>
    </TTGlyph>
    <TTGlyph name="afii300" xMin="-436" yMin="-272" xMax="41" yMax="1413">
      <contour>
        <pt x="41" y="-272" on="1"/>
        <pt x="-43" y="-272" on="1"/>
        <pt x="-43" y="1153" on="1"/>
        <pt x="-291" y="1153" on="1"/>
        <pt x="-158" y="1028" on="1"/>
        <pt x="-213" y="975" on="1"/>
        <pt x="-436" y="1194" on="1"/>
        <pt x="-213" y="1413" on="1"/>
        <pt x="-158" y="1358" on="1"/>
        <pt x="-291" y="1233" on="1"/>
        <pt x="41" y="1233" on="1"/>
      </contour>
    </TTGlyph>
    <TTGlyph name="afii301" xMin="-223" yMin="-272" xMax="223" yMax="1413">
      <contour>
        <pt x="43" y="-272" on="1"/>
        <pt x="-43" y="-272" on="1"/>
        <pt x="-43" y="1096" on="1"/>
        <pt x="-170" y="969" on="1"/>
        <pt x="-223" y="1024" on="1"/>
        <pt x="-55" y="1192" on="1"/>
        <pt x="-223" y="1358" on="1"/>
        <pt x="-170" y="1413" on="1"/>
        <pt x="0" y="1243" on="1"/>
        <pt x="170" y="1413" on="1"/>
        <pt x="223" y="1358" on="1"/>
        <pt x="55" y="1192" on="1"/>
        <pt x="223" y="1024" on="1"/>
        <pt x="170" y="969" on="1"/>
        <pt x="43" y="1096" on="1"/>
      </contour>
    </TTGlyph>
    <TTGlyph name="afii57929" xMin="25" yMin="961" xMax="334" yMax="1462">
      <component glyphName="quoteright" x="0" y="0" flags="0x204"/>
    </TTGlyph>
    <TTGlyph name="afii61248" xMin="133" yMin="-10" xMax="1548" yMax="1473">
      <contour>
        <pt x="1311" y="1462" on="1"/>
        <pt x="500" y="0" on="1"/>
        <pt x="342" y="0" on="1"/>
        <pt x="1153" y="1462" on="1"/>
      </contour>
      <contour>
        <pt x="1548" y="334" on="1"/>
        <pt x="1548" y="175" on="0"/>
        <pt x="1380" y="-10" on="0"/>
        <pt x="1229" y="-10" on="1"/>
        <pt x="1087" y="-10" on="0"/>
        <pt x="918" y="177" on="0"/>
        <pt x="918" y="334" on="1"/>
        <pt x="918" y="497" on="0"/>
        <pt x="1087" y="678" on="0"/>
        <pt x="1235" y="678" on="1"/>
        <pt x="1374" y="678" on="0"/>
        <pt x="1548" y="493" on="0"/>
      </contour>
      <contour>
        <pt x="1059" y="334" on="1"/>
        <pt x="1059" y="219" on="0"/>
        <pt x="1147" y="100" on="0"/>
        <pt x="1233" y="100" on="1"/>
        <pt x="1316" y="100" on="0"/>
        <pt x="1405" y="219" on="0"/>
        <pt x="1405" y="334" on="1"/>
        <pt x="1405" y="567" on="0"/>
        <pt x="1233" y="567" on="1"/>
        <pt x="1059" y="567" on="0"/>
      </contour>
      <contour>
        <pt x="483" y="784" on="1"/>
        <pt x="318" y="784" on="0"/>
        <pt x="133" y="962" on="0"/>
        <pt x="133" y="1124" on="1"/>
        <pt x="133" y="1292" on="0"/>
        <pt x="319" y="1473" on="0"/>
        <pt x="492" y="1473" on="1"/>
        <pt x="595" y="1473" on="0"/>
        <pt x="686" y="1436" on="1"/>
        <pt x="651" y="1329" on="1"/>
        <pt x="568" y="1360" on="0"/>
        <pt x="489" y="1360" on="1"/>
        <pt x="274" y="1360" on="0"/>
        <pt x="274" y="1126" on="1"/>
        <pt x="274" y="895" on="0"/>
        <pt x="485" y="895" on="1"/>
        <pt x="588" y="895" on="0"/>
        <pt x="676" y="930" on="1"/>
        <pt x="676" y="823" on="1"/>
        <pt x="645" y="808" on="0"/>
        <pt x="540" y="784" on="0"/>
      </contour>
    </TTGlyph>
    <TTGlyph name="afii61289" xMin="111" yMin="-20" xMax="930" yMax="1483">
      <contour>
        <pt x="637" y="119" on="1"/>
        <pt x="807" y="119" on="0"/>
        <pt x="825" y="330" on="1"/>
        <pt x="930" y="330" on="1"/>
        <pt x="922" y="161" on="0"/>
        <pt x="768" y="-20" on="0"/>
        <pt x="618" y="-20" on="1"/>
        <pt x="465" y="-20" on="0"/>
        <pt x="303" y="163" on="0"/>
        <pt x="303" y="336" on="1"/>
        <pt x="303" y="567" on="1"/>
        <pt x="223" y="537" on="0"/>
        <pt x="111" y="510" on="1"/>
        <pt x="111" y="631" on="1"/>
        <pt x="189" y="652" on="0"/>
        <pt x="303" y="690" on="1"/>
        <pt x="303" y="1180" on="1"/>
        <pt x="303" y="1324" on="0"/>
        <pt x="456" y="1483" on="0"/>
        <pt x="598" y="1483" on="1"/>
        <pt x="718" y="1483" on="0"/>
        <pt x="858" y="1321" on="0"/>
        <pt x="858" y="1182" on="1"/>
        <pt x="858" y="996" on="0"/>
        <pt x="652" y="696" on="0"/>
        <pt x="471" y="618" on="1"/>
        <pt x="471" y="342" on="1"/>
        <pt x="471" y="239" on="0"/>
        <pt x="551" y="119" on="0"/>
      </contour>
      <contour>
        <pt x="721" y="1176" on="1"/>
        <pt x="721" y="1364" on="0"/>
        <pt x="598" y="1364" on="1"/>
        <pt x="533" y="1364" on="0"/>
        <pt x="471" y="1279" on="0"/>
        <pt x="471" y="1176" on="1"/>
        <pt x="471" y="750" on="1"/>
        <pt x="721" y="881" on="0"/>
      </contour>
    </TTGlyph>
    <TTGlyph name="afii61352" xMin="195" yMin="0" xMax="1991" yMax="1462">
      <contour>
        <pt x="1223" y="0" on="1"/>
        <pt x="1022" y="0" on="1"/>
        <pt x="348" y="1208" on="1"/>
        <pt x="340" y="1208" on="1"/>
        <pt x="356" y="920" on="0"/>
        <pt x="356" y="811" on="1"/>
        <pt x="356" y="0" on="1"/>
        <pt x="195" y="0" on="1"/>
        <pt x="195" y="1462" on="1"/>
        <pt x="401" y="1462" on="1"/>
        <pt x="1067" y="258" on="1"/>
        <pt x="1075" y="258" on="1"/>
        <pt x="1061" y="503" on="0"/>
        <pt x="1061" y="643" on="1"/>
        <pt x="1061" y="1462" on="1"/>
        <pt x="1223" y="1462" on="1"/>
      </contour>
      <contour>
        <pt x="1991" y="623" on="1"/>
        <pt x="1991" y="459" on="0"/>
        <pt x="1828" y="274" on="0"/>
        <pt x="1679" y="274" on="1"/>
        <pt x="1539" y="274" on="0"/>
        <pt x="1376" y="462" on="0"/>
        <pt x="1376" y="623" on="1"/>
        <pt x="1376" y="787" on="0"/>
        <pt x="1538" y="969" on="0"/>
        <pt x="1686" y="969" on="1"/>
        <pt x="1824" y="969" on="0"/>
        <pt x="1991" y="784" on="0"/>
      </contour>
      <contour>
        <pt x="1513" y="623" on="1"/>
        <pt x="1513" y="510" on="0"/>
        <pt x="1593" y="393" on="0"/>
        <pt x="1683" y="393" on="1"/>
        <pt x="1773" y="393" on="0"/>
        <pt x="1851" y="510" on="0"/>
        <pt x="1851" y="623" on="1"/>
        <pt x="1851" y="737" on="0"/>
        <pt x="1773" y="846" on="0"/>
        <pt x="1683" y="846" on="1"/>
        <pt x="1594" y="846" on="0"/>
        <pt x="1513" y="737" on="0"/>
      </contour>
      <contour>
        <pt x="1417" y="0" on="1"/>
        <pt x="1417" y="141" on="1"/>
        <pt x="1944" y="141" on="1"/>
        <pt x="1944" y="0" on="1"/>
      </contour>
    </TTGlyph>
    <TTGlyph name="afii61573" xMin="-238" yMin="-272" xMax="238" yMax="1411">
      <contour>
        <pt x="238" y="977" on="1"/>
        <pt x="43" y="977" on="1"/>
        <pt x="43" y="-272" on="1"/>
        <pt x="-43" y="-272" on="1"/>
        <pt x="-43" y="977" on="1"/>
        <pt x="-238" y="977" on="1"/>
        <pt x="-238" y="1411" on="1"/>
        <pt x="238" y="1411" on="1"/>
      </contour>
    </TTGlyph>
    <TTGlyph name="afii61574" xMin="-238" yMin="-272" xMax="238" yMax="1411">
      <contour>
        <pt x="238" y="977" on="1"/>
        <pt x="43" y="977" on="1"/>
        <pt x="43" y="-272" on="1"/>
        <pt x="-43" y="-272" on="1"/>
        <pt x="-43" y="977" on="1"/>
        <pt x="-238" y="977" on="1"/>
        <pt x="-238" y="1411" on="1"/>
        <pt x="238" y="1411" on="1"/>
        <pt x="238" y="1331" on="1"/>
        <pt x="-158" y="1331" on="1"/>
        <pt x="-158" y="1055" on="1"/>
        <pt x="238" y="1055" on="1"/>
      </contour>
    </TTGlyph>
    <TTGlyph name="afii61575" xMin="-238" yMin="-272" xMax="238" yMax="1411">
      <contour>
        <pt x="-238" y="1055" on="1"/>
        <pt x="158" y="1055" on="1"/>
        <pt x="158" y="1331" on="1"/>
        <pt x="-238" y="1331" on="1"/>
        <pt x="-238" y="1411" on="1"/>
        <pt x="238" y="1411" on="1"/>
        <pt x="238" y="977" on="1"/>
        <pt x="43" y="977" on="1"/>
        <pt x="43" y="-272" on="1"/>
        <pt x="-43" y="-272" on="1"/>
        <pt x="-43" y="977" on="1"/>
        <pt x="-238" y="977" on="1"/>
      </contour>
    </TTGlyph>
    <TTGlyph name="afii61664" xMin="-43" yMin="-272" xMax="43" yMax="1286">
      <contour>
        <pt x="43" y="1286" on="1"/>
        <pt x="43" y="-272" on="1"/>
        <pt x="-43" y="-272" on="1"/>
        <pt x="-43" y="1286" on="1"/>
      </contour>
    </TTGlyph>
    <TTGlyph name="afii64937" xMin="25" yMin="961" xMax="336" yMax="1462">
      <component glyphName="quotereversed" x="0" y="0" flags="0x204"/>
    </TTGlyph>
    <TTGlyph name="agrave" xMin="94" yMin="-20" xMax="983" yMax="1569">
      <component glyphName="a" x="0" y="0" flags="0x204"/>
      <component glyphName="grave" x="-112" y="0" flags="0x4"/>
    </TTGlyph>
    <TTGlyph name="alpha" xMin="113" yMin="-20" xMax="1229" yMax="1118">
      <contour>
        <pt x="594" y="129" on="1"/>
        <pt x="759" y="129" on="0"/>
        <pt x="905" y="319" on="0"/>
        <pt x="905" y="535" on="1"/>
        <pt x="905" y="547" on="1"/>
        <pt x="905" y="772" on="0"/>
        <pt x="756" y="967" on="0"/>
        <pt x="592" y="967" on="1"/>
        <pt x="299" y="967" on="0"/>
        <pt x="299" y="543" on="1"/>
        <pt x="299" y="337" on="0"/>
        <pt x="440" y="129" on="0"/>
      </contour>
      <contour>
        <pt x="563" y="-20" on="1"/>
        <pt x="351" y="-20" on="0"/>
        <pt x="113" y="278" on="0"/>
        <pt x="113" y="545" on="1"/>
        <pt x="113" y="819" on="0"/>
        <pt x="357" y="1118" on="0"/>
        <pt x="580" y="1118" on="1"/>
        <pt x="701" y="1118" on="0"/>
        <pt x="861" y="1034" on="0"/>
        <pt x="915" y="950" on="1"/>
        <pt x="928" y="950" on="1"/>
        <pt x="952" y="1042" on="0"/>
        <pt x="993" y="1098" on="1"/>
        <pt x="1135" y="1098" on="1"/>
        <pt x="1111" y="1029" on="0"/>
        <pt x="1083" y="770" on="0"/>
        <pt x="1083" y="668" on="1"/>
        <pt x="1083" y="242" on="1"/>
        <pt x="1083" y="179" on="0"/>
        <pt x="1132" y="127" on="0"/>
        <pt x="1167" y="127" on="1"/>
        <pt x="1199" y="127" on="0"/>
        <pt x="1229" y="137" on="1"/>
        <pt x="1229" y="6" on="1"/>
        <pt x="1213" y="-3" on="0"/>
        <pt x="1148" y="-20" on="0"/>
        <pt x="1114" y="-20" on="1"/>
        <pt x="1027" y="-20" on="0"/>
        <pt x="937" y="66" on="0"/>
        <pt x="920" y="147" on="1"/>
        <pt x="905" y="147" on="1"/>
        <pt x="845" y="60" on="0"/>
        <pt x="680" y="-20" on="0"/>
      </contour>
    </TTGlyph>
    <TTGlyph name="alphatonos" xMin="113" yMin="-20" xMax="1229" yMax="1649">
      <component glyphName="alpha" x="0" y="0" flags="0x204"/>
      <component glyphName="tonos" x="31" y="0" flags="0x4"/>
    </TTGlyph>
    <TTGlyph name="amacron" xMin="94" yMin="-20" xMax="983" yMax="1386">
      <component glyphName="a" x="0" y="0" flags="0x204"/>
      <component glyphName="uni02C9" x="-7" y="0" flags="0x4"/>
    </TTGlyph>
    <TTGlyph name="ampersand" xMin="109" yMin="-20" xMax="1495" yMax="1485">
      <contour>
        <pt x="422" y="1167" on="1"/>
        <pt x="422" y="1102" on="0"/>
        <pt x="493" y="972" on="0"/>
        <pt x="573" y="893" on="1"/>
        <pt x="697" y="962" on="0"/>
        <pt x="799" y="1088" on="0"/>
        <pt x="799" y="1169" on="1"/>
        <pt x="799" y="1245" on="0"/>
        <pt x="697" y="1337" on="0"/>
        <pt x="616" y="1337" on="1"/>
        <pt x="527" y="1337" on="0"/>
        <pt x="422" y="1243" on="0"/>
      </contour>
      <contour>
        <pt x="575" y="139" on="1"/>
        <pt x="802" y="139" on="0"/>
        <pt x="958" y="285" on="1"/>
        <pt x="532" y="698" on="1"/>
        <pt x="394" y="615" on="0"/>
        <pt x="297" y="479" on="0"/>
        <pt x="297" y="387" on="1"/>
        <pt x="297" y="274" on="0"/>
        <pt x="451" y="139" on="0"/>
      </contour>
      <contour>
        <pt x="109" y="381" on="1"/>
        <pt x="109" y="511" on="0"/>
        <pt x="243" y="707" on="0"/>
        <pt x="424" y="811" on="1"/>
        <pt x="347" y="898" on="0"/>
        <pt x="282" y="999" on="0"/>
        <pt x="246" y="1106" on="0"/>
        <pt x="246" y="1165" on="1"/>
        <pt x="246" y="1313" on="0"/>
        <pt x="444" y="1485" on="0"/>
        <pt x="623" y="1485" on="1"/>
        <pt x="788" y="1485" on="0"/>
        <pt x="977" y="1317" on="0"/>
        <pt x="977" y="1169" on="1"/>
        <pt x="977" y="1060" on="0"/>
        <pt x="840" y="878" on="0"/>
        <pt x="684" y="786" on="1"/>
        <pt x="1079" y="406" on="1"/>
        <pt x="1172" y="514" on="0"/>
        <pt x="1223" y="731" on="1"/>
        <pt x="1405" y="731" on="1"/>
        <pt x="1336" y="446" on="0"/>
        <pt x="1196" y="291" on="1"/>
        <pt x="1495" y="0" on="1"/>
        <pt x="1251" y="0" on="1"/>
        <pt x="1073" y="172" on="1"/>
        <pt x="959" y="70" on="0"/>
        <pt x="716" y="-20" on="0"/>
        <pt x="569" y="-20" on="1"/>
        <pt x="354" y="-20" on="0"/>
        <pt x="109" y="190" on="0"/>
      </contour>
    </TTGlyph>
    <TTGlyph name="anoteleia" xMin="147" yMin="584" xMax="401" yMax="862">
      <component glyphName="periodcentered" x="0" y="0" flags="0x204"/>
    </TTGlyph>
    <TTGlyph name="aogonek" xMin="94" yMin="-451" xMax="1030" yMax="1116">
      <component glyphName="a" x="0" y="0" flags="0x204"/>
      <component glyphName="ogonek" x="657" y="0" flags="0x4"/>
    </TTGlyph>
    <TTGlyph name="approxequal" xMin="96" yMin="387" xMax="1071" yMax="1059">
      <contour>
        <pt x="334" y="508" on="1"/>
        <pt x="280" y="508" on="0"/>
        <pt x="153" y="444" on="0"/>
        <pt x="96" y="387" on="1"/>
        <pt x="96" y="545" on="1"/>
        <pt x="204" y="655" on="0"/>
        <pt x="352" y="655" on="1"/>
        <pt x="420" y="655" on="0"/>
        <pt x="538" y="625" on="0"/>
        <pt x="621" y="590" on="1"/>
        <pt x="694" y="559" on="0"/>
        <pt x="789" y="532" on="0"/>
        <pt x="836" y="532" on="1"/>
        <pt x="889" y="532" on="0"/>
        <pt x="1014" y="598" on="0"/>
        <pt x="1071" y="655" on="1"/>
        <pt x="1071" y="496" on="1"/>
        <pt x="966" y="387" on="0"/>
        <pt x="815" y="387" on="1"/>
        <pt x="748" y="387" on="0"/>
        <pt x="637" y="416" on="0"/>
        <pt x="549" y="453" on="1"/>
        <pt x="474" y="484" on="0"/>
        <pt x="382" y="508" on="0"/>
      </contour>
      <contour>
        <pt x="334" y="913" on="1"/>
        <pt x="280" y="913" on="0"/>
        <pt x="151" y="848" on="0"/>
        <pt x="96" y="793" on="1"/>
        <pt x="96" y="950" on="1"/>
        <pt x="202" y="1059" on="0"/>
        <pt x="352" y="1059" on="1"/>
        <pt x="415" y="1059" on="0"/>
        <pt x="523" y="1034" on="0"/>
        <pt x="621" y="993" on="1"/>
        <pt x="686" y="966" on="0"/>
        <pt x="783" y="938" on="0"/>
        <pt x="836" y="938" on="1"/>
        <pt x="896" y="938" on="0"/>
        <pt x="1020" y="1008" on="0"/>
        <pt x="1071" y="1059" on="1"/>
        <pt x="1071" y="901" on="1"/>
        <pt x="967" y="791" on="0"/>
        <pt x="815" y="791" on="1"/>
        <pt x="746" y="791" on="0"/>
        <pt x="628" y="823" on="0"/>
        <pt x="549" y="856" on="1"/>
        <pt x="460" y="893" on="0"/>
        <pt x="373" y="913" on="0"/>
      </contour>
    </TTGlyph>
    <TTGlyph name="aring" xMin="94" yMin="-20" xMax="983" yMax="1673">
      <component glyphName="a" x="0" y="0" flags="0x204"/>
      <component glyphName="ring" x="-3" y="0" flags="0x4"/>
    </TTGlyph>
    <TTGlyph name="aringacute" xMin="94" yMin="-20" xMax="983" yMax="1962">
      <contour>
        <pt x="852" y="0" on="1"/>
        <pt x="817" y="156" on="1"/>
        <pt x="809" y="156" on="1"/>
        <pt x="727" y="53" on="0"/>
        <pt x="564" y="-20" on="0"/>
        <pt x="440" y="-20" on="1"/>
        <pt x="278" y="-20" on="0"/>
        <pt x="94" y="150" on="0"/>
        <pt x="94" y="305" on="1"/>
        <pt x="94" y="639" on="0"/>
        <pt x="621" y="655" on="1"/>
        <pt x="807" y="662" on="1"/>
        <pt x="807" y="727" on="1"/>
        <pt x="807" y="852" on="0"/>
        <pt x="699" y="971" on="0"/>
        <pt x="580" y="971" on="1"/>
        <pt x="493" y="971" on="0"/>
        <pt x="338" y="919" on="0"/>
        <pt x="270" y="887" on="1"/>
        <pt x="215" y="1022" on="1"/>
        <pt x="298" y="1066" on="0"/>
        <pt x="494" y="1116" on="0"/>
        <pt x="590" y="1116" on="1"/>
        <pt x="789" y="1116" on="0"/>
        <pt x="983" y="940" on="0"/>
        <pt x="983" y="748" on="1"/>
        <pt x="983" y="0" on="1"/>
      </contour>
      <contour>
        <pt x="481" y="125" on="1"/>
        <pt x="632" y="125" on="0"/>
        <pt x="805" y="288" on="0"/>
        <pt x="805" y="438" on="1"/>
        <pt x="805" y="537" on="1"/>
        <pt x="643" y="530" on="1"/>
        <pt x="454" y="523" on="0"/>
        <pt x="281" y="417" on="0"/>
        <pt x="281" y="303" on="1"/>
        <pt x="281" y="217" on="0"/>
        <pt x="386" y="125" on="0"/>
      </contour>
      <contour>
        <pt x="811" y="1460" on="1"/>
        <pt x="811" y="1359" on="0"/>
        <pt x="686" y="1241" on="0"/>
        <pt x="584" y="1241" on="1"/>
        <pt x="481" y="1241" on="0"/>
        <pt x="360" y="1359" on="0"/>
        <pt x="360" y="1458" on="1"/>
        <pt x="360" y="1555" on="0"/>
        <pt x="480" y="1673" on="0"/>
        <pt x="584" y="1673" on="1"/>
        <pt x="685" y="1673" on="0"/>
        <pt x="811" y="1555" on="0"/>
      </contour>
      <contour>
        <pt x="698" y="1458" on="1"/>
        <pt x="698" y="1512" on="0"/>
        <pt x="633" y="1573" on="0"/>
        <pt x="584" y="1573" on="1"/>
        <pt x="534" y="1573" on="0"/>
        <pt x="469" y="1512" on="0"/>
        <pt x="469" y="1458" on="1"/>
        <pt x="469" y="1404" on="0"/>
        <pt x="528" y="1343" on="0"/>
        <pt x="584" y="1343" on="1"/>
        <pt x="635" y="1343" on="0"/>
        <pt x="698" y="1404" on="0"/>
      </contour>
      <contour>
        <pt x="471" y="1753" on="1"/>
        <pt x="471" y="1769" on="1"/>
        <pt x="517" y="1811" on="0"/>
        <pt x="623" y="1931" on="0"/>
        <pt x="645" y="1962" on="1"/>
        <pt x="913" y="1962" on="1"/>
        <pt x="913" y="1950" on="1"/>
        <pt x="892" y="1926" on="0"/>
        <pt x="728" y="1821" on="0"/>
        <pt x="600" y="1753" on="1"/>
      </contour>
    </TTGlyph>
    <TTGlyph name="arrowboth" xMin="418" yMin="100" xMax="1630" yMax="580">
      <contour>
        <pt x="641" y="297" on="1"/>
        <pt x="698" y="229" on="0"/>
        <pt x="760" y="100" on="1"/>
        <pt x="688" y="100" on="1"/>
        <pt x="561" y="250" on="0"/>
        <pt x="418" y="322" on="1"/>
        <pt x="418" y="358" on="1"/>
        <pt x="561" y="430" on="0"/>
        <pt x="688" y="580" on="1"/>
        <pt x="760" y="580" on="1"/>
        <pt x="698" y="451" on="0"/>
        <pt x="641" y="383" on="1"/>
        <pt x="1407" y="383" on="1"/>
        <pt x="1350" y="451" on="0"/>
        <pt x="1288" y="580" on="1"/>
        <pt x="1360" y="580" on="1"/>
        <pt x="1487" y="430" on="0"/>
        <pt x="1630" y="358" on="1"/>
        <pt x="1630" y="322" on="1"/>
        <pt x="1487" y="250" on="0"/>
        <pt x="1360" y="100" on="1"/>
        <pt x="1288" y="100" on="1"/>
        <pt x="1350" y="229" on="0"/>
        <pt x="1407" y="297" on="1"/>
      </contour>
    </TTGlyph>
    <TTGlyph name="arrowdown" xMin="272" yMin="-61" xMax="752" yMax="1151">
      <contour>
        <pt x="555" y="162" on="1"/>
        <pt x="623" y="219" on="0"/>
        <pt x="752" y="281" on="1"/>
        <pt x="752" y="209" on="1"/>
        <pt x="602" y="82" on="0"/>
        <pt x="530" y="-61" on="1"/>
        <pt x="494" y="-61" on="1"/>
        <pt x="422" y="82" on="0"/>
        <pt x="272" y="209" on="1"/>
        <pt x="272" y="281" on="1"/>
        <pt x="401" y="219" on="0"/>
        <pt x="469" y="162" on="1"/>
        <pt x="469" y="1151" on="1"/>
        <pt x="555" y="1151" on="1"/>
      </contour>
    </TTGlyph>
    <TTGlyph name="arrowleft" xMin="418" yMin="100" xMax="1630" yMax="580">
      <contour>
        <pt x="641" y="297" on="1"/>
        <pt x="698" y="229" on="0"/>
        <pt x="760" y="100" on="1"/>
        <pt x="688" y="100" on="1"/>
        <pt x="561" y="250" on="0"/>
        <pt x="418" y="322" on="1"/>
        <pt x="418" y="358" on="1"/>
        <pt x="561" y="430" on="0"/>
        <pt x="688" y="580" on="1"/>
        <pt x="760" y="580" on="1"/>
        <pt x="698" y="451" on="0"/>
        <pt x="641" y="383" on="1"/>
        <pt x="1630" y="383" on="1"/>
        <pt x="1630" y="297" on="1"/>
      </contour>
    </TTGlyph>
    <TTGlyph name="arrowright" xMin="418" yMin="100" xMax="1630" yMax="580">
      <contour>
        <pt x="1407" y="383" on="1"/>
        <pt x="1350" y="451" on="0"/>
        <pt x="1288" y="580" on="1"/>
        <pt x="1360" y="580" on="1"/>
        <pt x="1487" y="430" on="0"/>
        <pt x="1630" y="358" on="1"/>
        <pt x="1630" y="322" on="1"/>
        <pt x="1487" y="250" on="0"/>
        <pt x="1360" y="100" on="1"/>
        <pt x="1288" y="100" on="1"/>
        <pt x="1350" y="229" on="0"/>
        <pt x="1407" y="297" on="1"/>
        <pt x="418" y="297" on="1"/>
        <pt x="418" y="383" on="1"/>
      </contour>
    </TTGlyph>
    <TTGlyph name="arrowup" xMin="272" yMin="-61" xMax="752" yMax="1151">
      <contour>
        <pt x="469" y="928" on="1"/>
        <pt x="401" y="870" on="0"/>
        <pt x="272" y="809" on="1"/>
        <pt x="272" y="881" on="1"/>
        <pt x="422" y="1008" on="0"/>
        <pt x="494" y="1151" on="1"/>
        <pt x="530" y="1151" on="1"/>
        <pt x="602" y="1008" on="0"/>
        <pt x="752" y="881" on="1"/>
        <pt x="752" y="809" on="1"/>
        <pt x="623" y="870" on="0"/>
        <pt x="555" y="928" on="1"/>
        <pt x="555" y="-61" on="1"/>
        <pt x="469" y="-61" on="1"/>
      </contour>
    </TTGlyph>
    <TTGlyph name="arrowupdn" xMin="272" yMin="-61" xMax="752" yMax="1151">
      <contour>
        <pt x="469" y="928" on="1"/>
        <pt x="401" y="870" on="0"/>
        <pt x="272" y="809" on="1"/>
        <pt x="272" y="881" on="1"/>
        <pt x="422" y="1008" on="0"/>
        <pt x="494" y="1151" on="1"/>
        <pt x="530" y="1151" on="1"/>
        <pt x="602" y="1008" on="0"/>
        <pt x="752" y="881" on="1"/>
        <pt x="752" y="809" on="1"/>
        <pt x="623" y="870" on="0"/>
        <pt x="555" y="928" on="1"/>
        <pt x="555" y="162" on="1"/>
        <pt x="623" y="219" on="0"/>
        <pt x="752" y="281" on="1"/>
        <pt x="752" y="209" on="1"/>
        <pt x="602" y="82" on="0"/>
        <pt x="530" y="-61" on="1"/>
        <pt x="494" y="-61" on="1"/>
        <pt x="422" y="82" on="0"/>
        <pt x="272" y="209" on="1"/>
        <pt x="272" y="281" on="1"/>
        <pt x="401" y="219" on="0"/>
        <pt x="469" y="162" on="1"/>
      </contour>
    </TTGlyph>
    <TTGlyph name="arrowupdnbse" xMin="272" yMin="-184" xMax="752" yMax="1151">
      <contour>
        <pt x="272" y="-104" on="1"/>
        <pt x="752" y="-104" on="1"/>
        <pt x="752" y="-184" on="1"/>
        <pt x="272" y="-184" on="1"/>
      </contour>
      <contour>
        <pt x="469" y="928" on="1"/>
        <pt x="401" y="870" on="0"/>
        <pt x="272" y="809" on="1"/>
        <pt x="272" y="881" on="1"/>
        <pt x="422" y="1008" on="0"/>
        <pt x="494" y="1151" on="1"/>
        <pt x="530" y="1151" on="1"/>
        <pt x="602" y="1008" on="0"/>
        <pt x="752" y="881" on="1"/>
        <pt x="752" y="809" on="1"/>
        <pt x="623" y="870" on="0"/>
        <pt x="555" y="928" on="1"/>
        <pt x="555" y="162" on="1"/>
        <pt x="623" y="219" on="0"/>
        <pt x="752" y="281" on="1"/>
        <pt x="752" y="209" on="1"/>
        <pt x="602" y="82" on="0"/>
        <pt x="530" y="-61" on="1"/>
        <pt x="494" y="-61" on="1"/>
        <pt x="422" y="82" on="0"/>
        <pt x="272" y="209" on="1"/>
        <pt x="272" y="281" on="1"/>
        <pt x="401" y="219" on="0"/>
        <pt x="469" y="162" on="1"/>
      </contour>
    </TTGlyph>
    <TTGlyph name="asciicircum" xMin="78" yMin="547" xMax="1094" yMax="1473">
      <contour>
        <pt x="78" y="547" on="1"/>
        <pt x="512" y="1473" on="1"/>
        <pt x="614" y="1473" on="1"/>
        <pt x="1094" y="547" on="1"/>
        <pt x="934" y="547" on="1"/>
        <pt x="565" y="1282" on="1"/>
        <pt x="238" y="547" on="1"/>
      </contour>
    </TTGlyph>
    <TTGlyph name="asciitilde" xMin="102" yMin="588" xMax="1067" yMax="856">
      <contour>
        <pt x="336" y="709" on="1"/>
        <pt x="283" y="709" on="0"/>
        <pt x="156" y="642" on="0"/>
        <pt x="102" y="588" on="1"/>
        <pt x="102" y="748" on="1"/>
        <pt x="202" y="856" on="0"/>
        <pt x="348" y="856" on="1"/>
        <pt x="418" y="856" on="0"/>
        <pt x="537" y="825" on="0"/>
        <pt x="618" y="791" on="1"/>
        <pt x="691" y="760" on="0"/>
        <pt x="785" y="735" on="0"/>
        <pt x="831" y="735" on="1"/>
        <pt x="885" y="735" on="0"/>
        <pt x="1013" y="799" on="0"/>
        <pt x="1067" y="856" on="1"/>
        <pt x="1067" y="698" on="1"/>
        <pt x="965" y="588" on="0"/>
        <pt x="821" y="588" on="1"/>
        <pt x="749" y="588" on="0"/>
        <pt x="623" y="621" on="0"/>
        <pt x="551" y="653" on="1"/>
        <pt x="478" y="685" on="0"/>
        <pt x="384" y="709" on="0"/>
      </contour>
    </TTGlyph>
    <TTGlyph name="asterisk" xMin="84" yMin="635" xMax="1040" yMax="1556">
      <contour>
        <pt x="659" y="1556" on="1"/>
        <pt x="618" y="1163" on="1"/>
        <pt x="1012" y="1274" on="1"/>
        <pt x="1040" y="1085" on="1"/>
        <pt x="664" y="1055" on="1"/>
        <pt x="907" y="731" on="1"/>
        <pt x="731" y="635" on="1"/>
        <pt x="557" y="993" on="1"/>
        <pt x="399" y="635" on="1"/>
        <pt x="217" y="731" on="1"/>
        <pt x="457" y="1055" on="1"/>
        <pt x="84" y="1085" on="1"/>
        <pt x="113" y="1274" on="1"/>
        <pt x="502" y="1163" on="1"/>
        <pt x="459" y="1556" on="1"/>
      </contour>
    </TTGlyph>
    <TTGlyph name="at" xMin="119" yMin="-182" xMax="1722" yMax="1462">
      <contour>
        <pt x="1722" y="731" on="1"/>
        <pt x="1722" y="591" on="0"/>
        <pt x="1633" y="355" on="0"/>
        <pt x="1473" y="223" on="0"/>
        <pt x="1368" y="223" on="1"/>
        <pt x="1283" y="223" on="0"/>
        <pt x="1167" y="322" on="0"/>
        <pt x="1153" y="401" on="1"/>
        <pt x="1143" y="401" on="1"/>
        <pt x="1104" y="318" on="0"/>
        <pt x="954" y="223" on="0"/>
        <pt x="854" y="223" on="1"/>
        <pt x="702" y="223" on="0"/>
        <pt x="528" y="426" on="0"/>
        <pt x="528" y="604" on="1"/>
        <pt x="528" y="737" on="0"/>
        <pt x="635" y="948" on="0"/>
        <pt x="835" y="1065" on="0"/>
        <pt x="963" y="1065" on="1"/>
        <pt x="1032" y="1065" on="0"/>
        <pt x="1209" y="1040" on="0"/>
        <pt x="1276" y="1016" on="1"/>
        <pt x="1253" y="548" on="1"/>
        <pt x="1253" y="526" on="1"/>
        <pt x="1253" y="350" on="0"/>
        <pt x="1380" y="350" on="1"/>
        <pt x="1469" y="350" on="0"/>
        <pt x="1579" y="560" on="0"/>
        <pt x="1579" y="733" on="1"/>
        <pt x="1579" y="912" on="0"/>
        <pt x="1432" y="1182" on="0"/>
        <pt x="1161" y="1327" on="0"/>
        <pt x="987" y="1327" on="1"/>
        <pt x="767" y="1327" on="0"/>
        <pt x="440" y="1144" on="0"/>
        <pt x="266" y="805" on="0"/>
        <pt x="266" y="580" on="1"/>
        <pt x="266" y="278" on="0"/>
        <pt x="584" y="-47" on="0"/>
        <pt x="887" y="-47" on="1"/>
        <pt x="1099" y="-47" on="0"/>
        <pt x="1327" y="41" on="1"/>
        <pt x="1327" y="-98" on="1"/>
        <pt x="1127" y="-182" on="0"/>
        <pt x="887" y="-182" on="1"/>
        <pt x="523" y="-182" on="0"/>
        <pt x="119" y="217" on="0"/>
        <pt x="119" y="573" on="1"/>
        <pt x="119" y="832" on="0"/>
        <pt x="334" y="1239" on="0"/>
        <pt x="730" y="1462" on="0"/>
        <pt x="987" y="1462" on="1"/>
        <pt x="1202" y="1462" on="0"/>
        <pt x="1539" y="1280" on="0"/>
        <pt x="1722" y="946" on="0"/>
      </contour>
      <contour>
        <pt x="688" y="600" on="1"/>
        <pt x="688" y="350" on="0"/>
        <pt x="881" y="350" on="1"/>
        <pt x="1086" y="350" on="0"/>
        <pt x="1104" y="659" on="1"/>
        <pt x="1116" y="915" on="1"/>
        <pt x="1043" y="936" on="0"/>
        <pt x="965" y="936" on="1"/>
        <pt x="836" y="936" on="0"/>
        <pt x="688" y="758" on="0"/>
      </contour>
    </TTGlyph>
    <TTGlyph name="atilde" xMin="94" yMin="-20" xMax="983" yMax="1505">
      <component glyphName="a" x="0" y="0" flags="0x204"/>
      <component glyphName="tilde" x="-58" y="0" flags="0x4"/>
    </TTGlyph>
    <TTGlyph name="b" xMin="174" yMin="-20" xMax="1147" yMax="1556">
      <contour>
        <pt x="694" y="1116" on="1"/>
        <pt x="911" y="1116" on="0"/>
        <pt x="1147" y="817" on="0"/>
        <pt x="1147" y="549" on="1"/>
        <pt x="1147" y="277" on="0"/>
        <pt x="907" y="-20" on="0"/>
        <pt x="694" y="-20" on="1"/>
        <pt x="583" y="-20" on="0"/>
        <pt x="409" y="60" on="0"/>
        <pt x="354" y="139" on="1"/>
        <pt x="340" y="139" on="1"/>
        <pt x="309" y="19" on="0"/>
        <pt x="303" y="0" on="1"/>
        <pt x="174" y="0" on="1"/>
        <pt x="174" y="1556" on="1"/>
        <pt x="354" y="1556" on="1"/>
        <pt x="354" y="1178" on="1"/>
        <pt x="354" y="1065" on="0"/>
        <pt x="344" y="952" on="1"/>
        <pt x="354" y="952" on="1"/>
        <pt x="465" y="1116" on="0"/>
      </contour>
      <contour>
        <pt x="664" y="967" on="1"/>
        <pt x="498" y="967" on="0"/>
        <pt x="354" y="779" on="0"/>
        <pt x="354" y="555" on="1"/>
        <pt x="354" y="547" on="1"/>
        <pt x="354" y="322" on="0"/>
        <pt x="501" y="129" on="0"/>
        <pt x="668" y="129" on="1"/>
        <pt x="816" y="129" on="0"/>
        <pt x="961" y="346" on="0"/>
        <pt x="961" y="551" on="1"/>
        <pt x="961" y="759" on="0"/>
        <pt x="815" y="967" on="0"/>
      </contour>
    </TTGlyph>
    <TTGlyph name="backslash" xMin="20" yMin="0" xMax="743" yMax="1462">
      <contour>
        <pt x="197" y="1462" on="1"/>
        <pt x="743" y="0" on="1"/>
        <pt x="565" y="0" on="1"/>
        <pt x="20" y="1462" on="1"/>
      </contour>
    </TTGlyph>
    <TTGlyph name="bar" xMin="489" yMin="-494" xMax="639" yMax="1556">
      <contour>
        <pt x="489" y="1556" on="1"/>
        <pt x="639" y="1556" on="1"/>
        <pt x="639" y="-494" on="1"/>
        <pt x="489" y="-494" on="1"/>
      </contour>
    </TTGlyph>
    <TTGlyph name="beta" xMin="174" yMin="-492" xMax="1200" yMax="1567">
      <contour>
        <pt x="664" y="1567" on="1"/>
        <pt x="885" y="1567" on="0"/>
        <pt x="1135" y="1359" on="0"/>
        <pt x="1135" y="1176" on="1"/>
        <pt x="1135" y="882" on="0"/>
        <pt x="823" y="831" on="1"/>
        <pt x="823" y="823" on="1"/>
        <pt x="1010" y="802" on="0"/>
        <pt x="1200" y="603" on="0"/>
        <pt x="1200" y="416" on="1"/>
        <pt x="1200" y="208" on="0"/>
        <pt x="939" y="-20" on="0"/>
        <pt x="700" y="-20" on="1"/>
        <pt x="589" y="-20" on="0"/>
        <pt x="428" y="13" on="0"/>
        <pt x="354" y="49" on="1"/>
        <pt x="354" y="-492" on="1"/>
        <pt x="174" y="-492" on="1"/>
        <pt x="174" y="1096" on="1"/>
        <pt x="174" y="1320" on="0"/>
        <pt x="428" y="1567" on="0"/>
      </contour>
      <contour>
        <pt x="659" y="1417" on="1"/>
        <pt x="354" y="1417" on="0"/>
        <pt x="354" y="1087" on="1"/>
        <pt x="354" y="211" on="1"/>
        <pt x="425" y="174" on="0"/>
        <pt x="580" y="127" on="0"/>
        <pt x="684" y="127" on="1"/>
        <pt x="1020" y="127" on="0"/>
        <pt x="1020" y="428" on="1"/>
        <pt x="1020" y="580" on="0"/>
        <pt x="836" y="739" on="0"/>
        <pt x="664" y="739" on="1"/>
        <pt x="555" y="739" on="1"/>
        <pt x="555" y="891" on="1"/>
        <pt x="643" y="891" on="1"/>
        <pt x="792" y="891" on="0"/>
        <pt x="950" y="1033" on="0"/>
        <pt x="950" y="1167" on="1"/>
        <pt x="950" y="1288" on="0"/>
        <pt x="798" y="1417" on="0"/>
      </contour>
    </TTGlyph>
    <TTGlyph name="block" xMin="0" yMin="-492" xMax="1450" yMax="1993">
      <contour>
        <pt x="1450" y="-492" on="1"/>
        <pt x="0" y="-492" on="1"/>
        <pt x="0" y="1993" on="1"/>
        <pt x="1450" y="1993" on="1"/>
      </contour>
    </TTGlyph>
</ttFont>
